<?xml version="1.0" encoding="utf-8"?>
<svg version="1.1" id="Layer_1"
xmlns="http://www.w3.org/2000/svg"
xmlns:xlink="http://www.w3.org/1999/xlink"
width="196px" height="244px"
xml:space="preserve">
<g id="PathID_25" transform="matrix(0.771356, -0.410137, 0.410137, 0.771356, 61.45, 49.7)" opacity="1">
<path style="fill:#0B5FA5;fill-opacity:1" d="M30.2 -40.2Q24.95 -33.2 21.05 -20.9Q19.25 -15.25 16.45 -3Q11.15 -1.55 7 0.45L2.6 -14.25Q-0.35 -24.8 -0.6 -31.85Q1.05 -32.2 4 -33.45Q7.4 -34.85 9.5 -36.3Q9.5 -20.15 12 -9.05Q13 -18.7 14.8 -28.7Q16.95 -40.5 18.95 -44.25Q22.85 -42.2 30.2 -40.2" />
</g>
<g id="PathID_26" transform="matrix(0.771356, -0.410137, 0.410137, 0.771356, 61.45, 49.7)" opacity="1">
</g>
<g id="PathID_27" transform="matrix(0.873481, 0.0152467, -0.0152467, 0.873481, 95.2, 36.05)" opacity="1">
<path style="fill:#0B5FA5;fill-opacity:1" d="M12.5 -39.4Q9.55 -21.55 9.55 -0.45Q9.15 -0.55 8.55 -0.55Q6.25 -0.55 1.9 0.55L1.9 -28.15Q2 -33.75 2.95 -36.1L7.7 -37.4Q10.7 -38.2 12.5 -39.4" />
</g>
<g id="PathID_28" transform="matrix(0.873481, 0.0152467, -0.0152467, 0.873481, 95.2, 36.05)" opacity="1">
</g>
<g id="PathID_29" transform="matrix(0.756572, 0.436807, -0.436807, 0.756572, 118, 39.25)" opacity="1">
<path style="fill:#0B5FA5;fill-opacity:1" d="M26.1 -33.2Q22.3 -32.9 17.15 -31.85Q15.75 -23.85 15.75 -14.15Q15.75 -8.25 16.25 -4.25Q8.75 -0.75 3.9 2.45Q4.45 -0.4 5.65 -12.2Q6.85 -23.85 8.05 -29.5Q3.6 -28.1 -0.25 -26.5Q0.05 -29.2 -0.5 -35.45Q0.5 -35.6 4.8 -37.05Q9.75 -38.7 12.95 -39.45Q18.2 -40.7 22.4 -40.7Q23.85 -40.7 25.2 -40.55Q25.05 -35.7 26.1 -33.2" />
</g>
<g id="PathID_30" transform="matrix(0.756572, 0.436807, -0.436807, 0.756572, 118, 39.25)" opacity="1">
</g>
<filter id="filter6" x="-0.521857" y="-0.521857" width="2.26412" height="2.26214" >
<feComponentTransfer in="SourceGraphic">
	<feFuncR type="linear" slope="0"/>
	<feFuncG type="linear" slope="0"/>
	<feFuncB type="linear" slope="0"/>
</feComponentTransfer>
<feGaussianBlur stdDeviation="0.6 0.6" />
<feOffset dx="7.07116" dy="7.07098"/>
<feComponentTransfer result="4">
	<feFuncR type="linear" Ue="0" intercept="0.121569"/>
	<feFuncG type="linear" Ue="0" intercept="0.254902"/>
	<feFuncB type="linear" Ue="0" intercept="0.345098"/>
	<feFuncA type="linear" xh="0" slope="0.300781"/>
</feComponentTransfer>
<feComposite result="5"  in="SourceGraphic" in2="4" operator="over"/>
</filter>
<g style="filter:url(#filter6);">
<g id="PathID_31" transform="matrix(2.93639, 0.0211402, 0, 2.93647, 11.1, 48.05)" opacity="1">
<path style="fill:#0A64A4;fill-opacity:1" d="M55.1 24.6Q48.85 31.7 47.3 35.4Q47.1 36 46.45 36Q45.8 36 45.55 35.4Q43.9 31.3 38.6 25.45Q34 20.4 33.25 16.2Q32.25 10.35 35.75 5.5Q39.25 0.6 45.1 0.05Q51.05 -0.5 55.5 3.55Q59.85 7.55 59.85 13.45Q59.85 19.2 55.1 24.6M53.5 13.45Q53.5 10.5 51.45 8.4Q49.4 6.35 46.45 6.35Q43.5 6.35 41.4 8.4Q39.35 10.5 39.35 13.45Q39.35 16.4 41.4 18.45Q43.5 20.5 46.45 20.5Q49.4 20.5 51.45 18.45Q53.5 16.4 53.5 13.45M55.7 35Q55.7 46.55 47.55 54.75Q39.35 62.9 27.85 62.9Q16.35 62.9 8.15 54.75Q0 46.55 0 35Q0 23.5 8.15 15.3Q16.35 7.15 27.85 7.15L31.4 7.4Q30.7 9.05 30.4 10.75L29.2 10.65L26.05 11.15Q24.7 11.6 24.75 12.4Q24.85 13.55 26.9 14.6L30.35 16.3Q32 17.35 31.45 18.4L30.95 18.95L27.95 21.1Q26.1 22.5 26.6 23.6L27.85 24.5Q28.5 24.85 28.2 26.25Q27.95 27.35 27.3 28.35Q26.45 29.6 25.4 29.65Q24.9 29.7 22.85 27.7Q20.7 25.6 18.25 25.5Q16.55 25.45 15.4 27.35Q14.15 29.35 15.8 30.95Q16.45 31.6 18.55 30.95Q20.35 30.4 20.8 31.65L21.35 35.05Q21.8 37.4 23.4 38.3L28.25 40.6Q31.45 42.55 32 46.05Q32.3 48.05 30 49.4Q26.45 51.45 26.2 51.75Q25.3 52.7 24.8 54L24 55.85Q23.2 56.95 21.85 56.65Q20.4 56.4 20.7 55Q21.1 53.4 20.25 51.55Q19.55 50 20.4 48.55Q21.05 47.45 18.65 46.15Q15.95 44.6 15.8 43.55Q15.7 42.5 17.6 41.15Q19.45 39.85 19.1 38.25Q18.75 36.7 15.5 35.75Q11.4 34.55 9.65 32.8Q8.5 31.65 7.5 29.45Q6.2 26.6 6.25 23.7Q3.45 29 3.45 35Q3.45 45.1 10.6 52.3Q17.75 59.45 27.85 59.45Q32.5 59.45 36.85 57.7Q41 56 44.35 52.95L43.75 52.3Q43.2 51.5 43.55 50.35L44.05 48.5Q44.05 47.85 42.9 47.45Q41.7 47 41.7 46.7Q41.5 45.15 42.5 44.3L44.25 43.1Q45 42.4 44 41.1Q43 39.85 42 39.95Q40.6 40.1 39.1 39.35Q37.15 38.4 37.4 36.6Q37.65 34.65 35.3 33.6Q32.6 32.35 32.4 31.9Q31.65 30.2 32.6 28.4Q33.55 26.6 35.2 26.15L35.25 26.1L36.9 27.95L40.15 31.75Q41.85 34.05 42.85 36.5Q43.3 37.6 44.3 38.25Q45.25 38.9 46.45 38.9Q47.6 38.9 48.6 38.25Q49.55 37.6 50 36.5Q51.4 33.15 55 28.95Q55.7 32 55.7 35" />
</g>
<g id="PathID_32" transform="matrix(2.93639, 0.0211402, 0, 2.93647, 11.1, 48.05)" opacity="1">
</g>
</g>
<g id="PathID_33" transform="matrix(-0.247057, 0.116308, 0.118084, 0.247914, 123.75, 184.55)" opacity="1">
<path style="fill:#0B5FA5;fill-opacity:1" d="M92 2.2L94.15 0Q91.65 5.05 86.85 8.8Q76.55 16.75 63.45 9.2Q56.65 5.25 51.15 5.2Q47.6 5.15 45.8 6.45L46.75 5.1Q48.05 3.55 50 2.65Q56.15 -0.25 66.3 4.15Q76.8 8.7 86.15 5.4Q89.5 4.2 92 2.2M93 44.05L79.6 76.45Q69.75 79.35 64.8 77.45Q62 76.35 61.05 73.75Q58.95 68.2 56.7 66.6Q50.6 62.3 38.2 69.35Q28 75.15 16.15 77.75L0 44.05Q0 42.8 0.75 41.95Q1.5 41.05 2.55 41.05L16.75 41.05L16.75 35.8Q16.75 33.2 18.2 31.35Q19.65 29.5 21.75 29.5L26 29.5L26 25.75Q26 23.9 27.25 22.55Q28.5 21.25 30.3 21.25L40.1 21.25L40.1 12Q40.1 11.35 40.95 11.35L52 11.35Q52.85 11.35 52.85 12L52.85 21.25L64.15 21.25Q65.9 21.25 67.15 22.55Q68.4 23.9 68.4 25.75L68.4 29.5L72.9 29.5Q75 29.5 76.5 31.35Q78 33.2 78 35.8L78 41.05L90.4 41.05Q91.45 41.05 92.25 41.95Q93 42.8 93 44.05M43.25 24.3Q42.7 24.3 42.7 24.85L42.7 25.95Q42.7 26.5 43.25 26.5L45.75 26.5Q46.3 26.5 46.3 25.95L46.3 24.85Q46.3 24.3 45.75 24.3L43.25 24.3M54.95 24.3Q54.4 24.3 54.4 24.85L54.4 25.95Q54.4 26.5 54.95 26.5L57.45 26.5Q58.05 26.5 58.05 25.95L58.05 24.85Q58.05 24.3 57.45 24.3L54.95 24.3M49 24.3Q48.45 24.3 48.45 24.85L48.45 25.95Q48.45 26.5 49 26.5L51.5 26.5Q52.1 26.5 52.1 25.95L52.1 24.85Q52.1 24.3 51.5 24.3L49 24.3M60.7 26.5L63.25 26.5Q63.8 26.5 63.8 25.95L63.8 24.85Q63.8 24.3 63.25 24.3L60.7 24.3Q60.15 24.3 60.15 24.85L60.15 25.95Q60.15 26.5 60.7 26.5M53.9 36.4L54.15 35.75L54.15 34.1L53.9 33.45Q53.65 33.2 53.25 33.2L49.4 33.2Q49.1 33.2 48.8 33.45Q48.55 33.75 48.55 34.1L48.55 35.75Q48.55 36.15 48.8 36.4L49.4 36.65L53.25 36.65L53.9 36.4M57.65 35.75Q57.65 36.1 57.95 36.4L58.5 36.65L62.4 36.65L63 36.4L63.25 35.75L63.25 34.1L63 33.45L62.4 33.2L58.5 33.2Q58.2 33.2 57.95 33.45Q57.65 33.75 57.65 34.1L57.65 35.75M40.5 24.85Q40.5 24.3 39.9 24.3L37.45 24.3Q36.85 24.3 36.85 24.85L36.85 25.95Q36.85 26.5 37.45 26.5L39.9 26.5Q40.5 26.5 40.5 25.95L40.5 24.85M40.6 33.2L39.95 33.45L39.75 34.1L39.75 35.75L39.95 36.4L40.6 36.65L44.4 36.65L45 36.4L45.25 35.75L45.25 34.1L45 33.45Q44.8 33.2 44.4 33.2L40.6 33.2M49.05 46.1Q48.05 45.05 46.7 45.05Q45.3 45.05 44.3 46.1Q43.35 47.1 43.35 48.55Q43.35 50 44.3 51.05Q45.3 52.05 46.7 52.05Q48.05 52.05 49.05 51.05Q50 50 50 48.55Q50 47.1 49.05 46.1M57.4 48.55Q57.4 50 58.4 51.05Q59.4 52.05 60.75 52.05Q62.15 52.05 63.1 51.05Q64.1 50 64.1 48.55Q64.1 47.15 63.1 46.1Q62.15 45.05 60.75 45.05Q59.4 45.05 58.4 46.1Q57.4 47.1 57.4 48.55M72.05 34.1L71.8 33.45Q71.6 33.2 71.25 33.2L67.4 33.2Q67.05 33.2 66.75 33.45L66.55 34.1L66.55 35.75L66.75 36.4L67.4 36.65L71.25 36.65L71.8 36.4L72.05 35.75L72.05 34.1M70.95 48.55Q70.95 50 71.9 51.05Q72.9 52.05 74.3 52.05Q75.7 52.05 76.65 51.05Q77.65 50 77.65 48.55Q77.65 47.15 76.65 46.1Q75.7 45.05 74.3 45.05Q72.9 45.05 71.9 46.1Q70.95 47.1 70.95 48.55M31.75 24.3Q31.2 24.3 31.2 24.85L31.2 25.95Q31.2 26.5 31.75 26.5L34.25 26.5Q34.8 26.5 34.8 25.95L34.8 24.85Q34.8 24.3 34.25 24.3L31.75 24.3M17.05 46.1Q16.05 47.1 16.05 48.55Q16.05 50 17.05 51.05Q18.05 52.05 19.4 52.05Q20.8 52.05 21.75 51.05Q22.7 50 22.7 48.55Q22.7 47.1 21.75 46.1Q20.75 45.05 19.4 45.05Q18.05 45.05 17.05 46.1M31.65 36.65L35.55 36.65L36.1 36.4L36.35 35.75L36.35 34.1L36.1 33.45Q35.85 33.2 35.55 33.2L31.65 33.2Q31.35 33.2 31.05 33.45Q30.8 33.75 30.8 34.1L30.8 35.75Q30.8 36.15 31.05 36.4L31.65 36.65M22.3 33.45L22.1 34.1L22.1 35.75L22.3 36.4L22.95 36.65L26.8 36.65Q27.2 36.65 27.4 36.4L27.65 35.75L27.65 34.1L27.4 33.45Q27.2 33.2 26.8 33.2L22.95 33.2Q22.6 33.2 22.3 33.45M35.45 46.1Q34.45 45.05 33.1 45.05Q31.7 45.05 30.7 46.1Q29.75 47.1 29.75 48.55Q29.75 50 30.7 51.05Q31.7 52.05 33.1 52.05Q34.5 52.05 35.45 51.05Q36.4 50 36.4 48.55Q36.4 47.1 35.45 46.1" />
</g>
<g id="PathID_34" transform="matrix(-0.247057, 0.116308, 0.118084, 0.247914, 123.75, 184.55)" opacity="1">
</g>
<g id="PathID_35" transform="matrix(0.197495, 0.00142184, 0, 0.1975, 52.5, 52.85)" opacity="1">
<path style="fill:#0A64A4;fill-opacity:1" d="M82.75 31.7L83.95 32.1Q85.15 32.55 86.2 33.8L88.95 37.1L91.35 39.75L90.5 39.15Q89.7 38.6 88.65 37.7L86.85 35.95L85.85 34.55L82.75 31.7M82.25 48.1Q83.1 49.05 83.6 50.55L84.3 52.85L85 55.15L85.35 56.1L84.95 55.4L84.1 53.9L83.45 52.65L83 51Q82.75 49.9 81.3 47.1L82.25 48.1M64.6 8L63.1 6.75Q61.95 5.95 59.8 4.9L61.3 5.1Q62.75 5.4 64.1 6.5L68.05 9.6L71.35 12.05L70.25 11.6L67.85 10.4Q66.45 9.7 65.35 8.75L64.6 8M62.95 23.4Q64.1 24.3 65.05 25.9L66.25 28.3L67.65 30.7L68.25 31.75L67.65 31.05L66.35 29.55L65.3 28.25Q64.95 27.85 64.75 27.25L63.85 25.5L61.65 22.5L62.95 23.4M73.9 31.5L72.65 31.95L75.45 31.45L78.65 31.35L81.4 31.5L81.7 31.55L82.25 31.75L83.5 32.55L84.8 34.1L86.2 36L88.35 38.55L89.7 40L88.8 39.35L86.95 37.9L85.4 36.25L84.7 35.1L84.1 34.1L82.85 32.8L83.95 34.85L84.7 36.9L85 37.85L86.1 40.3L85.55 39.55L84.45 38.05Q83.75 37.2 83.6 36.7L82.35 34Q82 33.05 81.15 32.4L81.1 32.4L81.3 33.45Q81.55 34.3 82.15 35.1L83 36.55L83.3 38.05L83.45 39.85L83.5 40.75Q82.55 39 82.15 37.65Q81.75 36.25 81.9 36.4L80.9 34.3L80.3 33.25L79.75 32.8L79.8 33.05L80.55 34.85L81.25 36.45L81.35 38.05L81.35 39.9L81.3 40.85L81.05 39.8L80.5 37.75L80.2 36.2L79.6 34.9L78.75 33.85L77.85 33.15L77.4 32.8L78.7 34.45L79.8 36.25L80.1 37.55L80.1 38.05L80.05 39.6L79.75 38.9L79.15 37.55L78.6 36.55L77.95 35.4L77.1 33.9L76.45 32.85L76 32.55Q75.95 33.15 76.6 34L77.25 35L77.75 36.4L78.05 37.65L78.15 39L78.2 39.65L77.9 38.9L77.25 37.25L76.65 36.05L76.2 34.9L75.6 33.85L74.35 32.95L74.55 33.45Q75.4 34.5 76.25 36.85L76.45 38.5L76.6 39.6L75.8 38.4L74.85 36.9L74.05 35.3L73.25 33.7Q73 33.45 72.65 33.35L72.65 33.4L73.25 34.65L73.8 35.75L74.1 37L74.35 38.4L74.45 39.15L74.25 38.5L73.65 37.25L73.05 36.2Q72.75 35.75 72.55 34.85Q72.3 33.9 71.9 33.45L71.8 33.4L71.1 33.65L70.65 34L71.35 33.6L71.55 34.2L72.15 35.7L72.75 36.55L73.2 37.55L73.2 40L72.8 39.25L71.95 37.75L71.35 36.25L71 35L70.25 34.25L69.95 34.45L70.3 35.35L70.85 36.25L71.55 38.55L72.1 39.9L71.35 38.9L70.15 36.85L69.3 35.8L68.7 35.35L68.5 35.55Q68.35 35.85 68.75 36.2L69.55 36.9Q70.2 37.9 70.5 39.15L70.9 40.5L70 39.2L68.45 37.25L67.45 36.6L67.3 36.6L67.95 37.1L68.9 38.2L69.75 40.25L70 41.25L72.4 41.55L74.55 42.15L76.2 42.85L78.5 44.05Q79.6 44.6 79.65 44.7Q78.5 44.15 77.35 43.85Q78.2 44.15 78.95 44.55L79.25 44.9L79.65 45.2L80.65 46.6L81.75 48.35L82.6 50.45L82.95 52.7L83 54.95L83 56L82.75 54.8L82.25 52.35L81.9 50.35L81.35 49.25L80.9 48.65L81.3 50.65L81.3 51.75L81.05 54.2L80.95 53.35L80.75 51.55L80.45 50.05L79.35 47.1L78.6 45.35L78.55 45.3L78.6 46.3L79.25 48.5L80 50.5L79.85 52.55L79.6 53.85L79 50.3L78.95 50.05L77.7 45.75L77.1 45.1L77.1 45.6L77.7 47.35L78.3 49L78.3 50.45L78.1 52.15L77.95 52.9L77.75 51.95L77.5 49.9L77.3 48.4L76.9 46.95L76.2 45.75L75.4 44.75L75 44.3L76.05 46.2L77 48.2L77.1 49.45L77.1 49.9L76.9 51.3L76.7 50.55L76.25 49.15L75.8 48L75.35 46.8L74.65 45.1L74.1 43.95L73.8 43.6Q73.65 44.05 74.2 45L74.75 46.2L75.15 47.7L75.2 49.5L75.2 50.75L75 49.9L74.5 48.2L74.1 46.95L73.7 45.75L73.35 44.55L72.3 43.3L71.95 42.95L71.8 42.95L72.4 43.8Q73.05 44.95 73.65 47.35L73.7 48.95L73.7 50L73.4 49.35L72.8 48L72.35 46.95L71.75 45.2L71.15 43.5L70.65 43.1L71 44.45L71.35 45.6L71.65 46.8L71.7 48.2L71.75 48.85L71.55 48.2L71.15 46.85L70.7 45.75L70.3 44.3Q70.2 43.4 69.8 42.85L69.4 42.75L69.55 43.25L69.95 44.8L70.4 45.8L70.7 46.9Q70.8 47.55 70.5 49.05L70.2 48.3L69.6 46.65L69.15 45.1L68.9 43.8L68.35 42.85L67.95 42.95L68.3 43.9L68.65 44.9L69.15 47.25L69.45 48.6L68.9 47.45L67.9 45.15L67.2 43.9L66.75 43.3L66.45 43.45L66.55 43.7L67 44.45L67.4 45L68.1 47.35L68.35 48.75L67.95 47.95L67.5 46.95L67.4 47.5L67.25 46.7L67.25 46.6L67.1 46.4L66.35 44.9L66.4 45.35L66.65 45.95L67.3 48L67.6 49.25L66.85 48.35L66.2 47.45L66.15 47.55L65.95 48L65.95 48.1L66.2 48.65L65.8 48.2L65.55 48.55L65.75 48.95L65.45 48.75L65.1 49L65.05 49.05L66.6 50.25L67.9 51.95L69.1 54.05L69.6 55.05L69.2 56.3L69.35 56.45L69.35 57.35L69.3 59.5L69.15 61.15L68.9 62.95L68.8 63.7L68.7 61.75Q68.65 59.75 68.1 57.25L67.6 55.05L67.65 55.6L67.85 57.6L67.85 61.55L67.5 65.2L67.4 66.75L67.25 64.85L67 61.15L67 59.7L66.95 59.25L66.95 57.6L66.55 55.35L66.25 54.05L66.2 54.4L66.15 55.05L65.9 56.55L65.8 57.7L65.6 58.95L65.3 60.3L65.05 61.8L64.7 63.9L64.6 64.85L64.5 63.25L64.5 60.05L64.9 57.25L65.35 55.2L65.8 54.1L65.1 55.2L64.1 57.25L63.45 59L62.4 61.95L61.75 63.55L62.5 57.4L62.95 56.4L64 54.35L64.65 53.5L65.15 53.1Q65.55 52.8 65.55 52.35L65.5 51.85L63.8 53.45Q63 54.3 62.8 54.9L62.15 57.05L61.45 59.75L61.1 61.15L61.3 59.6L61.85 56.4Q62.15 54.7 62.5 54.05Q63.45 52.15 64.3 51.35L64.9 50.85L64.5 50.65Q63.85 50.5 63.35 51.5Q62.75 52.45 62.6 53.35L61.85 55L60.6 56.85L59.95 57.75L60.25 56.85L60.9 54.9L61.45 53.35L62.25 51.5Q62.75 50.35 63.2 50Q63.6 49.7 63.35 49.65L63 49.5L62.4 50.05L62.25 50.3Q61.55 50.9 61 52.15L59.55 54.8L58.75 56.3L58.95 55.35Q59.1 54.35 59.5 53.25Q59.8 52.05 60.25 51.5L61.7 49.25L61.9 48.65L60.8 49.85L60.45 50.3L60.4 50.45L60.15 51.2L60.05 50.9L59.8 51.35L58.75 53L58.1 53.85L58.25 52.15L58.5 51.6L58.75 51.15Q58.9 50.7 59.4 50.15L59.9 49.7L59.8 49.2L59.05 50.1L58.25 51.3L57.35 52.7L56.95 53.35L57.15 52.35Q57.35 51.4 57.7 50.65L57.2 51L56.95 51.3L56.75 51.5L57 51.8L56.75 52.9Q56.5 53.9 56.8 54.8Q57.15 55.6 56.95 55.65L56.75 55.75L55.95 57.55L56 58.2L55.5 59.45L55.05 62.95L53.5 73.25Q52.3 80.1 49.55 91.05Q47.2 100.4 43.35 113L43.1 112.95L42.4 115L40.2 120.1L36.75 126.85Q37.3 123.55 38.05 120.85L39.5 116.25L40.15 114.45L39.9 114.35L39.35 115.85L38.2 119.5L38 119.45L37.35 121.3L36 125.65L35.8 125.6L35.2 127.25L33.9 131.35L30.95 135.15L31.15 135.35L33.7 132.05L32.8 136.05L29.4 140.9L29.3 141.25L32.65 136.65L32.2 139.45L28.85 144.2L28.8 144.35L28.55 144.6L28.6 144.75L28.8 144.6L28.8 144.75L28.85 144.6L32.1 139.95Q31.8 142.95 32.1 145.7L32.3 145.65L30.7 150L28.1 149.1L27.95 149.9L20.55 148.85L22.15 142.7Q23.7 136.65 25.85 126.1Q28.1 115.55 30.1 101.95Q32.2 88.4 33.25 73.15Q34.35 58.35 33.75 43.3L33.7 43.3L33.25 44.05L33.7 42.8L33.7 42.6L34.15 40.65L33.05 41.95L31.55 43.85L30.8 44.75L31.3 43.85L32.3 41.95L33.65 40.2L34.15 39.65L34.15 39.6L33.8 39.85L32.7 41.05L32.05 41.7L30.9 42.45L29.6 43.4L28.9 43.85L29.65 43.1L31.3 41.55L32.85 39.85L33.95 38.95L33.45 37.5L32.45 36.2L32.3 35.3L32.25 35.4L31.95 34.65L31.45 33L30.9 33.2L31.4 32.95L31.2 31.8L31.1 31.9L30.95 32.35L30.8 32.75L30.9 35L30.8 36.55L30.5 35.5L29.85 33.2L29.6 32.35L29.3 31.45L29.05 32.1L29.25 32.85L29.4 34.85Q29.45 35.95 28.9 38.75L28.75 37.55L28.25 35.15L27.8 33L27.15 30.8L26.85 30.25L26.5 29.35L26.1 28.65L26.1 29.55Q26.2 30.5 27.25 33.05Q27.6 34.05 27.6 35.75L27.6 38.9L27.5 40.4L27.25 39.25L26.65 36.65L26.05 33.8Q25.6 31.8 25 30.7L24.35 29.6L23.9 29.65Q23.55 29.75 23.95 30.2L24.5 31.55L24.9 33.7L25.05 35.5L25.2 37.85L25.4 40.7L25.45 42.15L24.95 40.7L24.05 37.75Q23.55 36.15 23.55 35.3L23.5 33.35L23 31.55Q22.6 30.8 22 30.85L21.5 31L22.05 31.95Q22.85 33.35 23.5 36.2L23.75 38.35L23.9 40.4L23.9 41.35L23.5 40.45L22.7 38.35L22.25 36.25L21.8 34.05Q21.35 32.75 20.35 32.4L20.1 33.15Q19.9 33.7 20.35 34.3L20.9 34.95L21.4 36.4L22.05 39.45L22.25 41.1L21.15 45L21.1 44.15L21 42.45L20.95 41.15L20.65 38.7Q20.35 37.65 20.45 36.55Q20.45 35.35 19.8 35.1L19.25 34.85L19.15 35.1L19.2 35.55L19.4 37.25L19.8 39.8Q20.1 41.4 19.8 43.4L18.75 47.25L18.15 48.85L18.1 48L17.9 46.2L17.8 44.55Q17.9 43.65 18.15 42.65L18.6 40.95L18.75 39.2L18.65 37L18.65 36.45L17.45 40.2L16.7 43.2L16.15 45.85L15.4 48.85L15.1 50.3L14.7 47.35Q14.55 46.05 14.75 44.45Q15 42.75 15.8 40L16.3 38.5L16.3 38.2L16.85 36.2Q16.25 37.4 15.85 38.6Q14.95 41.8 14.6 44.05L14.3 46.15L14.3 45.35L14.25 43.1L14.05 41.05Q13.8 39.8 14.05 39L14.25 38.5L14.15 36.05L15.15 34.7L17.35 31.95L19.6 29.75Q20.5 29.15 21.95 28.55L22.45 27.45L23.75 25.35L24.95 24.25L24.6 24.3L24.5 24.4L23.2 25.75L21.85 27.2L21.3 27.85L21.95 26.45L23.35 24.2L24.3 23.45L24.6 23L24.8 22.8L24.55 22.6L23.95 23.05L22.85 24.2L21.15 26.25L20.2 27.4L20.95 26.1L22.2 23.75L22.85 22.75L23.35 21.75L23.25 21.7Q22.65 22.05 22.35 22.55L21.7 23.8L20.7 25.3L19.6 26.85L19 27.65Q19.2 25.95 19.5 25.25L20.2 24.25L20.95 23.35L21.85 21.75L22.2 21.2L22.4 21.25L22.35 21.2L22.2 21.1L21.75 21.2L21.7 21.2Q21.1 21.65 20.7 22.55L19.85 24L19 25.05L18.2 26.35L17.8 27L18.1 26.25L18.6 24.85L19.2 23.6L20 22.5L20.75 21.25L20.1 21.55L18.95 23.15L17.8 24.85L17.05 25.75L16 27L15.45 27.6L15.8 26.55Q16.05 25.55 16.4 24.9Q17.7 22.5 18.75 21.45L19.65 20.7L19.5 20.65L19 21L17.55 21.95L16.8 23.05L16 24.25L15.2 25.5L14.25 27.1L13.7 27.95L13.9 27.3L14.3 25.95L14.75 24.75L15.6 23.35L16.6 22.25L17.45 20.85L17 21.2L16.05 22.15L14.9 23.75L14.05 24.9L13.25 25.95L12.35 27.4L11.9 28.05L12.15 26.55L12.2 26.1L12.8 24.85Q13.2 24.05 14.3 22.9L15.85 21.3L15.4 21.65L14.3 22.4L13.25 23.55L12.35 24.9L11.7 26.45L10.75 28.5L10.3 29.45L10.45 28.65L10.75 26.8Q10.95 25.8 11.25 25.3L12.25 23.75L13.45 21.95L13.65 21.45L12.85 21.95L10.25 26.15L10.1 26.4L8.4 30L8.5 29.3L8.7 27.7Q8.8 26.85 9.05 26.35L10.45 24.4L11.75 22.3L12.2 21.2L12 21.3L10.7 22.95L8.7 25.75L7.9 27.2L7.1 29L6.8 29.95L7.3 27.25L7.7 26.1Q7.95 25.35 8.55 24.3L8.1 24.65Q7.65 24.9 7.2 25.7L6.2 27.65L4.95 30.05L4.3 31.3L4.65 30.2L5.4 27.85Q5.85 26.45 6.45 25.55L7.95 23.55L9.6 22.05Q10.5 21.1 11.05 20.85L11.45 20.7L11.95 20.4Q14.1 19.8 16.15 19.7L16.15 19.55L14.3 19.75L14.25 19.75L11.15 20.25L12.55 19.95L14.3 19.55L14.5 18.95L15.1 17.2L15.75 15.7L16.8 14L17.8 12.75Q18.8 11.85 18.85 11.1L18.35 11.45L17.3 12.65L15.95 14.4L14.9 15.7L13.95 16.95L12.85 18.55L12.35 19.35L12.8 17.35Q12.8 17 12.95 16.75L13.7 15.15Q14.15 14.25 15.45 13L17.45 11.2L16.7 11.6L15.45 12.3L14.3 13.5Q13.6 14.25 13.25 15.1L12.35 17L11.15 19.55L10.6 20.8L10.75 19.6L11.35 17.2Q11.7 15.9 12 15.25L13.25 13.3L14.7 11.1L14.8 10.85Q14.25 11 13.95 11.3L13 12.5L11.3 15.05L11.1 15.65L10 17.65L8.15 20.25L8.5 19.15L9.25 16.8L10.05 15L11.45 13.3L12.85 11.4L13.45 10.1L13.3 10.1Q12.2 10.75 11.55 11.85L9.4 15.1L8.05 16.6L6.35 18.35L5.5 19.2L7.45 16.3L8.1 15.15L9.55 12.65Q10.4 11.3 11.35 10.35L10.75 10.65L9.65 11.6L8.75 12.8L7.55 14.15L5.35 15.95L2.85 17.5L1.7 18.2L2.6 17.4L4.7 15.65L6.8 13.65L8.9 11.5L10.75 9.75Q11.5 9.1 12.4 8.9L14.05 8.75L14.3 8.85L18.35 9.3L18.55 9.15L12.55 8.3L13.95 8.3L16.8 8.45L18.65 8.65L19.15 8.85L19.35 8.7Q20.25 8.2 21.2 8.1L23.3 7.8L25.6 7.4L27.3 7.2L27.15 7L26.65 6.9L25 6.6Q24.4 6.7 23.35 7.15L20.2 7.65L18.1 7.4L16.7 7.15L17.55 6.8L19.4 6.4L21.85 6.3L24.4 6.05L25.8 5.7L25.6 5.65L22.9 5.75L18.75 5.9L16.45 5.95L15.1 6.15L17.65 5.05L18.65 4.7L21.3 4.4L23.3 4.35L23 4.25L21.5 3.95L19.5 3.95L17.35 4.05L15.65 4L14.05 3.9L13.3 3.8L14.6 3.15Q15.95 2.55 17.7 2.5Q20.95 2.65 23.65 3.5L25.45 4.25L26 4.7L26.45 5L27.15 5.95L27.4 5.7L26.65 4.7L27.1 5.2L27.5 5.65L27.8 4.9L29.1 2.85Q29.9 1.7 30.35 1.6L31.75 1.8L32.95 2.2Q33.55 2.5 34 3.3L34.5 4.2L34.8 5L34.65 3.7L35.3 3.9Q35.9 4.05 36.1 4.8L35.9 5.9Q35.7 6.3 35.8 6.7Q36 7.1 36.25 6.7Q36.55 6.35 36.95 6.15Q37.5 6.15 37.95 7.25L38.7 9.15L38.9 10.85L38.9 11.25Q39.3 11.8 39.3 12.5L38.7 14.8L38.5 15.45Q38.6 16.3 38.35 16.8L37.8 17.85L37.85 17.15L37.85 15.55L37.65 14.25L37 13.15L36.45 12.7L36.45 12.95L36.55 13.15L37 14.05Q37.3 14.4 37.65 15.85Q38 17.2 37.5 19.1L37.4 18.45L37.2 17.15L36.9 16.1L36.55 15.35Q36.55 16.65 36.7 17.8Q36.9 19.3 36.55 21.7L36.05 25.45L37.75 22.1Q39.3 19.15 41.45 15.75Q43.6 12.3 46.15 9.05Q46.7 8.4 48.45 7.45Q50.05 6.7 52.1 6.05Q50.8 6.2 49.8 6.6Q46.75 8.05 45.9 8.9L43.8 11.4L41.6 14.85L39.9 17.85L39.2 19.15L39.5 18.35L39.85 17.45L40.15 16.85L41.65 14.05Q42.55 12.35 43.6 10.8Q44.65 9.3 45.6 8.6Q48.3 6.7 50.3 5.95L52.8 5.1L54.8 4.8L57.7 4.55L59.15 4.4Q56.65 4.75 54.7 5.45Q56 5.1 57.35 5L57.6 4.9L59.2 5Q60.15 5.1 60.85 5.55L62.6 7.1L64.65 8.9L66.6 10.55L68.55 11.95L69.45 12.65L68.3 12.1L65.95 10.85L63.8 9.35L62.7 8.25L61.85 7.2Q61.5 6.8 60.8 6.4L60.4 6.25L61.95 8.1Q62.9 9.35 63.2 10.3L63.8 11.25L65.6 13.8L64.75 13.1L63.15 11.65L61.9 10.35L59.95 7.55Q59.35 6.55 58.25 6.1L58.2 6.1Q58.2 6.55 58.55 7.2L59.9 8.85L61.2 10.3L61.85 11.9L62.4 13.95L62.7 14.9Q61.2 13.15 60.45 11.7L59.95 10.4L58.35 8.25L57.45 7.2L56.6 6.9L56.75 7.15L58.05 8.95L59.15 10.65L59.7 12.35L60.05 14.45L60.2 15.55L59.7 14.45L58.65 12.3L57.9 10.6Q57.65 9.9 57 9.25L55.85 8.25L54.6 7.65L54.2 7.45L55.85 8.85L57.45 10.65L58.1 12.05L58.25 12.55L58.5 14.3L58.05 13.65L57.05 12.25L56.2 11.2L55.25 10.1L53.95 8.6L52.95 7.6L52.45 7.35L52.45 7.4Q52.5 8.05 53.35 8.85L54.4 9.9L55.3 11.3L55.85 12.65L56.3 14.15L56.5 14.9L55.95 14.05L54.85 12.35L53.95 11.2L53.15 9.95L52.3 8.9L51.3 8.45L50.6 8.1L51.05 8.65L52.3 9.95L53.65 12.1L54.35 13.85L54.65 15.1L53.55 14L52.1 12.5L51.4 11.5L50.35 10.15L49.6 9.25Q49.3 8.95 48.9 8.9L48.7 8.85L48.85 9.05L49.75 10.35L50.6 11.5L51.25 12.75L51.85 14.4L52.1 15.15L51.7 14.5L50.8 13.15L49.95 12.15L48.95 10.75L47.95 9.35L47.8 9.3L47.4 9.55L47.8 10.15L48.8 11.7L49.6 12.55L50.35 13.55Q50.65 14.3 50.95 16.35L49.7 14.9L48 12.5L47.25 11.2Q47 10.65 46.4 10.45Q46.15 10.65 46.05 10.95L46.7 11.8L47.4 12.75L48.8 15.15L49.6 16.55L48.6 15.5L46.75 13.55Q46.25 12.95 45.5 12.55L44.85 12.25L44.55 12.55L45.05 13.1L46.1 13.75Q46.75 14.3 47.25 15.15L48.1 16.75L48.45 17.45L47.1 16.2L44.9 14.3Q44.15 13.75 43.7 13.8L43.55 13.85L44.4 14.3L45.7 15.3L47.15 17.4L47.8 18.7L46.7 18.05L45.2 17.05Q44.85 16.8 44.55 16.15L43.75 15L43.1 14.45L42.5 15.3L42.4 15.5L42.7 15.75L43.7 16.4L44.65 17.25L45.65 18.45L46.1 19.05L45.45 18.7L44.15 18.1L43.05 17.6L41.85 17L41.55 16.85L41.15 17.5L41.55 17.8L42.9 18Q43.55 18 44.6 18.7L45.7 19.6L43.2 19.2L41.6 19.05Q41.05 19.2 40.15 19.7L39.75 19.85L39.35 20.6L39.9 20.35L41.6 19.6L42.7 19.55L42.55 19.35L42.85 19.55L43.05 19.55L44.65 19.75L45.45 19.8L45.7 19.6L46.05 19.4L48.45 18.9L52.9 19.05Q55.5 19.3 58.35 20.25L58.85 20.6L58.85 20.55L59.35 20.8Q59.95 21.1 60.85 22.1L62.4 23.85Q63.15 24.65 63.9 26L64.75 28.5L65.35 31.05L65.55 32.2L65.05 30.9L63.9 28.25L63 26.15Q62.7 25.3 62.15 25.05L61.55 24.45L62.4 26.55L62.7 27.8L62.9 29L63 28.9Q63.45 29 63.65 30L64.05 31.75L63.9 33.25L63.85 33.65L64 34.7L63.1 36.6L62.8 37.05L62.4 38.3L61.75 39L62.1 37.75L62.3 35.95L61.9 34.9L61.5 34.35L61.45 34.65L61.5 34.85L61.75 35.7L61.95 37.25Q62.05 38.55 61.25 40.05L61.4 38.95L61.25 37.4L61.1 36.85L60.85 38.75L60.05 42.1L59.15 44.75L63.6 39.45Q66.65 36.05 70.4 32.95Q70.9 32.55 72.55 32Q70.85 32.45 70.2 32.8Q68.9 33.6 67.1 35.4L64.05 38.75L62.8 40.25L63.1 39.75L63.4 39.2L64.4 37.95L67.1 34.85Q68.75 33.05 69.95 32.5Q72.6 31.3 74.45 31.05L76.7 30.7L78.5 30.8L80.95 31.05L82.25 31.25L78.65 31.35L76.6 31.25L75.45 31.45L73.9 31.5M52.1 6.05Q53.25 5.65 54.7 5.45Q53.8 5.5 52.9 5.75L52.1 6.05M43.3 20.25L41.15 20.35Q39.95 20.65 38.9 21.55L38.8 21.7L38.5 22.15L37.85 23.45L38.8 22.55Q40.15 21.45 41.15 21.25L43.05 21.5L43.8 20.9L43.4 20.4L43.3 20.25M44.45 20.45L45.25 19.95L44.05 20.25L44.45 20.45M40.75 24.3L40.3 24.7L40.6 25.1L40.8 25.25L40.95 24.45L40.75 24.3M40.85 22.6Q40.6 22.4 40.1 22.8L39.55 23.35L39.65 24.1L39.65 24.25L41 23.05L40.85 22.6M42.9 24.7L43.05 24.85L43.1 23.65L43.1 23.55L42.5 22.9L42.1 23.15L42.1 23.45L42.1 23.85L42.9 24.7M45 24.5L45.25 24.95L45.5 24.9L44.35 23.4L44.25 23.35L44.4 23.85L45 24.5M45.3 22.4L45.05 22.15L44.35 21.55L44.2 21.7L44.4 22.25L44.65 22.5L45.3 22.4M50.1 20L50.85 20.8Q51.95 22.05 53.15 24.6L53.35 25.1L53.6 25.35L53.95 25.75L53.8 25.8L54.2 26.15L54.65 27.05L54.9 26.85L54.4 25.75L54.8 26.4L55.05 26.8L54.35 25.3L53.55 24L52.8 22.7L52.1 21.45L51.25 20.7L50.2 20L50.1 20M48.8 20.45L49.45 21.85L49.9 22.7L50.1 22.75L51 23.35L50.95 23.25L50.1 21.85L49.45 20.8L48.8 20.45M45.65 20.85L45.75 21.05L46.9 21.45L46.1 20.65L45.65 20.85M46.95 20.25L46.5 20.45L47.2 20.25L47.55 20.9L47.95 21.75L48.7 22.05L48.65 21.85Q48.3 20.85 47.8 20.35L47.75 20.25L47.25 20.2L47.2 20.2L46.95 20.25M47.35 22.55L47.2 22.25L47 22.15L46.35 22.1L46.55 22.4L47.2 22.5L47.35 22.55M45.75 23.6L46.4 24.7L46.75 24.65L46.95 24.65L46.3 23.65L45.75 23.6M47.6 24.6L47.65 24.6L48.3 24.65L47.95 23.9L47.2 23.8L47.6 24.6M49.25 23.05L48.95 22.7L48.25 22.4L48.3 22.6L48.5 22.9L49.25 23.05M50.15 24.4L49.5 24.2L49.7 24.7L49.7 24.75L49.95 24.75L50.4 24.85L50.2 24.5L50.15 24.4M50.35 23.55L51.25 23.9L51.05 23.55L50.2 23.15L50.35 23.55M53.85 20.8L55.55 22.7L57 24.7L57.25 24.4L56.7 23.35L55.55 22.1L54.45 21.2L53.85 20.8M52.45 20.25Q52.35 20.8 53.2 21.75L54.05 23L54.85 24.6L55.25 25.8L55.35 26.4L55.45 26.25L56.15 25.5L55.7 24.75L54.85 23.55L53.75 21.75L52.9 20.65L52.45 20.25M58.05 21.05L58.35 22.25L59.55 24.45L60.25 24.85L61 25.95L61.25 26.85L61.3 27.25L61.45 27.5L61.5 26.45L61.3 26.1L59.5 23L58.2 21.2L58.05 21.05M57.9 24L58.1 23.9L58.45 24L57.25 21.85L56.4 21.2L56.55 21.75L57.65 23.6L57.9 24M58.9 25.05L58.5 25.1L58.65 25.35L58.75 25.7L59.35 25.8L58.95 25.05L58.9 25.05M57.7 25.6L57.6 25.15L57.2 25.35L57.35 25.7L57.7 25.6M56.35 25.8L55.75 26.35L56.4 25.95L56.35 25.8M57.25 27.5L57.05 27.1L56.95 27.1L55.55 27.3L55.65 27.8L55.7 27.9L56.2 28.8L56.6 28.3L57.35 27.6L57.25 27.5M57.8 27.1L58.1 26.95L57.6 27L57.65 27.25L57.8 27.1M56 29.1L55.15 27.4L55.1 27.4L54.85 27.45L55.35 28.55L55.75 29.35L56 29.1M56.7 30.5L56.15 29.35L55.9 29.6L56.4 30.85L56.7 30.5M56.8 30.4Q57.45 29.65 58.25 29.2L58.9 29.1L58.75 28.75L58.5 28.1Q58.05 28.15 57.45 28.5Q56.95 28.7 56.35 29.2L56.55 29.65L56.8 30.4M57.15 31.25L57.2 31.35L57.7 30.8L57.15 31.25M59.15 29.1L60.2 29.4L61 29.95L60.9 29.8L60.45 29.15Q59.9 28.3 59.2 28.05L59.1 28.05L59.15 28.9L59.15 29.1M51.85 25.1L50.75 24.6L50.85 24.9L51.85 25.1M51.05 26.15L49.95 26.1L50 26.4L50.1 26.4L51.25 26.55L51.15 26.15L51.05 26.15M53.15 26.75L52.95 26.4L51.2 26.15L51.3 26.55L52.35 26.65L53.15 26.75M51.25 27.4L48.45 27.3L47.4 27.05L47.45 27.3L47.25 27L46.7 26.8L46.1 26.55L46.15 26.8L46.6 27.85L47 27.95L47.35 28.15L47.55 28.05L49.25 27.9L51.15 27.95L53.1 28.05L54.6 28.15L54.45 27.9L54.05 27.7Q53.4 27.4 52.75 27.25L51.25 27.4M51.3 30.85L51.15 30.85L51.6 31.3L51.8 31.3L53.35 31.35L55 31.5L55.75 31.55L55.65 31.15L54.85 30.85L53.1 30.8L51.3 30.85M52.5 29.65L54.2 29.55L55.1 29.45L55.05 29.4L54.9 29.35L53.65 28.95L51.7 28.9L49.7 29L48.6 28.9L48.9 29.1L49.9 29.75L51 29.8L52.5 29.65M54.25 33.7L53.1 33.6L53.3 34.3L54.15 34.25L54.7 34.25Q54.7 34.05 54.85 33.8L54.25 33.7M55.45 32.3L53.8 32.2L52.35 32.2L52.75 32.85L53.85 32.8L55.3 32.8L55.5 32.35L55.45 32.3M51.8 32.2L51.6 32.15L51.65 32.3L51.85 32.75L52.1 32.8L51.85 32.3L51.8 32.2M52.1 33.5L52.45 34.3L52.75 34.3L52.8 34.3L52.5 33.6L52.1 33.5M52.7 35.1L52.9 35.7Q53 35.6 53.2 35.6L53 35.1L52.7 35.1M51.9 35.4L51.2 35.7Q50.8 35.8 50.4 36.15L50.55 36.65L51.5 36.2L52.1 35.8L51.9 35.3L51.9 35.4M51.3 34.05L51.15 33.65Q50.6 33.7 50.3 34.05L50.2 35.1L50.45 34.85L50.65 34.7L50.55 34.65L50.8 34.55L51.3 34.05M52.45 37.05Q52.1 37 51.25 37.45L50.8 37.75L50.8 37.95L51.7 37.45L52.65 37.1L52.45 37.05M55.5 35.3L56.55 35.3L56.7 35.1L56.7 35L56.6 35L55.55 34.75L54.35 34.85L53.5 35L53.65 35.6L54.45 35.4L55.5 35.3M54 36.85L54.85 36.6L56 36.35L56.7 36.25L56.7 35.95L56.15 35.8L55 35.95L53.8 36.25L54 36.85M53.55 36.9L53.4 36.25L53 36.25L53.3 37L53.55 36.9M54.9 34.25L55.7 34.3L56.5 34.3Q56.15 34 55.75 33.85L55.25 33.8L54.9 34.25M58.85 33.9L58.25 34.3L58.35 34.75L58.45 35.3L58.85 34.7Q59.4 34.1 60.05 34.05L60.7 34.05Q60.45 33.45 59.9 33.5L58.85 33.9M60.15 32.4Q59.75 32 59.15 31.75L57.4 31.8L57.65 32.6L57.9 33.25Q58.45 32.6 59.05 32.4L60.15 32.4M57.05 31.3L56.75 31.65L56.8 31.75L56.95 31.65L57.15 31.5L57.05 31.3M57.05 31.95L56.95 32L56.95 32.15L57.5 33.8L57.7 33.5L57.65 33.25L57.25 31.9L57.05 31.95M56.1 32.65L55.95 32.85L56.15 32.85L56.1 32.65M57.9 34.55L57.7 34.65L57.6 36.8L57.8 36.4L57.9 34.7L57.9 34.55M56.7 36.85L56.4 36.8L55.25 37.05L54.15 37.45L54.15 37.55L54.2 37.75L55 37.55L56 37.3L56.7 37.1L56.7 36.85M60 34.85L59.05 35.55L58.9 35.75L58.3 36.55L58.25 37L58.2 37.4L59.4 35.95L60.65 34.95L60 34.85M60.05 36.15Q59.55 36.45 59.1 37.45L58 39.55L57.7 40L57.7 40.05L57.45 41.9L57.25 43L57.05 43.7L57.2 42.4L57.45 40.5L57.35 40.65Q57.25 39.4 57.65 38.4L57.7 37.4L57.5 37.75L57.05 42L56.8 45L56.95 45.85L56.75 47.45L56.55 48.6L56.75 48.5L56.85 48.4L56.95 47.7L57.6 46.85L57.85 46.25L58.35 45.75L58.35 45.6L59.35 42.75L59.8 40.95L59.35 42L58.75 43.6L58.5 44.3L58.5 43.4Q58.5 42.55 58.65 42L59.2 40.45L60.15 38.3L60.25 38.1L60.35 37.7L60.15 37.9L59.5 39.2L58.55 40.95L57.8 42.15Q57.65 40.95 58.2 40L59.15 38.35L60.05 36.7L60.6 35.95L60.6 35.85Q60.45 35.85 60.05 36.15M48.1 25.7L48.3 26.2L49.45 26.35L49.15 25.95L48.1 25.7M47.65 25.6L47.55 25.55L46.75 25.45L47 26.1L48 26.15L48.05 26.15L47.75 25.7L47.65 25.6M45.6 25.25L45.45 25.25L45.95 26.25L46.35 26.15L46.55 26.15L46.1 25.55L46.1 26.15L45.75 25.3L45.6 25.25M45.7 27.2L44.75 26.25L44.65 26.55L44.6 27L44.6 27.05L44.75 27.3L45.4 27.45L46.3 27.7L45.7 27.2M46.8 28.5L49.1 29.8L49.15 29.8L49.3 29.8L49.15 29.65Q48.4 29.1 47.35 28.65L46.8 28.5M43.1 26.2L42.2 25.45L42.05 25.3L42 25.7L42 25.8L42.95 26.4L43.1 26.55L43.1 26.2M41.6 28.5L42.05 28.7L41.65 28.45L41.6 28.5M43.7 30.5Q43.2 30.7 42.65 31.15L42.45 31.55L42.4 31.8L43.4 31.1L43.55 31.05L43.95 30.45L43.7 30.5M40.8 33.65L40.85 33L40.15 34L39.25 35.2L38.85 36.55Q38.7 36.7 38.7 37L38.8 37L39.25 36.8L40.4 36.8L40.4 36.6L38.95 36.55L39.85 36.45L40.4 36.45L40.5 35.85L40.6 35L40.3 35.35L39.7 35.95L40.4 34.3L40.6 33.85L40.8 33.65M42.05 33.85L41.55 35.8L41.25 36.45L41.4 36.45L41.65 36L41.85 35.6L42 34.5L42.4 33.4L42.05 33.7L42.05 33.85M42.55 35.4L42.5 36.45L43.1 36.55L43.35 36L43.8 34.55L44.35 33.6L43.35 34.5L42.65 35.3L42.55 35.4M41.85 36.05L41.55 36.45L41.85 36.45L41.85 36.05M42.95 36.85L42.95 36.8L42.5 36.7L42.5 36.8L42.95 36.85M45.5 36.8L45.4 36.85L45.5 36.9L45.5 36.8M45.4 36.65L45.5 36.45L45.6 35.15L45.65 34.95L45.2 35.3L44.85 36.8L45.3 36.85L45.4 36.65M44.8 37.05L44.75 37.1L45.05 37.2L45.1 37.1L44.8 37.05M48.9 32.4L49.5 31.9L49.3 31.9Q49.05 31.95 48.7 32.15L48.9 32.4M48.1 32.55L47.55 33.15L47.55 33.25L47.85 33.5L48.45 32.85L48.1 32.55M48.8 33.6L48.45 34.05L48.85 34.45L49.15 34.1L48.95 33.5L48.9 33.45L48.8 33.6M47.15 31.7L46.75 31.35L46.95 31.9L47.15 31.7M47.85 31.15L48.1 31L48 31L47.75 31.05L47.85 31.15M46.3 34.3L46.35 34.9L46.4 35.1L46.7 34.7L46.5 34.2L46.3 34.3M46.5 36.6L46.5 36.7L46.9 36.15L47.15 35.8L46.95 35.35L46.55 35.7L46.4 35.8L46.5 36.6M48.25 34.95L48 34.55L48.1 35L48.25 34.95M48.9 36.45L48.7 35.85L48.5 36.05L48.7 36.7L48.9 36.45M49.6 38.55L49.8 38.7L49.75 38.5L49.6 38.55M49.05 38.05L49.1 37.95L49.45 37.65L49.15 37.1L48.9 37.3L48.9 37.45L49.05 38.05M49.25 38.8L49.35 39.2L49.55 39L49.3 38.75L49.25 38.8M50.1 40.2L50.35 40.5L50.4 40.5L50.3 40.05L50.1 40.2M48 38.15L47.95 38.05L47.85 38.1L48 38.15M47.85 37.65L47.8 37.55L47.6 36.9L47.15 37.4L47.85 37.65M46.9 37.65L46.8 37.7L47.6 37.95L47.65 37.9L46.9 37.65M48 39.35L48 39.25L47.85 39.2L48 39.35M46.95 41.35L46.6 41.7L46.7 42.25L47.4 41.35L48 40.85L48.45 40.25L48.3 39.9L47.75 40.4L46.95 41.35M46.7 42.95L46.75 43.6L48.3 41.95L48.8 41.7L48.7 41.35Q48.25 41.55 47.85 41.9L46.7 42.95M49.8 41.05L49.7 40.85L49.6 40.9L49.7 41.15L49.8 41.05M48.95 42.45L47.15 43.8L46.75 44.1L46.8 44.9L47 44.6L48.5 43.05L49.05 42.75L48.95 42.45M49.95 42.95L49.9 43L50 43.7L50.1 43.7L50.4 43.05L49.95 42.95M45.45 37.2L45.2 37.1L45.1 37.2L45.45 37.3L45.45 37.2M44.35 39.25L44.85 38.9L45.45 38.55L45.45 38.4Q45.3 38.4 45.2 38.5L44.4 38.8L44.35 39.25M42.9 38.7L42.3 39.2L42.3 39.6L42.85 39.15L42.9 39.15L42.9 38.7M42.9 39.9L42.25 40.7L42.2 41.25L42.2 41.55L42.25 41.4L43.05 40.5L42.95 39.85L42.9 39.9M44.85 40.75L45.6 40.1L45.5 39.6L44.75 40.4L44.15 40.95L44 41.9Q44.45 41.15 44.85 40.75M42.65 48.15L41.6 48.8Q40.6 49.4 39.9 50.15L39 51.7L38.85 51.95L42.05 49L42.65 48.15M50.55 44.6L50.65 44.3L50.4 44.45L50.1 44.55L50.15 44.75L50.55 44.6M48.7 44.25L47.25 45L46.8 45.3L46.8 45.35L48.2 45.15L48.6 44.75L49.45 44.1L49.3 43.7L48.7 44.25M49.55 44.95L49.55 44.8L49.1 45L49.55 44.95M46.7 45.95Q45.4 46.45 44.55 47.05Q45.7 46.4 46.8 45.95L46.7 45.95M46.5 45.4L46.6 45.4L46.6 45.35L46.5 45.4M50.55 43.45L50.95 43.1L50.8 43.1L50.6 43.3L50.55 43.45M56.6 38.2L56.6 37.9L56.3 37.9L55.3 38.1L54.35 38.35L54.4 38.75L54.8 38.6L55.5 38.4L56.3 38.3L56.6 38.2M56.35 39.45L56.55 38.95L56.3 38.8L55.55 38.95L54.7 39.25L54.45 39.35L54.5 39.65L55.25 39.55L56.1 39.55L56.35 39.45M56.15 39.9L55.35 40.1L54.65 40.4L54.8 40.95L56 40.7L56.5 40.3L56.5 40.1L56.15 39.9M56.55 39.25L56.4 39.45L56.55 39.35L56.55 39.25M56.4 41.7L56.4 41.15L56.15 41.05L55.45 41.3L55.15 41.5L55.45 41.9L55.5 42L56.3 41.7L56.4 41.7M56.35 42.15L56.2 42.1Q56 42.1 55.7 42.35L55.85 42.6L56.15 42.45L56.35 42.4L56.35 42.15M56.2 43.1L56.3 43.1L56.35 42.85L56.2 42.8L56 42.95L56.15 43.2L56.2 43.1M53.65 38.5L53.85 39.05L54.05 38.95L54 38.4L53.65 38.5M53.55 37.95L53.8 37.85L53.75 37.5L53.4 37.5L53.55 37.95M53.8 39.85L53.85 40L53.2 40.25L51.95 40.65L51.5 40.85L51.65 41.1L52.05 41.05L52.65 41.1L53.65 40.7L53.75 40.4L53.85 40.7L54.05 40.7L54.5 40.85L54.4 40.45L54.2 40.45L54.05 39.8L54.25 39.75L53.8 39.85M54.25 39.75L54.2 39.4L53.95 39.4L54.05 39.8M52.1 38.15L51.15 39.2L51 39.35L51.05 40L51.7 39.55L52.8 38.95L53.15 38.75L53.1 38.6L53 38.35L52.9 38.35L53 38.3L52.8 37.75Q52.5 37.75 52.1 38.15M51.15 41.25L51.2 41.15L51.15 41.1L51.15 41.25M50.8 42.25L50.35 42.55L50.8 42.55L50.95 42.45L50.8 42.25M52.7 42.8L52.8 42.85L53 42.35L52.8 42.2L52.75 42.2L52.55 42.35L52.45 42.55L52.55 42.75L52.7 42.8M53.85 42.95L53.65 42.8L53.55 43.3L53.95 43.6L54.35 43.85L54.35 43.7L54.35 43.5L54.2 43.45L54.25 43.4L54.25 43.25L53.85 42.95M55.1 44.05L55.35 45.45L55.55 46.3L55.65 45.55L55.75 44.5L55.7 44.15L55.5 44.05Q55.15 43.9 55.1 44.05M55.05 43.85L55.05 43.9L55.35 43.65L55.45 43.65L55.25 43.45L55.15 43.45L55.05 43.85M53.4 43.85L53.35 44.55L53.35 44.7L53.5 45.2L53.3 44.75L53.3 44.95L53.35 45.15L53.5 45.2L53.6 45.3L53.85 45.45L53.95 45.1L54.15 44.45L53.4 43.85M54.6 46.05L54.85 46.5L54.65 45.55L54.6 46.05M51.95 44.25L51.9 44.05L51.8 44.35L51.95 44.25M52.65 43.85L52.7 43.6L52.65 43.45L52.3 43.4L52.65 43.85M53.1 46.4L53.1 46.45L53.2 46.5L53.1 46.25L53.1 46.4M53.15 47.55L53.2 49.25L53.35 48.15L53.5 47.5L53.3 47.3L53.15 47.15L53.15 47.55M51.65 49L51.8 49.5L51.8 48.8L51.85 48L51.5 47.3L51.05 46.5L51 46.85L51.15 47.35L51.65 49M59.95 45.35L59.6 46.2L59.55 46.5L61.1 45.45L61.1 45.3L60.85 45.45L61.1 45.15L61.2 45.1L61.3 44.55Q61.1 44.45 60.6 44.8L59.95 45.35M60.65 46.85L60.8 46.45L60.35 46.7L60.65 46.85M58.9 48L58.5 49.15L58.75 48.65L59.3 47.75L58.95 47.9L58.9 48M61.75 30.9L61.75 31.3L61.95 31.45L62.6 31.95L63.4 33L63.35 31.75L62.5 30.8Q62.1 30.45 61.75 30.9M62.3 28.45L62.15 28.5Q61.95 28.75 61.95 29.15Q62.05 29.55 62.35 29.3L62.55 29.2L62.3 28.45M61.65 33.4L61.95 33.7Q62.5 34.25 62.75 35.5L62.75 34.85L62.5 33.4L61.7 32.2L61.65 33.4M67.5 38.1Q67.25 37.25 66.8 37.05L66.15 37.65L66.1 37.75L66.35 38.05L67.05 38.8L67.7 39.65L68.35 40.85L68.55 41.15L69.85 41.25L69.3 40.7L68.1 39.6L67.5 38.1M67.7 41.25L68.1 41.15L68.35 41.15L67.7 40.7L66.35 39.65L65.35 38.95L65.1 38.75L64.65 39.2L64.95 39.6L66.1 40Q66.65 40.1 67.45 40.95L67.7 41.25M66.6 41.6L67 41.5L66.2 41.1L64.85 40.7L63.45 40.95L62.95 41.15L62.55 41.7L63.1 41.55L64.65 41.25L65.9 41.4L66.6 41.6M66.55 42.15L65.3 42.75L65.25 42.8L65.6 43L67.4 42.2L66.55 42.15M69.1 42.75L69.35 42.65L69.15 42.65L69.1 42.75M61.55 42.8L60.65 43.9L61.85 43.2Q63.15 42.45 64.05 42.45L64.7 42.6L65.35 42.2L65.8 42L64.2 41.75Q63.1 41.8 62.05 42.4L61.75 42.55L61.55 42.8M63.6 43.7L62.3 44.55L62.25 44.7L62.25 44.75Q62.9 44.35 63.6 44.05L63.6 43.7M64.45 44.55L64.4 44.9L64.95 45.75L65.05 45.85L65.3 44.9L64.9 44.1L64.5 44.3L64.45 44.55M64.05 46.15L64 46.4L64 46.5L64.65 47.25L64.75 47.45L64.85 47.1L64.2 46.25L64.05 46.15M62.35 44.15L62.5 44.05L63.35 43.5L62.9 43.65L62.35 43.95L62.35 44.15M63.15 45L62.7 45.3L62.95 45.65L63 45.75L63.25 45.15L63.15 45M62.55 47.05L62.6 46.8L62.7 46.6L61.9 46.45L61.85 46.85L62.15 46.9L62.55 47.05M62.1 48.1L61.45 47.8L62.05 48.15L62.1 48.1M63.9 47.5L63.75 47.3L63.65 47.5L64.1 47.7L63.9 47.5M63.4 48.15L63.75 48.4L64.6 48.85L64.65 48.3L64.7 48.15L64.45 47.95L63.55 47.95L63.45 48L63.4 48.15M30.9 5.05L29.7 5.5L27.95 6.15L28.45 6.7L29.25 7.6L29.6 6.95L30.6 5.3L30.9 5.05M33.05 4.85L32.9 4.85L34.35 5.55Q33.7 5 33.05 4.85M34.15 6.95Q33.25 6.15 32.5 6.05Q31.8 6.05 30.55 6.95L29.5 8L29.85 8.5L30.3 9.25Q30.8 8.3 31.65 7.6Q32.8 6.95 33.9 7.35Q34.95 7.75 35.15 7.9L35.15 7.85L34.15 6.95M30.8 11.2L31.85 12.9L32.05 12.55L31.95 12.3L31.1 10.8L30.75 11.05L30.8 11.2M36.3 9.25L37.15 9.7L38.35 10.6L37.95 9.3Q37.55 8.7 36.85 8.4Q36.25 8.05 36 8.7L36.05 9.15L36.3 9.25M36.15 10.15L36.35 11.5L36.85 11.85Q37.55 12.3 38.05 13.6L37.95 12.9Q37.75 11.85 37.3 11.3L36.15 10.15M22.85 2.95Q19.15 2.05 17.35 2.2L14.9 2.25L12.95 1L11.75 0L13.65 0.7Q15.35 1.35 17.3 1.4L19.85 1.8L21.95 2.55L22.85 2.95M20.75 9.35L21.1 9.5L22.4 10.1L23.65 9.9L25.25 9.45Q26.2 9.05 27.1 8.85L28.2 8.6L27.9 8.5L26.45 8.3L24.2 8.7L21.95 9.3L20.75 9.35M21.55 10.3L21.75 10.2L21.55 10.15L19.4 9.35L19 9.35L18.65 9.35L21.5 10.35L21.55 10.3M24.9 11.4L26.65 11.1L28.55 10.85L29.45 10.8L29.25 10.4L28.15 10.2L26.25 10.55L24.2 10.95L23.95 11L24.6 11.4L24.9 11.4M23.2 11L22.9 11L23.75 11.5L24.05 11.5L23.2 11M29.05 8.5L29.95 9.8L30.15 9.45L29.3 8.2L29.05 8.5M29.1 7.9L27.8 6.25L27.7 6.25L27.5 6.35L28.25 7.45L28.85 8.3L29.1 7.9M25.8 12.3L26.3 12.9L27.5 12.65L29.05 12.35L29.25 11.7L29.2 11.7L27.35 11.95L25.8 12.3M29.9 12.25L30.15 12.15L30.05 11.95L29.9 12.25M29.95 13.85L30.7 13.75Q30.3 13.4 29.85 13.4L29.3 13.5L29.05 14L29.95 13.85M28.55 14.8L27.6 15.15L28 15.85L28.85 15.5L30.05 15.1L31.15 14.8L31.2 14.6L31.2 14.45L29.9 14.4L28.55 14.8M28.85 13.5L28.15 13.55L26.85 13.75L27.25 14.4L28.2 14.15L28.8 14.05L28.85 13.5M26.65 15.35L27.1 16.15L27.5 16L27.1 15.3L26.65 15.35M26.2 14.6L26.65 14.45L26.2 13.85L25.8 13.85L26.2 14.6M27.4 16.65L27.8 17.45L28.15 17.35L27.8 16.6L27.4 16.65M27.05 17.7L26.9 17.7Q26.45 17.65 25.65 18.35L24.15 19.8L24.05 20L24.35 20.15L24.8 19.55L26.2 18.35L27.1 17.8L27.05 17.7M28.35 18.5Q28.45 18.35 28.65 18.3L28.45 18L28.15 18.05L28.35 18.5M29 18.1L29.85 17.7L31 17.25L31.65 16.85L31.6 16.55L31.3 16.55L30.1 17.05L28.85 17.8L28.9 17.9L29 18.1M28.6 17.15L29.5 16.65L30.75 16.15L31.55 15.9L31.45 15.5L30.8 15.5Q30.35 15.55 29.5 15.95L28.35 16.55L28.6 17.15M24.8 12.45L24.95 12.55L25.25 13.1L25.6 13L25.15 12.45L24.8 12.45M23.35 13.6L23.55 13.2L23.85 13.5L23.9 13.4L23.85 13.35L23.25 12.9L23.1 13Q22.45 13.55 21.95 14.65L20.9 16.3L19.9 17.45L18.95 19.05L18.95 19.1L19.45 19.1L20.05 19.15L20.35 18Q20.75 17.15 21.2 16.75L22.05 15.75L23.2 13.95L23.3 13.8L23.05 13.75L23.35 13.6M24.6 14.25Q23.95 14.45 23.55 15.1L22.8 16.6L21.6 18.45L21 19.3L21.85 19.4L22.35 18.65L23.3 16.8L24.15 15.65L24.4 15.35L24.2 15.35L24.55 15.25L24.95 14.6L24.6 14.25M20.65 14.15L19.5 15.7L18.75 16.85L17.8 17.9L16.8 19.15L17.05 19.1L18.75 19.1L18.8 18.9L19.5 17.05L20.3 15.65L21.2 14.25L22.25 12.75L22.4 12.55L22.2 12.65Q21.8 12.75 21.4 13.1L20.65 14.15M23.45 20.6L23.85 20.9L24.05 20.6L23.7 20.35L23.45 20.6M25.2 21.5L24.95 21.75L25.35 22.1L25.6 21.75L25.25 21.5L25.2 21.5M23 20.05L22.05 19.8L21.95 19.95L22.9 20.2L23 20.05M21.7 19.75L20.75 19.6L20.7 19.7L21.1 19.75L21.6 19.85L21.7 19.75M29.45 19.2L29.85 18.95L30.6 18.65L31.4 18.3L31.85 18.1L31.8 17.7L31.4 17.8L30.35 18.25L29.3 18.85L29.45 19.2M29.2 20.05L29.3 20.4L29.5 20.25L29.45 20L29.2 20.05M29.7 19.85L29.75 20.15L30.6 19.85L31.55 19.7L31.8 19.55L31.95 18.95L31.6 18.9L30.8 19.2L29.9 19.75L29.7 19.85M27.95 19.35L27.8 19.1L27.7 19.1L27.8 19.05L27.4 18.45Q27.1 18.5 26.75 19.05L25.9 20.4L25.6 21.05L25.9 21.4Q26.3 20.85 26.65 20.65L27.75 19.8L28.1 19.55L27.95 19.35M29 19.7L29.2 19.5L29 18.95L28.65 19.05L29 19.7M29.05 21.55L28.8 21L28.45 21.1L27.25 21.9L26.65 22.25L26.85 22.4L27.3 22.3L28 22.25Q28.55 21.75 29.05 21.65L29.05 21.55M29.65 21.1L29.85 21.45L30.1 21.5L29.9 21.1L29.65 21.1M30.35 21.55L31 21.3L31.8 21L32.2 20.55L32.2 20.2L31.75 20.05L30.9 20.45L30.15 21L30.35 21.55M26.1 22.9L26.2 22.8L26.45 22.6L26.25 22.4L26.05 22.55L25.9 22.7L26.1 22.9M25.75 24.4L26.4 24.25L26.4 24.2L26.2 24L25.75 24.4M28.2 24.1L28.4 24.1L28.65 24.2L28.75 23.55L28.4 23.4L28.2 23.65L28.1 23.9L28.2 24.1M29.6 24.5L30.05 24.7L30.55 24.95L30.55 24.75L30.45 24.5L30.35 24.5L30.45 24.45L30.35 24.3L29.75 24.05L29.6 24L29.6 24.5M35.65 13.4Q35.45 13.2 34.95 13.55L33.95 14.5L33.8 14.8L33.35 15.9L33.35 16.35L33.45 16.85Q34 15.45 34.55 14.9L35.3 13.85L35.65 13.55L35.65 13.4M35.7 14.6L35.3 15Q34.8 15.45 34.5 16.65L33.7 19.3L33.5 19.95Q33.5 21.65 33.65 22.05L33.7 23.25L33.55 24.1L33.45 22.7L33.3 20.55L33.25 20.6Q32.9 19.3 33.05 18.1L32.9 16.95L32.7 17.4L33.25 22.3L33.55 25.6L33.95 26.6L34.15 28.45L34.15 29.8L34.3 29.6L34.5 29.4L34.4 28.7L34.85 27.8L35.05 26.95L35.4 26.4L35.6 25.05L35.9 22.6L36.05 20.7L35.8 21.7L35.5 23.6L35.4 24.5L35.2 23.45L35 21.85L35.3 20L35.85 17.35L35.85 16.65L35.7 16.95L35.3 18.55L35 19.85L34.4 21.5L34.1 22.25Q33.7 20.9 34.1 19.75L34.8 17.65L35.45 15.65L35.7 14.9L35.7 14.6M33.55 13.65Q34.1 12.8 34.8 12.65L35.6 12.45Q35.15 11.85 34.5 12.05Q33.8 12.25 33.35 12.75L32.85 13.35L33.05 13.8L33.25 14.45L33.55 13.65M32.5 13.65L32.25 13.85L32.6 16.3L32.8 15.65L32.5 13.8L32.5 13.65M32.05 19.35L32.05 19.2L31.85 19.55L32.05 19.35M32 21.3L31.3 21.75L30.95 22.05L31.35 22.4L31.45 22.55L32.25 22.1L32.4 22.05L32.3 21.4L32 21.3M32.25 22.55L31.8 22.95L32 23.2Q32.1 23.05 32.3 23L32.5 22.95L32.45 22.55L32.25 22.55M31.4 24.45L31.35 24.75L31.4 24.85L31.6 24.6L31.8 24.45L31.55 24.25L31.4 24.45M32.5 23.75L32.6 23.75L32.6 23.35L32.5 23.35L32.25 23.55L32.45 23.8L32.5 23.75M37.8 24.7L37.2 25.45L37 26.45L36.95 26.8L38.5 25.3L38.5 24.2L37.8 24.7M11.9 8.9L8.6 11.2L7 12.65L6.15 13.6L3.6 15.55L1.1 17.05L0 17.65L3.45 14.7L7.5 10.95Q9 9.6 10.4 9.25L11.9 8.9M8.75 22.35L6.45 25.1L5.5 26.65L4.9 27.6L3.85 28.7L2.55 30.05L1.9 30.7L2.55 29.75L4 27.6L5.4 25.35Q6.35 23.9 7.5 23.15L8.75 22.35M17.95 14L17.05 15.45L16.05 16.85L14.8 18.85L14.45 19.55L15.2 19.35L16.25 19.2L16.7 17.8L17.25 16.55Q18.85 13.65 20.1 12.5L20.65 11.8L19.85 12.15L18.85 12.75L17.95 14M19.9 19.5L18.75 19.4L18.6 19.55L18.6 19.4L16.45 19.55L16.4 19.6L17.05 19.55L18.6 19.55L19.9 19.6L19.9 19.5M15.65 35.3Q15.35 36 15 37.25L15 37.45L18 33.35L18.4 32.5L17.3 33.4Q16.3 34.25 15.65 35.3M36.55 29.15L36.5 29.85L36.65 29.4L36.75 29L36.55 29.15M38 29.8L37.2 30.9L37.1 31.3L38.05 30.2L38 29.8M31.85 24.9L31.4 24.9L32.05 26.55L32.5 27.65L32.45 26.55L32.4 25.35L32.2 25.1L31.85 24.9M31.35 27.5L31.8 27.95L31.95 28.15L31.35 26.65L31.35 27.5M30.5 29.3L30.15 29.1L29.95 28.95L30.3 30.3L30.55 31.35L30.5 30L30.5 29.3M35 33L35.4 33.35L35.7 32.95L35.9 31.8L35.4 32.5L35.15 32.8L35 33M39.5 31.05L40.05 29.8L38.85 31L38.8 31.7L39.5 31.05M38.5 31.9L38.6 31.8L38.65 31.75L38.6 31.7L38.5 31.9M37.2 32.4L36.5 32.85L36.45 32.95L36 34.25L35.65 35.1L35.65 33.9L35.65 33.5L35.45 33.7L35.4 34.7Q35.3 35.85 35.9 36.8Q36.45 37.55 36.25 37.7L36.05 37.85L36.05 37.95L36.25 37.9L36 38.1L35.9 38.35L36.9 37.75L38.35 37.05L38.35 36.85L38.35 36.45L38 36.85L38.35 36.05L38.45 34.35L38.5 33.6L37.3 34.95L37.1 35.35L37.1 35.15L36.05 36.05L36.5 35.15L36.95 34.35L36.85 33.4L37 32.75L37.2 32.4M29.6 25.1L29.65 26L29.65 26.1L29.9 26.65L29.65 26.25L29.65 26.6L30.05 26.75L30.35 26.85L30.35 26.4L30.5 25.7L30.3 25.55L29.6 25.1M28.45 24.85L28.1 24.85L28.6 25.45L28.65 25.05L28.45 24.85M27.8 26.15L28 25.95L27.8 25.75L27.8 26.15M26.25 25.15L26.5 24.9L26.4 24.9L26.25 25.15M26.05 24.95L25.4 24.9L25.25 25.1L24.3 26.65L22.85 27.85L22.05 28.5L23.9 27.8L24.75 26.6L25.6 25.7L25.8 25.55L26.05 24.95M25.6 27.1L25.8 27.05L26.45 26.75L26.5 26.75L26.55 26.2L26.25 26.4L25.75 26.85L25.6 27.1M25.45 27.05L24.8 27.45L25.15 27.4L25.4 27.25L25.45 27.05M27.5 29.1L27.75 29.6L28.65 31.3L29 31.95L28.8 31.05L28.75 30.2L28.2 29.45L27.55 28.7L27.5 29.1M39.3 37.5L39.2 37.55L37.75 38.75L35.7 40.7L35.7 40.75L35.8 41.35L37.2 40L38.7 38.4L39.3 37.5M35.65 39.55L35.65 39.65L35.9 39.35L35.65 39.55M67.4 53.85L68.75 55.65L68.55 54.35L67.65 52.9L67 52.15L67.2 52.9L67.4 53.85M41.9 117.65L42.2 117.7L41 120.65L39.25 125.8L41.85 117.85L41.25 119.4L39.35 123.75L36.45 129.8L36.35 130.3Q36.5 128.6 36.7 127.45L36.35 128Q38.8 123.75 40.3 120.5L42.55 115.2L43.1 113.9L41.9 117.65M33.55 110.9L33.45 111.9L32.9 114.45L32.2 120.7L33.3 110.9L32.9 113.05L33.55 110.9M32.9 113.05L31.8 118.4L29.85 125.8L29.65 123.2L32.1 114.55L33.45 108.05L33.9 105.55L33.3 110.9M29.5 114.35Q29.3 116.35 29.25 118.55L29.5 113.9L29.3 113.85L29.6 113.9L29.5 114.35M28.45 121.3L28.4 121.8Q28.25 123.85 28.25 126.1L28.4 121.3L28.2 121.3L28.45 121.3M29.25 118.55L29.3 123.1L28.55 125.4Q28.6 121.5 29 118.5L29.5 114.35M29.65 123.2L29.4 123.85Q29.45 125.15 29.65 126.45L29.3 123.1L29.6 122.45Q29.45 118.7 29.7 115.35L29.65 123.2M32.4 120.75L31.85 123.25L30.9 130.7L32.2 120.7L32.1 120.7L32.4 120.75M32.1 120.7L31.65 123L30.3 128.45L29.9 126.45L31.75 119.8L32.9 114.45M38.05 119.9Q37.1 123.3 36.45 127.35L36.75 126.85L35.4 129.1L35.2 129.85Q36.1 125.8 36.9 123.3L38.05 119.9M39.45 125.85L38.5 127.95L36.45 134.1L39.25 125.8L38.45 127.6L39.45 125.85M38.45 127.6L36.35 132.05L36.35 130.3L39.05 124.95L41 120.65M35.85 126.05L35 129.7L36 125.65L36.05 125.65L35.85 126.05M36.75 126.85L36.7 127.45M35.2 129.85L36.35 128L36.45 127.35M34.75 132.85L35.2 129.85L34.85 130.35L35 129.7L35.4 129.1M34.85 130.35L34.4 133.35L34.75 132.85L33.1 135.5L32.95 136.1Q33.55 133.3 34.15 131.5L33.7 132.05L34.85 130.35M33.7 132.05L33.9 131.35L34.35 130.75L34.15 131.5M30.8 131.1L30.1 136.1L30.9 130.7L30.45 129.05L30.95 131L30.8 131.1M34.35 133.95L34.4 133.35Q34.2 135.05 34.2 136.2L34.5 135.65L32.5 139L32.45 139.55L32.95 136.1L32.65 136.65L34.35 133.95M32.65 136.65L32.8 136.05L33.1 135.5M28.2 121.3L27.9 123.25L27.35 128.2L24.95 133.1L25.15 133.3L27.3 129Q27.15 131.2 27.15 133.75L24.8 139.05L22.05 143.75L22.35 143.95Q25.05 139.7 27.15 134.5L27.3 137.7Q25.6 142.2 23.35 145.95L23.55 146.1Q25.75 142.6 27.35 138.35L27.75 141.25L27.95 140.8L27.55 137.75L28.85 134.1L29.65 137.1L29.75 136.75L29.05 133.55L30.25 129.6L30.1 129.05L30.3 128.45L30.45 129.05L31.85 123.25M35 129.7L34.35 130.75L35.85 126.05M29.9 126.45L29.75 127.1L30.1 129.05L29.65 126.45L28.6 129.7L29.85 125.8L29.9 126.45M28.55 125.4L28.55 126.1L29.4 123.85L28.25 126.85L28.4 130.35L28.25 126.1L27.7 127.45L28.55 125.4M30.1 129.05L29 133L29.05 133.55L28.85 134.1L28.8 133.5L27.55 137.1L27.55 137.75L27.35 138.35L27.3 137.7L27.55 137.1Q27.4 135.45 27.4 133.75L27.15 134.5L27.15 133.75L27.4 133.05L27.4 133.75L28.45 131L28.8 133.5L29 133L28.65 130.35L28.45 131L28.4 130.35L27.4 133.05L27.6 128.3L27.3 129L27.35 128.2L27.7 127.45L28.1 123.95L28.4 121.8M28.4 130.35L28.6 129.7L28.55 126.1M27.7 127.45L27.6 128.3L28.25 126.85M28.6 129.7L28.65 130.35L29.75 127.1M30.45 129.05L30.25 129.6L30.7 131.15L30.8 131.1M28.25 142.5L28.2 142.2L28 142.45L28.1 142.75L28.25 142.5M28.85 144.6L28.8 144.6L28.8 144.45L28.85 144.6M59.9 27.1L59.8 27.1L59.95 27.2L59.9 27.1M59.3 30.45L60.7 31.65L61.1 32.1L61.1 31.95L60.7 31.05L59.9 30.3L58.35 30.15L57.85 30.65Q58.55 30.15 59.3 30.45M50.85 31.25L51 31.25L50.4 30.65L50.15 30.6L50.85 31.25M44.75 27.5L44.45 27.45L44.4 27.6Q45.6 27.9 46.6 28.45L46.8 28.35L44.9 27.6L44.75 27.5M41.35 31.25Q41.55 30.45 41.85 30.05L41.55 30.25L40.55 31.15Q40.25 31.7 40.15 32.4L41.35 31.25M45.05 31.65L44.9 31.45L44.4 32.15L45.05 31.65M41.2 36.65L41.15 36.8L41.85 36.8L41.85 36.65L41.4 36.65L41.35 36.65L41.2 36.65M50.6 32.85L50.65 32.85L50.6 32.8L50.6 32.85M47.35 39.15Q46.95 39.4 46.6 39.8L46.55 40.7L47.4 39.65L47.8 39.2L47.35 39.15M30.35 3.7Q31.65 3.3 32.8 3.7Q33.55 4 34.1 4.55L34 4.35L33.75 3.95L32.85 3.1Q31.75 2.55 31.45 2.7L30.55 2.9Q30.25 2.9 29.3 3.7L28.15 4.9Q29.05 4 30.35 3.7M31.55 9.3Q32.25 8.5 33.1 8.7Q34.3 9.1 35 9.75L35.45 10.15L35.4 9.9L34.85 9.05L33.75 8.5L32 8.6L31.55 9.3M33.3 11L34.4 10.75Q33.9 10.4 33.25 10.2L31.65 10.45L31.3 10.75L31.75 11.5L32.2 12.25Q32.65 11.3 33.3 11M25.9 15.95L25.2 16.5L23.9 17.6L22.35 19.55L23.2 19.75L23.3 19.5L24.55 17.8L25.65 17L26.2 16.3L25.9 15.95M36.45 134.1L36.5 134.4L36.3 134.4L36.45 134.1L36.35 132.6L36.1 133.05L36.1 132.6L34.5 135.65L34.4 136.25L36.1 133.05L36.25 134.5L34.55 139.45L34.4 136.25L34.15 136.65L34.3 139.55L34.55 139.5L32.3 145.5Q32.05 142.7 32.45 139.55L32.1 139.95L32.2 139.45L32.5 139M32.45 139.55L34.15 136.65L34.2 136.2M34.5 135.65L34.6 133.45L34.35 133.95M34.75 132.85L34.6 133.45L36.1 130.8L36.1 132.6L36.15 130.25L36.45 129.8L34.75 132.85M36.35 128L36.15 130.25M36.35 130.3L36.1 130.8M36.1 132.6L36.35 132.05L36.35 132.6L38.5 127.95M50.15 32.3L50 32.35L49.35 32.95L49.45 33.05L49.75 33.45L49.95 33.2L50.1 33.05L49.9 33L50.2 32.95L50.4 32.6L50.15 32.3M30.1 136.1L32.95 129.3Q36.65 120.7 40.75 109.45Q44.8 98.25 48.3 85.45Q51.85 72.65 53.95 59.4L54.9 57.35L54.6 55L54 53.7L54 53.1L53.85 52.4L53.65 50.9L53.75 49.5L53.35 50.25L53.2 50.55L52.9 52.55L52.55 53.85L52.5 52.85L52.3 50.85L52.1 49.2L51.85 49.7L51.85 50.45L51.65 52.15L50.6 55.4L50.6 54.35L50.6 52.2L50.6 50.3L50.45 48.3L50.2 47.75L50.1 46.85L49.9 46.25L49.75 47.05Q49.6 47.9 50.1 50.25L49.95 52.6L49.45 55.25L49.1 56.5L49.05 55.55L48.95 53.2L48.95 50.65Q48.95 48.85 48.6 47.9L48.25 46.8L47.85 46.8Q47.55 46.8 47.8 47.25L48 48.5L48 50.35L47.8 51.95L47.55 53.95L47.2 56.45L47.1 57.7L46.9 56.4L46.55 53.7Q46.4 52.25 46.6 51.5L46.9 49.85L46.75 48.2Q46.55 47.5 46.05 47.5L45.6 47.55L45.9 48.35Q46.35 49.65 46.4 52.2L46.3 54.1L46.05 55.85L45.9 56.65L45.7 55.8L45.4 53.95L45.3 52L45.3 50.05Q45.2 48.85 44.4 48.5L44.05 49Q43.8 49.5 44.05 50.05L44.4 50.7L44.6 52L44.65 54.8L44.55 56.2L42.9 59.3L43.05 58.6L43.2 57.15L43.35 56.05L43.5 53.85Q43.5 52.9 43.75 51.95Q43.95 50.95 43.5 50.65L43.05 50.3L42.9 50.5L42.9 50.95L42.7 52.4L42.65 54.6Q42.65 56.05 42.05 57.7L40.5 60.8L39.7 62.1L39.75 61.35L39.9 59.75L40.15 58.4L40.75 56.85L41.45 55.4L41.85 53.95L42.1 52.05L42.2 51.8L40.55 54.6L39.35 57.05L38.45 59.25L37.35 61.65L36.85 62.85L36.95 60.3Q37.1 59.1 37.55 57.75L39.2 54.15L39.75 53.2L39.9 52.7L40.75 51.05Q40 52 39.45 53.05Q38.15 55.6 37.4 57.4L36.75 59.4L36.95 58.55L37.3 56.65L37.5 54.8Q37.5 53.7 37.8 53.05L38.15 52.65L38.45 50.5L39.5 49.5L41.85 47.55Q43.15 46.5 44.15 46.05L46.4 45.45L46.6 45.2L46.4 44.35L45.9 44.7L46.35 44.1L46.15 43.3L46.1 43.4L45.05 44.15L45.9 43.1L46.1 42.95L45.95 42.4L45.2 43.05L44 44.15Q44.45 42.8 44.85 42.2L45.6 41.5L45.75 41.4L45.65 40.95L45.3 41.25L43.95 42.45L43.95 42.55L43.75 43.4L43.4 45.4L43.2 43.25L43.2 43.2L43.15 41.9L42.1 42.75L41 43.6L41.45 42.75L42.05 41.75L42 41.05L42 40.9L41.15 41.7L40.05 42.95L39.45 43.6L39.95 42.55L40.85 41.05L41.85 39.9L42 39.85L41.9 39.45L41.8 39.6L40.2 40.95L38.85 42.35L37.85 43.3L38.35 42.1L38.5 41.7L39.25 40.7L40.8 39.35L41.9 38.6L41.9 38.5L40.95 38.9L39.85 39.65Q39.2 40.2 38.85 40.7L38 41.9L36.9 43.45L36.3 44.25L36.55 43.5L37.15 42Q37.5 41.25 37.8 40.85L39 39.65L40.15 38.6L40.15 38.2L40.2 38.1Q39.85 38.15 39.7 38.3L36.75 41.4L36.55 41.6L35.5 43.1L35.7 46.4Q36.1 50.25 36.3 58.25Q36.5 66.3 35.9 79.3Q35.4 90.25 33.9 105.35L33.65 105.35L33.25 107.9L31.95 114.1L29.6 122.45M29.3 113.85L29 116Q28.65 118.1 28.4 121.3M29.7 115.35L30.25 109.95L30.55 107.7L30.3 107.7L30.05 109.45L29.5 113.9M68.3 41.55L68.05 41.6L68.25 41.9L67.7 41.75Q67.5 41.75 67.3 41.9L67.85 42.1L68.25 41.9L68.5 41.75L70.5 41.7L68.3 41.55M73.1 42.25Q74.9 42.65 77.35 43.85Q75.95 43.05 74.45 42.55L73.1 42.25Q72.5 41.9 71.9 41.8L70.75 41.7L73.1 42.25" />
</g>
<g id="PathID_36" transform="matrix(0.197495, 0.00142184, 0, 0.1975, 52.5, 52.85)" opacity="1">
</g>
<g id="PathID_37" transform="matrix(0.187236, 0.00134798, 0, 0.18724, 64.4, 46.65)" opacity="1">
<path style="fill:#0A64A4;fill-opacity:1" d="M40.85 18.9L40.15 20.1L40.45 20.8L40.55 20.95L40.9 20.6L41 20.55L41.05 20.5L40.9 19.65L40.85 18.9M40.85 21.45L41.45 22.05L41.2 21.25L41.15 21.05L40.95 21.35L40.85 21.45M40.75 23.85L40.65 24.1L40.9 24.25L40.75 23.85M54.9 29.85L52 30.65Q50.5 31.25 49.65 31.8L48.8 32.3Q50.55 31.45 51.75 31.4L51.85 31.4L52.95 30.75L52.4 31.4L52.35 31.45L52.35 31.5L51.8 32.3L51.25 33.2Q50.8 34.25 50.95 35.3L51.25 34.5L52.2 32.65L53.5 30.75Q54.2 30.05 54.9 29.85M51.5 31.7Q50.95 31.85 50.2 32.5L50.8 32.35L50.4 32.65Q50 33 49.7 33.65Q49.3 34.3 49.4 35.35L49.8 34.4L50.9 32.45Q51.15 32 51.55 31.7L51.5 31.7M43.85 39.95L43.85 39.9L43.8 39.9L43.85 39.95M44.6 40.15L44.3 40.45L44.8 40.95L45.15 40.15L45.25 39.85L44.6 40.15M45.45 42.55L45.65 41.9L45.25 41.8L45.05 42.2L45.45 42.55M44.6 41.6L43.85 41.4L44.55 41.85L44.6 41.6M45.2 43.7L44.35 43.5L45.1 44.1L45.2 43.7M45.2 48.6L45.2 48.65L45.95 49.55L45.95 48.65L45.9 48.6L45.4 48.25L44.85 47.95L44.9 48.3L45.2 48.6M46.25 44.45L45.95 44.9L46.4 45.25L46.6 44.4L46.4 44.25L46.25 44.45M46.75 43.9L46.95 43.3L46.65 43.8L46.75 43.9M48.1 46.75L47.85 47.15L47.85 47.25L48.1 46.75M47.7 47.3L47.15 48.25L47.25 48.5L47.4 48.65L47.55 48.3L47.8 47.6L47.85 47.45L47.75 47.35L47.7 47.3M46.1 46.7L46.15 46.25L45.45 45.95L46.05 46.65L46.1 46.7M40.05 20.8L40 20.4L39.9 20.65L39.7 21.85L39.85 21.7L40.1 21.35L40.05 21.1L40.05 20.8M40.05 23.1L40 23.15L39.95 23.35L40.05 23.55L40.55 23.15L40.35 22.5L40.05 23.1M39.6 28.4L39.5 28.65L39.75 28.5L39.6 28.4M40.1 25.45L39.95 26L40.2 26.05L40.6 25.85L40.2 25.15L40.1 25.45M40.05 27.2L40.7 27.15L40.25 26.9L40.2 26.9L40.05 27.2M36.85 39.2L36.5 39.3L36.9 39.25L36.85 39.2M40.05 40.95L40 40.8L39.9 40.85L39.85 40.95L39.8 41.1Q39.85 41 40.05 40.95M35.65 47.85L35.45 48.7L36.5 47.45L35.9 47.7L35.65 47.85M35.25 50.15L35.2 50.5L36.1 49.4L35.45 49.75L35.3 49.85L35.25 50.15M48.3 50.95L47.95 51.5L47.7 52.1L48.05 52.9L48.2 53.25L47.95 53L47.55 52.5L47.25 53.35L47.95 54.55L48.2 53.3L48.2 53.25L48.35 52.7L48.7 51.4L48.7 51.35L48.9 50.9L48.3 50.95M48.9 50.9L49.85 48.7L49.2 49.5L49.2 49.6L48.8 50.1L48.45 50.7L48.7 51.35M47.15 49.75L47.15 49.7L46.65 49.25L46.5 49.8L46.4 50.05L46.85 50.65L46.95 50.75L47.15 49.75M46.15 51.05L45.85 50.75L45.15 50.3L45.2 50.95L46.6 52.5L46.65 52.55L46.85 52.75L46.85 51.7L46.2 51.1L46.15 51.15L46.15 51.05M36.4 45.5L36.55 45.3L36.55 45.25L36.55 45.15L36.4 45.5M47.2 54L47.2 53.95L47.15 53.9L46.35 53.15L45.4 52.45L45.5 53.15L46.95 55.05L47.05 55.15L47.55 55.95L47.85 56.5L47.85 55.95L47.9 54.85L47.85 54.75L47.85 54.7L47.2 54M26.7 26.8L27.6 27.3L27.8 27.35L29 27.65L29.45 27.85L30.45 28L32.05 28.45L32.85 28.6L30.55 27.1L28.2 25.9L27.15 25.45L29.9 25.95L32.3 26.8L33.2 27.2Q31.75 25.95 29.95 25.15L26.95 23.85L25.65 23.5L27.7 23.7L29.6 24.25L30.45 24.55L27.25 22.6Q25.8 21.85 24.85 21.6L23.9 21.25L25.65 21.25L26.6 21.4L24.8 20.2L23.2 19.35L22.45 19.05L24.35 19.3L26.05 19.85L26.75 20.2Q25.7 19.15 24.45 18.5L22.3 17.5L21.35 17.15L23.65 17.45L24.6 17.85Q24.1 17.25 23.05 16.7L21.15 15.8L20.2 15.35L21.65 15.4L22.35 15.55Q20.8 14.5 19.6 14.1L18.4 13.7L21.55 14.2Q23.25 14.8 24.35 15.45L25.55 16.15L22.15 13.15L19.15 11L17.85 10.15Q19.2 10.25 20.85 11.1Q22.55 11.9 23.8 12.75L25.1 13.65L23.75 12.2L22.25 11L21.55 10.5L23.15 10.9L24.85 11.85L25.7 12.35L25.15 11.45L24.35 10.65L23.95 10.3L25.8 10.6L26.7 11L25.65 9.9L24.5 9.15L23.95 8.9L25.5 9L26.35 9.2L24.95 8.05L24.15 7.65L26.5 8.05Q27.6 8.6 28.35 9.25L29.1 9.9L28 7.65L26.8 5.45L26.2 4.5Q27.25 4.8 28.2 5.85L29.85 7.8L30.5 8.75L30.55 7.35L30.35 5.95L30.2 5.3L31.2 6.45L31.9 7.7L32.1 8.35L32.25 6.7L32.15 5.8Q32.8 6.3 33.15 7.25L33.55 9.15L33.65 10.05L33.9 8.7L34 7.1L34 6.3L34.8 8.3L35.1 10.45L35.15 11.4L35.75 10.05L36.15 8.55L36.35 7.85L36.6 10.2L36.6 12.5L36.55 13.5L37.2 12.15L37.7 10.45L37.9 9.55L37.9 12.1L37.65 14.6L37.5 15.8L38.3 14.35L39 12.4L39.3 11.4L39.05 14.5L38.5 17.3L38.15 18.55L39.2 17.15L40.3 15.3L40.8 14.4L39.85 17.45L38.8 19.8L38.4 20.65L39.6 19.45L40.75 18.55L40.8 18.55L40.75 17.6L40.8 16.75L41.2 18.35L41.2 18.45L41.55 19.2L42.2 20.4Q41.8 18.5 41.9 16.5Q42.05 14.45 42.35 13.05L42.65 11.6L42.55 13.7L42.8 16L43 17.15Q42.85 15.1 43.2 13.15L43.9 9.85L44.35 8.5Q43.95 11.2 44.1 13L44.35 14.85Q44.4 11.65 44.9 9.85Q45.4 8 45.9 7.3L46.5 6.6Q46.05 7.45 45.9 8.7L45.8 10.95L45.85 11.95Q46.05 9.85 46.75 8.2Q47.5 6.5 48.15 5.5L48.9 4.5L48.05 6.5L47.75 8.25L47.65 9.05Q48.1 7.35 49.05 5.95Q49.9 4.55 50.7 3.75L51.5 2.85Q50.5 4.2 50.25 5.4Q49.95 6.55 50 6.65Q50.8 4.9 51.85 3.75L53.65 2.05L54.5 1.5Q53.2 2.7 52.5 4L51.35 6.3L51.05 7.3Q52.3 5.05 53.9 3.4L56.75 0.9L58.05 0Q56.95 0.95 55.8 2.45L53.9 5.15L53.15 6.4L54.25 5.35L54.95 4.9Q53.9 5.95 53.45 6.85L53.05 7.75Q54.25 6.05 55.65 5.1Q57 4.15 57.9 3.8L58.95 3.4L57.7 4.5L56.55 5.85L56.1 6.5Q56.95 5.35 57.95 4.6L59.75 3.45L60.5 3.1Q59.6 3.6 58.8 4.55L57.5 6.35L57 7.2Q58.6 5.1 60.6 3.9Q62.6 2.7 64.1 2.2L65.65 1.75Q63.9 2.4 62.35 3.75Q60.7 5.1 59.4 6.55L57.35 9.15L56.55 10.2Q58.5 8.15 60.55 7.1Q62.65 6 64.2 5.7L65.8 5.35Q64.55 5.7 63.45 6.35Q62.35 7 61.6 7.55L60.85 8.15L62.4 7.55L63.8 7.4L64.45 7.35Q63 7.8 61.45 8.75L58.8 10.55L57.7 11.45Q59.75 10 61.15 9.65L62.6 9.35Q61.55 9.8 60.1 10.7Q58.65 11.65 57.55 12.5L56.4 13.35Q57.25 12.8 58.45 12.45L60.5 11.95L61.45 11.8Q59.9 12.3 58.3 13.35L55.45 15.25L54.25 16.2Q55.45 15.45 56.8 15L59.2 14.3L60.3 14.1Q58.35 14.8 56.85 15.8Q55.3 16.7 54.5 17.5L53.6 18.3Q54.8 17.65 56.55 17.35L59.7 17.05L61.15 17Q59.1 17.35 57.9 18.15Q56.75 18.95 56.25 19.65L55.8 20.35Q57.2 19.5 58.6 19.2L60.9 19.05L61.85 19.1Q59.9 19.6 59.05 20.2L57.95 21.35L57.8 21.85Q59.4 20.85 61.15 20.65L64.05 20.6L65.3 20.85Q63 20.95 61.6 21.45Q60.2 21.9 59.6 22.45L59 22.95Q60.1 22.5 61.35 22.4L63.5 22.4L64.45 22.5L60.45 23.2L59.2 23.75L61.7 23.35L62.55 23.4Q60.45 23.6 59 24.15L57.5 24.75L60.3 24.2L61.55 24.2Q59.2 24.5 57.8 25.15L56.4 25.9L57.95 25.65L59.3 25.55L59.9 25.55L56.5 26.35L55.15 26.95L57.45 26.6L58.6 26.7L55.8 27.4L53.6 28.3L52.85 28.7Q54.65 28 56.1 28.05L57.65 28.2L54.5 28.75Q53.25 29.15 52.6 29.6L52 30L54.45 29.65L55.65 29.65L55.15 29.8L54.5 30.5Q53.85 31.3 53.3 32.45Q52.7 33.55 52.65 34.7L53.1 33.85L54.15 32.05L55.7 30.05Q56.5 29.15 57.5 28.85L56.75 29.7Q56.05 30.5 55.3 31.75Q54.55 32.95 54.4 34.3L54.85 33.4L56.05 31.4L57.85 29.3Q58.9 28.4 60 28.15L59.35 28.65Q58.7 29.15 57.95 30.15Q57.2 31.1 56.85 32.4L57.35 31.65L58.65 30L60.55 28.45Q61.7 27.75 62.9 27.8L62.15 28.3L60.6 29.65L59.15 31.5L60.15 30.45L62.6 28.5Q64.15 27.65 65.8 27.85L64.5 28.25Q63.25 28.75 61.85 30.2L62.8 29.6Q63.8 29 65.4 28.5L68.35 28.35L67.2 28.55L66.15 29.2L67 28.9L68.95 28.55Q70.05 28.5 71.15 29.1L70.4 29.05Q69.65 29.05 68.9 29.7L69.8 29.55L71.65 29.5Q72.7 29.6 73.4 30.25L73.85 30.4Q74.3 30.5 74.7 30.75L75.25 31.55L75.8 31.65L77.05 32.2Q77.7 32.55 78.1 33.3L79.15 33.55Q80.15 33.85 81.55 35.25Q83 36.7 84.4 40L83.6 39L81.75 37.05Q80.65 36 79.5 35.75L80.35 36.65L82 38.8Q82.9 40.1 83.2 41.3L82.25 40.05L79.95 37.55Q78.65 36.25 77.4 35.7L77.9 36.3L79.1 38L80.25 40.6L79.7 39.75L78.25 37.8L76.35 35.8Q75.3 34.9 74.3 34.7L75.1 35.3L76.6 37.1Q77.4 38.25 77.7 39.9L77.1 38.95L75.3 36.7Q74.3 35.75 72.8 35.05L74.4 36.75Q75.15 37.85 75.35 39.5L74.55 38.35Q73.75 37.2 72.35 36Q70.95 34.8 69.05 34.45L69.8 34.9L71.45 36.25Q72.35 37.15 72.7 38.55L71.75 37.5Q70.75 36.5 69.1 35.55Q67.4 34.5 65.3 34.4L66.25 34.75L68.1 35.9Q69.1 36.7 69.6 38L68.75 37.3Q67.9 36.6 66.45 35.95Q65 35.25 63.1 35.15L63.6 35.35L64.8 36.05Q65.45 36.55 65.9 37.45L65.15 36.95Q64.45 36.5 63.35 36.1L60.95 35.85L61.8 36.25L63.75 37.85Q64.95 38.95 66.1 41L65.25 40.25L63.2 38.8Q61.9 38.1 60.45 38.05L61.3 38.5Q62.2 39 62.9 40L62.3 39.8L60.45 39.55L61.8 40.2Q63.05 40.8 64.85 42L68.3 44.8L67.85 44.5L66.45 43.5L64.55 42.75L65.6 43.2Q66.55 43.8 67.5 44.9L66.9 44.65L65.5 44.5L66 44.6L68 45.4Q69 45.9 70.1 46.9Q69.3 46.4 68.15 45.85Q67.1 45.4 66.25 45.3L68 46.1Q69.6 46.85 71.6 49.05L71.95 49.25L72.5 49.75Q72.1 49.35 71.6 49.05L70.65 48.4Q69.9 47.9 69.25 47.85L70.25 48.65L72.3 50.65L74.05 53L73.6 52.55Q73.15 52.15 72.55 51.9L73.7 53.05Q74.75 54.15 76 56L75.4 55.45L74 54.25L72.5 53.2L73.45 54.2L75.35 56.5Q76.4 57.8 76.8 58.95L75.8 57.85L73.55 55.55Q72.2 54.35 71 53.9L72.3 54.95L75.05 57.75Q76.5 59.45 77.2 61.4L76.45 60.45L74.6 58.45Q73.45 57.3 72.1 56.55L73.3 57.6L75.7 60.25Q76.9 61.9 77.1 63.95L76.7 63.2L75.65 61.55L74 60.1L74.75 61L76.2 63.35Q76.9 64.85 77 66.75L76.4 65.45L74.5 62.45Q73.25 60.65 71.25 59.05L72.05 60.4L73.6 63.85Q74.35 66 74.2 68.45L73.9 67.25L73.1 64.85Q72.5 63.55 71.75 62.95L72.1 63.75Q72.45 64.55 72.35 66.1L72.05 65.55L71.25 64.35L70 63.15L70.45 64.05L71.2 66.4Q71.6 67.85 71.6 69.45L71 67.75Q70.4 66.1 69.2 63.9Q68 61.8 66.2 60.05L66.85 61.15L67.95 63.85Q68.45 65.6 68.25 67.75L67.85 66.45Q67.5 65.15 66.4 63.45Q65.25 61.8 63.15 60.6L63.95 61.45L65.55 63.6Q66.4 64.95 66.65 66.55L66.1 65.7L64.55 63.75Q63.6 62.6 62.35 61.85L63.25 62.95L65.25 65.65Q66.3 67.3 66.65 69.05L66.1 68.15L64.65 66.15Q63.7 65.1 62.45 64.3L63.3 65.2Q64.2 66.05 65.2 67.85Q66.05 69.25 66.3 71.15L65.15 69.1Q64.4 67.9 63.15 67L63.9 68.05L65.3 70.85Q66 72.55 65.95 74.65L65.75 73.75L64.9 71.7Q64.35 70.55 63.5 69.85L64.15 71.15L65.1 74.2Q65.45 76 64.9 77.9L64.8 76.9L64.35 74.6Q63.95 73.3 63.1 72.4L63.6 73.8Q64 75.15 64.2 77.25Q64.4 79.4 63.7 81.85L63.65 80.25L63.1 76.4Q62.6 74.05 61.35 71.85L61.6 73.4L61.55 77Q61.35 79.05 60.35 80.55L60.5 79.6L60.7 77.45Q60.75 76.2 60.45 75.25L60.4 76.2L59.45 78.55L59.55 77.5L59.55 75.1L59.25 72.65L59.15 73.7Q59.1 74.65 58.5 75.85L58.55 74.75L58.5 72.45L58.1 70.25L58.1 70.9L58 72.5L57.75 74.3L57.65 73.4L57.3 71.6Q57.1 70.55 56.75 70.1L56.5 71.2Q56.2 72.3 56.3 73.8L55.95 72.75L55.45 70.3Q55.2 68.85 55.4 67.4L54.95 68.4Q54.5 69.35 54.45 71.65L54.15 70.6L53.75 68.15Q53.55 66.65 53.75 65.1L53.2 65.95Q52.75 66.9 52.7 68.8L52.5 67.85L52.2 65.7Q52.1 64.35 52.4 62.9L52 63.2L51.35 64.25Q51 64.9 51 65.85L50.8 64.95L50.6 62.65Q50.55 61.2 51 59.6L50.5 60.4Q50.05 61.15 49.95 62.2L49.85 61.1L49.85 58.65Q49.9 57.25 50.25 56.2L49.7 58.25Q49.2 60.25 49.1 63.05L48.85 61.35Q48.65 59.75 48.85 57.25Q49.05 54.8 50.05 52.3L49.55 53.15L48.55 55.15L48.5 55.25L48.45 55.45L48.45 55.5L48.05 56.45L47.95 56.75L48.5 57.95L48 57.3L47.85 57.15L47.8 57.3L47.8 57.1L46.7 56L45.85 55.4L45.9 56.15L45.9 56.2L46.95 57.6L47.85 59.25L48.35 60.5L47.85 59.85L47.35 59.25L46.65 58.55L46.55 58.5L46.2 58.2L46.35 59.3L47.15 60.7L48.5 64.05L47.8 63.1L46.6 61.7L46.8 62.95L46.8 63L46.95 63.2Q48.1 64.9 48.5 67L48.15 66.35L48.1 66.3L47.7 65.65L47.05 64.95L47.35 67.3L47.6 67.95L48.1 70L48.15 70.35L47.7 69.7L48.6 76.2L49.6 83L50.85 92.2L52.2 102.35L53.55 112L54.55 119.85L55.8 128.45L57.1 137.35L58.1 145.05L58.5 150L53.15 150L52.8 147.5L51.95 140.9L50.8 131.75L49.55 121.3L48.4 111.2L47.55 102.8Q47.2 99.2 47.2 97.55L46.9 92L46.1 83.85L45.75 80.7L45.45 79.6L44.7 77.2L43.55 75.2L43.85 76.1L44.45 79L44.3 83.9L44.1 82.5L43.45 79.45Q43 77.8 42.1 76.8L42.1 78.5L42.2 82.25Q42.3 84.45 42.55 86.35L42.1 85.3L41.2 82.2Q40.75 80.1 40.6 77L40.4 78.05L39.9 80.65L39.7 83.85L39.35 82.6L38.85 79.95Q38.65 78.5 39 77.4L38.55 78.65Q38.1 79.9 37.9 81.65L37.75 80.8Q37.55 80 37.5 78.9Q37.45 77.85 37.8 77L37.2 77.7Q36.65 78.35 36.6 79.15L36.55 77.75Q36.5 76.4 37.2 74.5L36.6 74.85Q36.05 75.2 35.8 76.3L35.75 75.4L35.9 73.2Q36 71.85 36.55 70.35L35.9 71.35Q35.3 72.4 35.05 74.05L35 73.05L35.2 70.6Q35.45 69.2 36.15 67.65L35.75 68.15Q35.35 68.65 34.9 69.55L34.3 71.55L34.4 70.35Q34.45 69.2 34.85 67.5Q35.25 65.85 36.15 64.35L35.65 64.85L34.55 66.45Q33.95 67.5 33.55 69.25L33.7 68.15L34.4 65.35Q34.95 63.65 36.15 61.8L35.55 62.4L34.3 64.1Q33.6 65.2 33.2 66.6L33.35 65.45Q33.6 64.35 34.2 62.8Q34.8 61.25 35.95 59.85L34.95 60.85Q33.95 61.85 33 63.75L33.25 62.8Q33.55 61.9 34.2 60.55L35.9 57.95L34.95 58.65Q34.05 59.35 33.35 60.5L33.8 59.15Q34.2 57.85 35.55 55.95L34.75 56.55Q34 57.15 33.6 57.95L33.85 56.75Q34.15 55.6 35.4 54.25L34.85 54.6L33.9 55.8L34.1 54.55Q34.4 53.45 35.6 51.7L35.15 52Q34.7 52.3 34.2 53.15L34.5 51.9L35 50.9L34.85 50.25L34.55 50.65L34.8 49.9L34.75 49.15L34.95 47L35.1 46.2Q34.55 47.7 34.3 49.3L34 52.25L33.95 53.55Q33.4 52 33.5 50.85L33.7 49.6Q33.1 50.45 32.9 51.8L32.7 54.3L32.7 55.45L32.15 54L32.05 52.6L32.1 52Q31.6 53 31.45 54.3L31.25 56.65L31.25 57.75Q30.95 57.3 30.8 56.5L30.75 54.95L30.75 54.2Q30.3 55.3 30.1 56.75L29.9 59.35L29.9 60.55Q29.5 59.65 29.45 58.5L29.5 56.6L29.6 55.75Q29.2 56.5 28.8 58L28.15 61L27.75 63.65L27.6 64.75Q27.3 63.7 27.3 62.6L27.4 60.8L27.5 60L26.75 61.6L26.15 63.95L25.8 66.15L25.65 67.15Q25.35 66.3 25.3 65.15L25.4 63.1L25.55 62.1Q25.1 62.7 24.75 63.85L24.2 66.3L23.9 68.45L23.8 69.3Q23.5 68.75 23.5 67.7L23.55 65.75L23.65 64.8Q22.95 65.85 22.55 67.4L21.95 70.1L21.8 71.35Q21.6 70.75 21.65 69.7L21.7 67.8L21.8 66.9Q21.3 67.9 20.95 69.55L20.4 72.5L20.15 73.9Q19.9 71.8 20.15 69.55Q20.45 67.3 20.85 65.75L21.25 64.15Q20.4 65 19.45 66.7L17.85 70.3L16.65 73.5L16.2 74.9Q16.4 71.5 17 69.45Q17.6 67.35 18.15 66.45L18.75 65.55Q17.7 66.25 16.8 67.7L15.4 70.4L14.9 71.75Q15.15 69.25 15.95 67.45L17.6 64.55L18.45 63.5Q17.45 64.15 16.6 65.3L15.3 67.4L14.75 68.45Q15.55 65.55 16.65 63.85L18.6 61.35Q18 61.65 17.4 62.2L15.75 64.05L15.05 65Q15.85 63.15 17 61.6L19.15 59.05L20.1 58Q19.1 58.55 18 59.5L16.15 61.15L15.35 61.9Q16.6 59.8 18.2 58.25L21.05 56L22.35 55.2Q20.8 55.7 19.4 56.6L17.05 58.35L16.1 59.15Q16.95 57.95 18.25 56.8L20.85 54.8Q22.15 53.9 23.1 53.35L24 52.85L21.25 54.05Q19.85 54.8 18.8 55.5L17.75 56.2Q19.1 54.7 21.05 53.5Q23 52.35 24.5 51.65L26.1 50.95Q24.6 51.15 22.95 51.85Q21.25 52.6 20.05 53.25Q21.7 51.95 23.35 51.15Q25.55 50.15 26.95 49.7L28.45 49.25Q26.45 49.45 24.6 50.1L21.5 51.35Q23 50.3 24.4 49.6Q26.35 48.75 27.6 48.5L28.85 48.2L25.9 48.45L23.25 49.2L22.15 49.65Q23.55 48.4 25.1 47.8L27.7 47.05L28.8 46.9L26.85 46.75L24.95 47.1L24.05 47.25L25.85 45.95Q26.8 45.45 27.55 45.25L28.35 45.1Q28.7 43.85 29.4 43.25L30 42.75Q28.8 43.5 28.15 44Q29.05 42.05 30.85 41Q32.05 40.4 33.3 39.95L34.8 39.15L35.9 38.65Q34.1 38.95 32.55 39.6Q31 40.3 29.95 40.95L28.95 41.6Q30.65 39.95 32 39.35L33.3 38.8Q31.6 39 30.2 39.65Q28.75 40.3 27.9 40.85L27.05 41.5Q27.9 40.3 29.25 39.6Q30.55 38.85 31.55 38.55L32.6 38.25Q30.6 38.45 28.9 39.15Q27.2 39.9 26.05 40.6L24.95 41.4Q25.65 40.4 26.6 39.75Q27.6 39.1 28.4 38.8L29.2 38.5Q27.25 38.7 25.9 39.3Q24.55 39.95 23.85 40.5L23.1 41.15Q23.5 40.35 24.2 39.8L25.45 38.9L26.05 38.55L23.35 39.35L21.65 40.5L21.05 41.1Q21.25 40.4 21.8 39.8L22.65 38.85L23.15 38.5Q21.45 38.9 20.3 39.65L18.6 41L18.05 41.7Q18.3 40.8 18.9 40.1L19.55 39.35Q18.1 40.1 17.25 41L16.3 42Q16.6 41.1 17.2 40.45L17.8 39.75Q16.8 40.05 15.9 41.05Q14.9 42.05 14.25 42.95L13.6 43.85Q13.85 42.75 14.35 41.9L15.3 40.6L15.8 40.15Q14.7 40.65 14 41.35L12.9 42.6Q13.25 41.25 14.3 40L16.9 37.6L18.2 36.65Q15.7 37.2 13.65 38.5L10.4 40.9L9.15 42.1Q10 40.7 11.15 39.65L13 37.95L13.85 37.35Q12.75 37.75 11.8 38.4L10.2 39.5L9.6 40Q10.85 38.5 12.35 37.45L15.1 35.9L16.35 35.4Q15.3 35.45 14.1 35.95L12.2 36.95Q13.1 36.05 14.2 35.5Q15.7 34.7 16.75 34.35L17.9 34L15.75 34.2Q14.6 34.6 13.65 35.15L12.7 35.8Q14.45 34.1 15.9 33.4L17.4 32.7L15 33.2L12.75 34.2L11.8 34.7L13.35 33.4L14.7 32.5L15.3 32.2L12.55 32.75Q11.25 33.25 10.35 33.8L9.45 34.35Q9.95 33.5 10.65 33.05L11.75 32.45L9.35 33.1Q8 33.7 7.2 34.25L6.3 34.85L7.3 33.7Q7.95 33.2 8.4 33L8.9 32.75Q7.4 33.1 6.1 33.8Q4.85 34.45 4 35Q5.25 33.65 6.65 32.75Q8.4 31.75 9.6 31.2L10.9 30.75Q8.65 30.5 6.15 31.35Q3.65 32.15 1.85 33.05Q0.25 33.8 0.05 34Q2.15 31.9 4.4 30.75Q6.65 29.65 8.25 29.15L9.9 28.75L7.3 29.15L4.9 29.85L8 28.5Q9.85 27.85 10.95 27.75L12.05 27.55L10.25 27.7L8.35 27.85L7.45 27.95Q9.4 27.3 11.05 27.1L13.7 26.85L12.15 26.75L11 26.85L13.95 26.3L14.6 26.25L15.3 26.15L16 26.15L16.6 26.1L16.7 26.1L17.95 26.1L16.1 26L19 25.85L22.3 26.15L23.75 26.4L22.95 26.2L25.15 26.5L26.2 26.95L25.25 26.45Q26.1 26.5 26.7 26.8" />
</g>
<g id="PathID_38" transform="matrix(0.187236, 0.00134798, 0, 0.18724, 64.4, 46.65)" opacity="1">
</g>
<g id="PathID_39" transform="matrix(0.218563, 0.00157351, 0, 0.218568, 18.95, 51.05)" opacity="1">
<path style="fill:#0B5FA5;fill-opacity:1" d="M100 0L100 6.5L97.85 6.5Q97.85 10.9 95.7 17.35L104.4 19.6Q113.05 23.85 119.6 28.25Q121.75 28.25 119.6 30.4Q117.45 30.4 115.2 28.25Q106.55 26.1 108.65 28.25L93.45 21.75L93.45 23.85Q93.45 28.25 91.35 32.65L91.35 39.2Q93.45 41.35 93.45 43.45L93.45 45.6Q95.7 45.6 95.7 43.45Q97.85 41.35 102.15 39.2Q104.4 39.2 106.55 41.35Q110.9 43.45 110.9 47.85Q110.9 50 108.65 54.4Q108.65 56.55 104.4 56.55L97.85 56.55Q95.7 54.4 95.7 50L93.45 50L93.45 58.7Q91.35 69.6 91.35 76.15Q97.85 80.4 117.45 86.95Q130.4 93.5 139.2 95.75Q143.45 97.85 145.7 100L150 100L150 102.15Q150 104.4 147.85 104.4L145.7 104.4Q141.3 108.7 106.55 100Q91.35 97.85 86.95 95.75Q80.4 108.7 73.85 113.1L69.6 117.45L65.2 117.45Q60.9 119.6 56.55 117.45Q52.15 115.2 50 108.7Q47.85 104.4 47.85 102.15L47.85 97.85Q47.85 89.2 50 82.65Q50 80.4 47.85 80.4Q39.2 73.9 21.75 65.2Q15.2 60.9 10.9 58.7Q6.55 56.55 6.55 54.4L4.4 54.4L2.15 52.15Q0 50 0 47.85Q0 45.6 2.15 45.6L4.4 45.6Q6.55 45.6 15.2 50Q23.85 52.15 34.8 56.55Q47.85 63.05 54.4 65.2L56.55 65.2Q58.65 63.05 63.05 56.55Q67.45 50 69.6 45.6Q69.6 43.7 71.4 43.45Q69.25 43.7 65.2 45.6Q63.05 45.6 60.9 43.45Q56.55 41.35 56.55 39.2Q56.55 34.8 58.65 32.65L63.05 28.25Q67.45 28.25 69.6 30.4Q71.75 32.65 71.75 34.8Q73.85 36.95 71.75 36.95L73.85 39.2Q76.1 39.2 76.1 36.95L78.25 36.95Q80.4 34.8 82.65 36.95L89.2 19.6L65.2 13.05L63.05 10.9L65.2 10.9Q65.2 8.65 69.6 10.9Q84.8 15.2 91.35 15.2L95.7 6.5Q93.45 6.5 95.7 4.4L93.45 4.4Q93.45 2.15 95.7 2.15L97.85 0L100 0" />
</g>
<g id="PathID_40" transform="matrix(0.218563, 0.00157351, 0, 0.218568, 18.95, 51.05)" opacity="1">
</g>
<g id="PathID_41" transform="matrix(-0.249496, -0.00179619, 0, 0.249502, 165.7, 70.1)" opacity="1">
<path style="fill:#0B5FA5;fill-opacity:1" d="M124 46.15L121.2 41.85Q118.9 38.7 116.3 35.9Q113.3 32.8 109.85 30.05Q101 23.15 89.6 20Q78.1 17 67.05 18.6Q55.95 20.15 46.4 25.75Q36.85 31.25 30 40.1Q23.1 48.9 19.95 60.35Q16.95 71.75 18.55 82.85Q20.15 93.9 25.7 103.5Q31.25 113.05 40.05 119.9Q48.85 126.85 60.3 129.95Q71.75 132.95 82.85 131.35Q93.9 129.75 103.45 124.2Q113 118.7 119.85 109.85Q122.7 106.25 124.9 102.25L126.1 99.85L127.75 96.2L129 92.65L129.9 89.75L129.9 89.6L130.65 86.6L131.1 84.15L131.35 82.6Q132.4 74.75 131.3 67.1L131.2 66.2L130.55 62.75Q128.9 55.6 125.65 49.2L124.15 46.45L124 46.15M129.3 27.55Q123.65 21.05 116.85 16.2L116.25 15.75L112.25 13.2Q102.65 7.45 91.8 4.85Q80.95 2.2 69.55 3.05Q58.25 3.9 47.15 8.45Q36.1 13.1 27.55 20.6Q18.95 28.15 13.2 37.75Q7.45 47.3 4.85 58.15Q2.2 69.05 3.05 80.35Q3.9 91.75 8.45 102.85Q13.1 113.9 20.65 122.4Q28.15 131 37.75 136.75Q47.3 142.5 58.15 145.1Q69.05 147.75 80.4 146.9Q91.75 146.05 102.85 141.5Q113.9 136.8 122.45 129.3Q130.95 121.8 136.75 112.2Q142.5 102.6 145.15 91.8Q147.75 80.9 146.95 69.55Q146.1 58.2 141.5 47.1Q136.85 36.05 129.3 27.55M112.65 18.55L116.3 21.1Q120.25 24.2 123.85 27.85Q133 37.35 138 49.7Q143 62.05 142.85 76.2Q142.5 90.35 137.05 102.5L134.7 107.3L133.1 110.1Q128.5 117.6 122.1 123.8Q112.6 132.95 100.25 138Q87.9 143 73.75 142.85Q59.65 142.5 47.45 137.05Q35.25 131.55 26.15 122.1Q17 112.6 12 100.2Q6.95 87.9 7.15 73.7Q7.45 59.6 12.95 47.45Q18.4 35.25 27.9 26.15Q37.35 17 49.7 11.95Q62.1 6.95 76.2 7.1Q90.35 7.45 102.5 12.9Q107.9 15.3 112.65 18.55M83.45 39.65L78.7 39.65L72.55 30.65L72.55 39.65L67.85 39.65L67.85 23.3L72.5 23.3L78.7 32.35L78.7 23.3L83.45 23.3L83.45 39.65M117.15 12.85Q126.75 19.4 134.1 28.7Q141.4 38 145.65 49.75Q149.75 61.5 150 73.4Q150.2 85.2 146.85 96.35Q145.25 101.9 142.8 107.1L141.4 109.8Q139.45 113.55 137.05 117.1Q130.55 126.7 121.25 134Q111.95 141.4 100.2 145.65Q88.4 149.75 76.6 150Q64.7 150.2 53.6 146.85Q42.45 143.55 32.85 137.05Q23.2 130.5 15.9 121.25Q8.6 111.95 4.35 100.15Q0.2 88.4 0 76.55Q-0.3 64.7 3.05 53.6Q6.4 42.45 12.9 32.85Q19.4 23.2 28.7 15.85Q38.05 8.55 49.75 4.35Q61.5 0.2 73.4 0Q85.25 -0.3 96.4 3.05Q107.5 6.4 117.15 12.85M117.25 79.35L125.95 79.35L125.95 83.05L112.15 83.05L112.15 66.7L125.65 66.7L125.65 70.2L117.25 70.2L117.25 72.75L125.05 72.75L125.05 76.1L117.25 76.1L117.25 79.35M37.8 66.7L40.1 74.85L40.5 75.3L42.1 66.7L46.9 66.7L43.3 83.05L38.3 83.05L35.45 72.7L32.65 83.05L27.65 83.05L24.05 66.7L28.85 66.7L30.55 75.8L33.05 66.7L37.8 66.7M71.85 71.9Q70.6 73.1 70.55 74.95Q70.6 76.85 71.85 78.05Q73.05 79.3 74.9 79.35Q76.8 79.3 78.05 78.05Q79.25 76.85 79.3 74.95Q79.25 73.1 78.05 71.9Q76.8 70.65 74.9 70.6Q73.05 70.65 71.85 71.9M75.75 109.7Q78.95 109.7 80.55 110.85Q82.15 112.05 82.5 114.55L77.75 114.85Q77.55 113.75 76.9 113.25Q76.35 112.7 75.25 112.75Q74.4 112.7 73.95 113.1Q73.5 113.5 73.5 114Q73.5 114.45 73.85 114.7Q74.25 115.05 75.6 115.35Q78.85 116.05 80.3 116.8Q81.7 117.5 82.4 118.55Q83 119.65 83 120.95Q83.05 122.6 82.15 123.85Q81.25 125.2 79.7 125.9L77.5 126.5L75.95 126.6L75.8 126.6Q71.6 126.55 70.05 125Q68.45 123.35 68.2 120.9L73 120.6Q73.2 121.75 73.65 122.35Q74.45 123.35 75.85 123.35Q76.95 123.35 77.55 122.85Q78.15 122.35 78.15 121.7Q78.1 121.05 77.6 120.5Q77.05 120.1 74.95 119.65Q71.65 118.85 70.3 117.6Q68.85 116.4 68.85 114.5Q68.85 113.2 69.55 112.1Q70.3 111 71.75 110.3Q73.25 109.7 75.75 109.7M100.4 49.5L78.6 78.5L49.55 100.4L71.4 71.4L100.4 49.5" />
</g>
<g id="PathID_42" transform="matrix(-0.249496, -0.00179619, 0, 0.249502, 165.7, 70.1)" opacity="1">
</g>
<g id="PathID_43" transform="matrix(0.144879, 0.0375786, -0.0365346, 0.144619, 37.85, 158.25)" opacity="1">
<path style="fill:#0A64A4;fill-opacity:1" d="M123.55 42.4L123.8 42.75L124.3 43.15L124.45 43.65L124.9 44.05L125.3 44.95L125.55 45.05L125.65 45.55L125.9 45.95L126.1 46.05L123.65 71L123.5 71L130.55 72.9L130.55 75.65L133.85 77.8L133.85 81.95L132.95 81.95L132.75 81.8L130.45 81.8L129.95 81.7L129.2 81.7L128.2 81.4L126.7 81.4L125.65 81.15L124.9 81.15L124.65 81.05L123.55 81.05L123.3 80.95L123.05 80.95L122.65 80.8L122.25 80.8L122.05 80.7L121.65 80.7L121.45 80.5L121.05 80.5L120.8 80.4L120.45 80.4L120.15 80.3L119.8 80.3L119.4 80.15L119.15 80.15L118.8 80.05L118.55 80.05L118.15 79.95L117.9 79.95L117.5 79.8L117.25 79.8L116.9 79.7L116.65 79.5L116.25 79.5L116.05 79.4L115.4 79.4L114.8 79.15L114.25 79.15L113.9 79.05L113.6 79.05L113.4 78.95L113.15 78.95L112.9 78.8L112.5 78.8L112 78.5L111.5 78.5L110.6 78.3L110.25 78.15L109.85 78.05L109.6 78.05L109.15 77.95L108.95 77.95L108.6 77.8L108.1 77.8L107.75 73.5L124.05 75.65L108.85 70.75L108.1 66.85L114.6 68.6L114.4 68.1L114.05 67.5L114.05 67.4L113.9 67L113.6 66.75L113.25 66.1L113 65.35L112.4 64.45L112.25 64L111.5 62.45L111.25 62.1L111 61.45L110.6 60.85L110.4 60.35L109.95 59.7L109.75 59.2L108.5 62.65L104.95 59.85L107.15 53.85L106.4 52.15L105.95 51.6L105.75 50.8L105.2 50.05L100.9 40.65L98.3 56.35L96.55 49.3L93.4 48.1L93.45 48.6L80.4 45.7L80.15 41.15L67.1 38.75L66.75 42.65L60.8 42.3L63.2 38.4L68.6 36.3L76.6 37.3L79.4 25.1L82.9 21.25L76.25 21.25L75.5 18.6L84.05 17.95L80.15 15.15L84.65 0L86.8 1L85.05 13.05L87.45 14.05L89.15 18.95L84.25 26.1L85.25 39.05L92.3 40.75L92.9 45.15L97.3 32.55L97.3 32.5L95.3 27.75L95.1 27L94.7 26.35L94.45 25.45L93.3 22.6L93.1 21.8L91.55 17.7L91.45 17.05L90.55 14.7L90.45 14.05L89.9 12.8L89.55 11.15L89.3 10.7L88.7 8.15L88.25 7.3L88.25 6.95L87.8 5.3L87.65 5.05L86.9 1.65L88.15 5.3L88.15 5.55L88.55 6.4L88.7 6.65L89.3 8.4L89.8 9.4L89.9 9.8L90.15 10.15L90.45 10.8L90.7 11.7L91.45 13.3L91.55 13.8L91.9 14.3L92.45 15.6L93.1 16.7L93.2 17.45L93.55 18.05L93.8 18.8L94.7 20.25L95.3 21.8L95.7 22.45L98.65 28.65L99.1 27.35L99.55 27.35L99.95 27.45L100.75 27.45L100.95 27.6L101.95 27.6L102.35 27.75L103.85 27.75L104.75 28L105.1 28L105.5 28.1L105.85 28.1L106.75 28.35L107.25 28.35L107.6 28.45L107.95 28.65L108.4 28.75L108.85 29L109.15 29L109.6 29.1L109.85 29.25L110.25 29.35L110.6 29.65L111.4 29.85L112 30.25L112.25 30.35L112.6 30.65L113 30.75L113.25 30.9L113.5 31.1L113.9 31.25L115.25 32.25L115.6 32.65L116.15 32.9L116.25 33L116.25 39.05L117.25 39.05L117.65 39.15L118.15 39.15L118.9 39.4L119.4 39.65L120.45 39.9L120.8 40.15L121.45 40.4L122.15 41.15L122.65 41.5L123.55 42.4M122.15 45.55L121.9 45.4L121.65 45.15L121.15 45.05L120.9 44.8L120.55 44.7L120.15 44.4L119.8 44.3L119.4 44.05L119.15 44.05L118.65 43.95L117.9 43.65L116.5 43.65L116.25 43.8L115.9 43.8L115.5 43.95L115.25 43.95L115.25 44.05L111.6 54.05L112.9 56.35L113.25 57.35L113.9 58.35L114.25 59.25L114.9 60.25L115.6 62.1L116.15 62.85L116.8 64L123.3 46.6L123.15 46.3L122.8 46.15L122.65 45.95L122.15 45.55M82.6 2.4L82.4 3L82.05 3.65L81.6 4.15L81.4 4.65L81.15 4.9L80.6 5.65L80.4 6.15L80.05 6.55L77.75 10.05L77.25 10.4L76 12.05L75.5 12.6L75.15 13.15L73.6 15.05L72.95 15.6L68.35 20.8L59.3 29.25L58.3 29.85L57.55 30.65L53.8 33.5L52.8 34.1L42.85 41.3L42 42.05L29.95 49.8L28.95 50.3L27.2 51.6L18.05 57.1L17.25 57.45L14.15 59.35L13.5 59.6L13.05 60L12.5 60.25L12.05 60.6L11.6 60.85L11.15 61L10.85 61.25L9.75 61.85L9.6 62L9.4 62.1L9.4 62.25L2 63.45L2.35 63.25L2.5 63.1L2.85 63L3 62.85L3.35 62.65L4.5 61.85L5 61.6L6.1 60.85L6.6 60.6L8.5 59.35L9.25 59L12.25 57.1L13.25 56.6L15.8 54.8L16.7 54.35L17.5 53.7L23.7 49.95L24.7 49.15L25.7 48.6L26.7 47.8L28.95 46.6L29.95 45.7L34.45 42.95L35.45 42.05L46.5 34.75L47.5 33.9L58.55 26L59.3 25.25L65.85 19.8L66.75 19.25L69.95 16.05L70.75 15.45L74.1 12.05L74.6 11.4L75.15 11.05L75.6 10.4L76.15 10.05L76.5 9.55L77.05 9.05L77.75 8.05L78.25 7.65L78.6 7.15L79.05 6.75L79.4 6.3L79.5 5.9L80.05 5.55L80.15 5.15L80.5 4.9L80.8 4.5L81.15 4.15L81.25 3.9L81.5 3.5L82.05 3L82.4 2.4L82.8 2L83.25 1.4L82.8 2.3L82.6 2.4M112.9 36.1L112.25 35.65L111.85 35.3L111 34.75L110.6 34.4L109.6 33.75L108.95 33.5L108.5 33.1L107.25 32.65L106.85 32.65L106.75 32.5L106.5 32.5L105.85 32.35L105.5 32.35L104.85 32.25L104.5 32.25L104.1 32.35L103.35 32.35L103.1 32.5L102.75 32.5L102.6 32.65L102.2 32.65L102.2 32.75L101.85 35.1L103.5 38.15L103.95 39.3L107.4 45.8L107.85 46.95L108.95 48.9L113.4 36.65L112.9 36.1M85.05 69L83.25 62.75L103.2 71.3L102.85 76.05L102.75 75.95L102.5 75.75L101.85 75.5L101.6 75.3L100.2 74.65L99.95 74.5L99.55 74.5L98.75 74.15L98.45 73.9L98.1 73.9L97.7 73.65L96.55 73.3L96.2 73.05L95.7 72.9L95.3 72.65L94.8 72.5L94.45 72.3L93.45 72L93.1 71.75L92.7 71.65L92.05 71.4L91.55 71.3L91.2 71L90.7 71L90.15 70.9L89.8 70.65L88.55 70.3L88.15 70.1L87.65 70L87.45 69.75L87.05 69.65L86.65 69.65L86.4 69.4L86.15 69.4L85.65 69.1L85.25 69.1L85.15 69L85.05 69M91.2 79.5L90.55 79.3L90.05 79.05L89.3 78.8L89.15 78.65L88.15 78.3L87.9 78.15L87.65 77.95L87.25 77.95L86.65 77.5L85.9 77.3L85.55 77.05L85.15 76.95L84.4 76.5L84.05 76.4L83.65 76.15L83.15 76.05L82.8 75.75L82.4 75.65L81.4 75.15L81.05 75.05L80.5 74.75L80.05 74.65L79.5 74.4L79.15 74.3L78.6 73.9L78.15 73.9L77.75 73.5L77.25 73.4L76.75 73.15L76.25 73.05L75.6 72.75L75.25 72.5L74.6 72.3L74.25 72L73.75 71.9L72.75 71.4L72.2 71.3L71.75 71L71.2 70.9L70.75 70.5L70.2 70.4L69.75 70.1L69.2 70L68.75 69.75L68.2 69.65L67.75 69.3L67.1 69.1L66.75 68.9L66.2 68.75L65.75 68.5L65.2 68.4L64.7 68L62.8 67.4L62.2 67.1L61.8 67L61.45 66.75L60.3 66.35L59.9 66.1L58.9 65.85L58.2 65.5L57.05 65.1L56.7 64.85L55.8 64.65L55.45 64.45L54.55 64.25L53.7 63.85L53.15 63.75L52.8 63.45L51.15 63L50.25 62.65L49.9 62.65L49.5 62.45L48.4 62.1L48.05 62.1L47.8 61.85L46.9 61.6L46.5 61.6L44.75 61L44.5 61L44.05 60.85L43.4 60.85L43 60.6L42.75 60.6L42.5 60.45L41.75 60.45L41.6 60.35L41.25 60.25L40.6 60.25L40.4 60.1L39.75 60.1L39.5 60L38.75 60L38.1 59.85L32.95 59.85L32.55 60L32.35 60L32.2 60.1L31.95 60.1L31.95 60.25L30.65 62.65L31.85 62.65L32.2 62.75L32.55 62.75L32.95 62.85L34.1 62.85L33.9 63.1L35.75 63.1L36.2 63.25L37.5 63.25L37.85 63.35L38.1 63.35L38.5 63.45L39.6 63.45L40 63.75L41.1 63.75L41.5 63.85L42.25 63.85L43.25 64.1L43.6 64.25L44.05 64.25L45.05 64.45L45.4 64.45L46.25 64.75L46.9 64.85L47.25 65L47.8 65.1L49.25 65.5L49.8 65.75L52.4 66.5L52.9 66.75L53.45 66.75L54.05 67.1L57.7 68.65L58.3 68.75L58.8 69L59.3 69.4L59.9 69.65L60.45 69.75L61.55 70.4L62.2 70.65L62.8 71L64.1 71.5L65.75 72.4L66.35 72.65L68.1 73.65L68.75 73.9L69.35 74.3L69.95 74.5L70.6 74.95L71.2 75.15L72.5 75.95L73.25 76.15L73.85 76.5L74.5 76.75L75.75 77.5L77.75 78.4L78.4 78.8L79.75 79.4L80.4 79.8L82.6 80.7L83.25 81.05L91.7 84.45L91.7 79.8L91.55 79.8L91.2 79.5M98.3 96L101.2 96.35L102.2 96.6L106.1 97.1L106.95 97.35L117.4 98.45L118.15 98.65L121.8 98.75L122.65 98.85L123.3 99L124.65 99L125.3 99.1L129.3 99.1L129.85 99.25L133.3 99.25L133.75 99.1L136.3 99.1L129.85 102.75L125.05 102.75L124.8 102.85L118.55 102.85L118.15 102.75L110.15 102.75L109.5 102.65L106.4 102.65L105.75 102.5L102.5 102.5L101.75 102.4L99.1 102.4L98.45 102.25L95.7 102.25L95.1 102.1L93.8 102.1L93.2 102L89.55 102L88.9 101.85L87.25 101.85L86.65 101.75L86.15 101.75L85.65 101.65L81.8 101.65L81.4 101.5L78.6 101.5L79.05 102L79.15 102.25L79.25 102.75L79.4 103.1L80.05 104.1L80.05 104.5L80.25 105.1L80.4 105.4L80.6 105.65L80.8 106L80.8 106.4L81.05 106.65L81.25 107.4L81.4 107.5L81.5 108.05L81.8 108.65L81.9 109.05L82.05 109.4L82.05 109.65L82.25 110.05L82.25 110.3L82.4 110.65L82.4 110.95L82.6 111.3L82.6 111.5L82.8 111.95L82.8 112.15L83.25 113.95L83.4 114.3L83.4 114.7L83.65 115.4L83.65 115.5L83.5 115.5L83.25 115.05L83.05 114.5L82.5 114.05L81.8 113.05L81.4 112.65L81.15 112.3L80.8 111.95L80.05 110.95L79.5 110.4L79.15 109.75L78.75 109.5L78.6 109.15L78.4 109.05L78.15 108.65L77.75 108.4L77.5 108.15L77.25 107.75L77.15 107.5L76.75 107.15L76.5 106.75L76.15 106.5L73.85 104.1L73.5 103.65L73.25 103.4L72.85 102.85L71.95 102.25L71.75 101.85L71.2 101.5L70.85 101L68.35 98.65L67.95 98.1L67.45 97.75L64.85 95.1L64.2 94.7L61.95 92.7L61.55 92.2L60.2 91.1L59.8 90.6L57.15 88.35L56.7 88.05L56.3 87.7L56.05 87.35L54.15 85.7L53.8 85.6L53.45 85.15L52.8 84.7L51.05 83.15L50.7 82.95L50.4 82.7L50.15 82.3L49.9 82.15L49.8 82.05L49.9 82.05L50.05 82.15L50.15 82.15L50.4 82.3L50.7 82.3L51.05 82.4L51.25 82.6L51.5 82.7L52.8 83.05L53.25 83.3L54.25 83.7L55.9 84.05L56.55 84.45L57.3 84.6L60.2 85.6L60.8 85.7L61.7 85.95L62.45 86.35L63.35 86.6L64.1 86.7L69.6 88.35L70.35 88.7L90.9 94.35L92.05 94.45L98.3 96M109.6 86.15L109.25 86.05L109.15 86.05L108.75 85.95L109.4 81.4L120.15 84.05L120.15 87.35L117.65 87.35L117.15 87.15L115.5 87.15L115.25 87.05L115.05 87.05L114.5 86.95L113.4 86.95L113.15 86.8L112.9 86.8L112.4 86.7L111.85 86.7L110.6 86.35L110.25 86.35L109.85 86.15L109.6 86.15M131.3 84.95L131.3 88.35L128.2 88.35L128.3 84.15L131.3 84.95M126.7 84.45L126.7 88.2L122.15 87.8L121.8 83.7L126.7 84.45M143.85 98.25L143.6 98.65L143.5 98.75L142.95 100.25L141.95 102.1L141.85 102.65L141.6 103L141.4 103.5L140.95 103.85L140.85 104.5L140.5 104.85L140.25 105.4L139.95 105.65L139.6 106.5L138.95 107.4L138.85 107.5L138.75 107.9L138.5 108.15L138.35 108.5L138.1 108.75L137.95 109.15L137.75 109.4L137.6 109.65L137.5 110.05L136.95 110.95L136.75 111.15L136.3 111.8L136.1 112.4L135.85 112.65L135.45 113.5L135.4 113.55L150 114.3L149.8 114.5L149.4 114.7L149 115.05L148.6 115.15L148.4 115.3L148 115.5L147.8 115.8L147.4 115.95L147.15 116.3L146.75 116.55L146.4 116.95L146 117.15L145.75 117.45L145.25 117.8L143.95 119.15L143.75 119.6L143.5 119.8L143.15 120.15L142.85 120.7L142.75 121.05L142.5 121.45L142.5 121.8L142.25 122.35L142.25 122.7L142.15 123.05L142.15 123.95L142.25 124.35L142.6 124.95L142.6 125.35L143.25 126L143.5 126.35L144.15 127L145.25 127.7L145.6 128.1L145.9 128.2L146.25 128.45L147 128.85L147.4 129L148.4 129.6L148.9 129.75L149.25 130L149.5 130L149.6 130.1L124.05 135.4L123.9 135.4L123.55 135L123.45 134.85L122.8 134.65L122.55 134.35L122.15 134.25L121.8 134L121.45 133.85L120.9 133.45L120.45 133.45L120.15 133.25L119.8 133.1L119.55 133.1L118.55 132.75L118.15 132.75L117.15 132.25L116.25 132.25L115.9 132.1L115.5 131.85L115.05 131.85L114.05 131.65L113.6 131.65L113.15 131.45L112.6 131.45L112.25 131.35L111.6 131.35L111 131.2L110.6 131.2L109.95 131.1L101.35 131.1L100.55 131.2L99.75 131.2L98.1 131.45L97.1 131.45L84.8 133.45L83.8 133.45L81.8 134L80.8 134.1L77.75 134.75L76.85 134.85L74.85 135.4L73.85 135.5L71.95 136L71.1 136.1L70.2 136.4L69.35 136.5L68.35 136.75L67.45 136.85L66.75 137.1L63.45 137.75L62.8 138L61.95 138.1L61.45 138.3L60.7 138.4L60.2 138.65L58.3 139L57.45 139.3L56.9 139.3L56.15 139.5L55.9 139.65L55.25 139.65L55.15 139.75L54.9 139.85L32.55 129.85L38.4 129.35L38.4 129.2L44.85 129.2L46.25 129L48.9 129L49.9 128.85L58.45 128.6L59.55 128.45L86.55 127L87.8 126.7L91.55 126.6L92.8 126.35L94.1 126.35L95.3 126.1L103.2 125.35L104.2 125.1L107.25 124.7L108.1 124.45L110.75 124.1L111.6 123.8L112.5 123.7L113.25 123.45L115.6 123.05L116.4 122.8L117.15 122.7L117.8 122.45L119.65 122.05L120.15 121.8L120.8 121.7L121.45 121.45L123.05 121.05L123.45 120.8L124.9 120.45L125.3 120.15L126.45 119.8L126.7 119.6L127.2 119.45L127.3 119.35L127.9 119.05L128.3 118.95L128.55 118.8L128.8 118.7L129.2 118.45L129.55 118.3L129.95 118.05L130.2 117.95L130.45 117.8L130.55 117.55L130.95 117.45L133.65 114.2L139.75 89.95L144.6 96L144.6 96.1L144.5 96.35L144.5 96.6L144.25 96.85L144.25 97.35L144.15 97.45L143.95 97.75L143.85 98L143.85 98.25M38.75 89.7L39 89.6L39.1 89.35L39.5 89.1L40.4 88.8L40.75 88.8L41.6 89.2L41.85 89.45L42.25 89.6L42.5 89.8L42.75 90.2L43 90.45L43.6 91.2L43.75 91.45L44.25 92L44.5 92.2L44.6 92.7L44.75 92.8L47.25 87.95L50.15 88.6L49.2 94.25L49.4 94.1L49.6 93.85L50.05 93.6L51.05 92.8L51.4 92.7L51.9 92.2L52.15 92.1L52.8 91.6L53.25 91.35L53.7 91.2L54.05 90.8L54.25 90.8L54.7 90.6L54.9 90.6L55.05 90.7L55.05 90.8L54.7 91.6L54.55 91.8L54.45 92.1L54.05 92.7L53.8 93L53.7 93.2L53.45 93.6L53.15 93.85L53.05 94.35L52.8 94.6L52.7 95L52.15 95.75L51.9 96L51.5 96.6L51.05 97.1L50.8 97.75L50.15 98.65L50.05 98.75L50.05 98.85L45.6 100.65L44.5 97.65L42.75 99.1L38.75 89.8L38.75 89.7M25.7 113.95L24.8 113.95L24.05 114.15L23.8 114.3L23.45 114.3L22.7 114.5L22.45 114.5L22.05 114.7L21.7 114.95L20.9 115.15L20.55 115.3L19.8 115.5L19.55 115.7L19.15 115.8L18.9 115.95L18.25 116.55L18.05 116.95L18.25 117.55L18.8 118.05L19.15 118.15L19.4 118.3L20.45 118.7L20.9 118.8L21.45 119.05L21.8 119.15L22.15 119.15L22.55 119.45L24.05 119.8L24.45 119.8L24.8 119.95L25.35 120.05L25.7 120.05L25.9 120.15L26.7 120.45L27.2 120.45L27.45 120.6L27.7 120.7L27.8 120.7L29.55 128.35L10.5 126.8L10.15 126.7L10.05 126.6L10.05 126.2L10.25 126.1L10.6 125.8L11.05 125.7L11.25 125.6L11.6 125.6L11.75 125.45L12.65 125.2L13.25 124.95L13.65 124.7L14.05 124.7L14.25 124.45L14.65 124.35L15.65 123.95L15.9 123.7L16.05 123.45L16.25 123.45L16.7 122.6L16.5 122.05L16.05 121.6L15.8 121.15L15.5 121.05L14.9 120.45L14.4 120.15L14.05 119.8L13.65 119.6L13.25 119.15L12.75 119.05L12.4 118.7L10.75 117.55L10.4 117.15L9.6 116.7L9.4 116.3L8.85 115.95L8.4 115.4L8.4 114.7L8.75 114.3L8.85 114.15L9.5 113.95L10.05 113.95L10.15 113.8L10.5 113.7L12.25 113.7L12.65 113.5L22.45 113.5L22.8 113.7L24.7 113.7L25.05 113.8L25.55 113.8L25.7 113.95M10.6 70L30.35 72.75L30.35 74.3L30.45 74.95L30.45 75.75L30.55 76.5L30.55 77.4L30.95 80.7L30.95 81.4L31.2 82.3L31.2 83.15L31.35 84.05L31.35 84.95L31.75 86.7L32.2 91.2L32.45 92.1L32.55 94L32.85 95L32.95 96.75L33.35 98.65L35.85 116.8L35.85 117.7L36.2 120.15L36.2 121.05L36.5 122.8L36.5 124.35L36.75 126L36.75 126.7L36.85 127.45L36.85 128.35L32.55 128L32.55 127.2L32.45 127L32.45 126.35L32.35 125.7L32.2 125.35L32.2 125.1L32.1 124.7L32.1 124.45L31.95 124.2L31.95 123.95L31.85 123.45L31.85 123.2L31.75 122.8L31.55 122.45L31.55 122.2L31.35 121.8L31.35 121.45L31.2 121.05L31.2 120.7L30.95 120.15L30.85 119.8L30.85 119.15L30.55 118.8L30.35 117.95L30.1 117.45L27.1 109.65L26.7 109.15L26.45 108.4L25.55 106.5L24.8 105.3L24.55 104.5L20.45 97.25L19.25 95.75L18.05 93.45L15.4 89.6L15.05 88.95L14.4 88.2L14.05 87.45L13.4 86.7L13.05 85.95L12.4 85.15L12.05 84.45L11.4 83.7L11.05 83.05L7.25 77.5L6.2 76.4L5.85 75.75L4.6 74.15L4.2 73.5L2.6 71.3L2.2 70.9L2 70.4L1.75 70L1.45 69.75L1 69.1L0.75 68.9L0.55 68.65L0.35 68.1L0.1 68L0 67.75L0 67.65L0.75 67.1L1.1 67L1.35 66.75L1.75 66.65L2 66.35L2.5 66.25L2.85 66L3.35 65.75L3.85 65.65L5.6 64.75L6 64.65L6.2 64.45L6.5 64.45L6.85 64.25L7.1 64.25L7.85 64L8.1 63.85L8.5 63.85L8.85 63.75L9.25 63.75L9.5 63.45L9.85 63.45L10.15 63.25L10.6 63.25L11.05 63.1L11.4 63.1L11.75 63L12.15 63L12.4 62.85L13.65 62.85L14.4 62.65L16.9 62.65L17.25 62.45L25.9 62.45L26.35 62.65L27.15 62.65L30.2 57.35L33.35 57.35L33.55 57.45L35.1 57.45L35.45 57.6L36.15 57.6L39.6 50.45L39.6 47.8L48.5 46.8L49.5 42.95L73.1 45.4L95.55 52.45L95.55 57.35L103.6 62L103.95 67.85L103.85 67.85L103.6 67.75L103.35 67.5L102.95 67.4L102.5 67L101.85 66.75L101.1 66.35L100.75 66.1L100.3 66L96.85 64.25L96.3 63.85L95.7 63.75L95.1 63.35L94.45 63.1L93.9 62.75L93.2 62.45L92.7 62.1L90.55 61.25L89.9 60.85L71.5 53.8L70.75 53.7L69.2 53.2L65.55 52.45L64.85 52.15L64.1 52.05L63.45 52.05L62.7 51.8L61.95 51.8L59.9 51.45L59.3 51.45L57.9 51.15L57.3 51.15L56.7 51.05L55.45 51.05L54.25 50.8L43.4 50.8L42.75 51.05L41.6 51.05L40.4 58L41.1 58L41.6 58.1L42 58.25L42.4 58.25L42.85 58.35L43.15 58.35L44.6 55.7L48.05 55.7L47.45 59L47.9 59L48.4 59.25L48.9 59.25L49.4 59.35L49.8 59.35L50.25 59.6L50.8 59.6L51.25 59.85L51.7 59.85L52.15 60L52.7 60L52.9 60.15L54.45 56.35L56.9 56.7L56.9 61.35L57.9 61.6L58.7 62.1L59.2 62.1L59.9 62.45L61.3 62.85L62.2 63.25L62.55 63.35L62.75 63.45L63.45 60.25L66.45 60.85L66.85 65.2L66.95 65.25L67.35 65.35L67.75 65.65L68.2 65.75L68.6 66L69.1 66.1L69.5 66.35L69.95 66.5L70.85 67L71.2 67.1L71.75 67.4L72.2 67.5L72.6 67.75L72.95 67.85L73.3 68L73.6 64.25L77.4 65.5L77.9 70L80.15 70.9L80.6 71L81.15 71.3L81.6 71.4L82.8 71.9L83.25 72L84.25 72.5L84.9 72.65L85.25 72.9L85.9 73.05L86.4 73.3L86.9 73.4L88.15 73.9L88.7 74.05L89.15 74.3L89.8 74.4L90.3 74.65L90.8 74.75L92.45 75.4L92.9 75.5L94.95 76.3L95.45 76.4L95.95 76.65L96.45 76.75L96.95 76.95L97.3 77.15L99.55 77.8L99.95 77.95L100.75 78.15L101.1 78.4L101.45 78.5L101.85 78.5L102.2 78.8L102.5 78.8L102.85 79.05L103.1 79.05L103.35 79.15L103.6 79.15L103.85 79.3L104.75 79.5L104.85 79.7L105.2 79.8L105.4 79.8L105.85 88.1L107.25 88.35L107.95 88.6L111.75 89.2L112.6 89.2L114.8 89.6L115.5 89.6L116.9 89.8L117.5 89.8L118.4 89.95L119.55 89.95L120.9 90.2L122.65 90.2L123.3 90.35L124.3 90.35L124.9 90.45L127.7 90.45L128.2 90.6L132.2 90.6L132.55 84.7L139.5 89.7L139.4 89.7L138.95 89.8L138.6 89.95L138.35 90.2L137.95 90.35L137.5 90.45L137.2 90.6L136.95 90.6L136.75 90.7L136.3 90.8L136.1 91.1L135.75 91.1L134.2 91.6L133.85 91.6L133.45 91.8L132.1 92.2L131.55 92.45L131.1 92.45L130.85 92.6L130.55 92.7L130.2 92.7L129.95 92.8L129.45 92.8L129.2 93L128.95 93.1L128.55 93.1L128.3 93.2L127.55 93.2L127.3 93.35L126.9 93.45L126.3 93.45L125.9 93.6L125.2 93.6L124.8 93.7L122.65 93.7L122.15 93.85L120.25 93.85L119.8 93.7L118.05 93.7L117.5 93.6L116.9 93.6L116.25 93.45L115.6 93.45L114.4 93.2L113.6 93.2L111.6 92.8L110.75 92.8L110.15 92.7L109.4 92.45L103.5 91.2L102.6 91.1L93.2 88.6L92.2 88.2L86.25 86.6L85.05 86.05L74.85 82.95L49.6 74.15L48.6 73.65L43 71.75L42.25 71.4L41.4 71.3L38.75 70.1L38.1 70L37.5 69.65L36.95 69.65L36.5 69.4L35.1 68.9L34.85 68.75L34.6 68.65L34.45 68.65L33.65 63.45L29.55 68.65L27.55 68.65L27.35 68.75L25.35 68.75L24.9 68.9L23.8 68.9L23.3 69L21.45 69L20.9 69.1L17.5 69.1L17.05 69.3L16.05 69.3L15.65 69.4L14.4 69.4L13.65 69.65L12.15 69.65L11.6 69.75L11.25 69.75L10.6 70" />
</g>
<g id="PathID_44" transform="matrix(0.144879, 0.0375786, -0.0365346, 0.144619, 37.85, 158.25)" opacity="1">
</g>
<g id="PathID_45" transform="matrix(-0.0477586, 0.177911, -0.178461, -0.0489688, 189.75, 162.8)" opacity="1">
<path style="fill:#0A64A4;fill-opacity:1" d="M146.95 17L146.95 55.45Q146.95 61.6 142.95 66.3Q139.15 70.95 133.15 72.1Q133.05 67.05 129.4 63.5Q125.8 59.95 120.8 59.95Q115.6 59.95 112 63.65Q108.35 67.2 108.35 72.4L66.45 72.4Q66.45 67.2 62.8 63.65Q59.2 59.95 54 59.95Q48.9 59.95 45.3 63.55Q41.75 67.15 41.65 72.2Q37.25 71.65 33.9 69.1L1.95 69.1Q1.15 69.1 0.55 68.5Q0 67.8 0 66.9Q0 65.95 0.55 65.35Q1.15 64.65 1.95 64.65L29.6 64.65Q26.9 60.55 26.9 55.45L26.9 17Q26.9 9.9 31.9 5Q36.85 0 43.85 0L130 0Q137 0 141.95 5Q146.95 9.9 146.95 17M124.35 9.65Q121.65 12.45 121.65 16.3L121.65 29.85Q121.65 33.75 124.35 36.45Q127.15 39.15 131 39.15Q134.85 39.15 137.55 36.45Q140.3 33.7 140.3 29.85L140.3 16.3Q140.3 12.45 137.55 9.65Q134.85 6.95 131 6.95Q127.15 6.95 124.35 9.65M108.35 11.7Q103.65 6.95 96.95 6.95L76.9 6.95Q70.2 6.95 65.5 11.7Q60.75 16.35 60.75 23.05Q60.75 29.7 65.5 34.45Q70.2 39.15 76.9 39.15L96.95 39.15Q103.65 39.15 108.35 34.45Q113.1 29.7 113.1 23.05Q113.1 16.35 108.35 11.7M118.15 69.75Q117 70.8 117 72.4Q117 73.9 118.15 75.05Q119.2 76.1 120.8 76.1Q122.3 76.1 123.45 75.05Q124.5 73.9 124.5 72.4Q124.5 70.8 123.45 69.75Q122.3 68.6 120.8 68.6Q119.2 68.6 118.15 69.75M114.6 66.2Q117.1 63.65 120.8 63.65Q124.35 63.65 126.95 66.2Q129.5 68.75 129.5 72.4Q129.5 76 126.95 78.55Q124.35 81.1 120.8 81.1Q117.1 81.1 114.6 78.55Q112 76 112 72.4Q112 68.75 114.6 66.2M43.6 6.95Q39.75 6.95 37 9.65Q34.3 12.45 34.3 16.3L34.3 29.85Q34.3 33.75 37 36.45Q39.75 39.15 43.6 39.15Q47.45 39.15 50.15 36.45Q52.95 33.7 52.95 29.85L52.95 16.3Q52.95 12.45 50.15 9.65Q47.45 6.95 43.6 6.95M47.9 66.2Q50.45 63.65 54 63.65Q57.7 63.65 60.2 66.2Q62.8 68.75 62.8 72.4Q62.8 76 60.2 78.55Q57.7 81.1 54 81.1Q50.45 81.1 47.9 78.55Q45.3 76 45.3 72.4Q45.3 68.75 47.9 66.2M54 68.6Q52.5 68.6 51.45 69.75Q50.3 70.8 50.3 72.4Q50.3 73.9 51.45 75.05Q52.5 76.1 54 76.1Q55.6 76.1 56.65 75.05Q57.8 73.9 57.8 72.4Q57.8 70.8 56.65 69.75Q55.6 68.6 54 68.6" />
</g>
<g id="PathID_46" transform="matrix(-0.0477586, 0.177911, -0.178461, -0.0489688, 189.75, 162.8)" opacity="1">
</g>
<g id="PathID_47" transform="matrix(0.112316, 0.0862237, -0.0845384, 0.11237, 104.75, 149.9)" opacity="1">
<path style="fill:#0B5FA5;fill-opacity:1" d="M112.4 76.7L112.4 81.55L107.75 81.55L107.75 122.7L81.85 122.7L81.85 76.7L112.4 76.7M103.15 96.45L103.15 81.55L86.45 81.55L86.45 96.45L103.15 96.45M73.45 12.3Q73.45 16.95 70.2 20.45Q75.4 22.3 78.65 26.85Q81.95 31.45 81.95 37.15Q81.95 44.45 76.75 49.65Q71.5 54.85 64.15 54.85Q61.1 54.85 58.35 53.8L58.35 55.2Q58.35 61.4 53.95 65.75Q49.6 70.15 43.4 70.15Q38.65 70.15 34.7 67.45Q21.75 69.8 17.85 76.95L9.7 76.95Q12.15 60.05 28.5 53.45Q29.2 47.85 33.45 44.05Q37.7 40.2 43.4 40.2L46.8 40.6Q46.45 38.25 46.45 37.15Q46.45 32.6 48.6 28.7Q50.7 24.85 54.3 22.4Q51.8 20.7 50.35 18.05Q48.85 15.35 48.85 12.3Q48.85 7.15 52.4 3.6Q56.05 0 61.1 0Q66.2 0 69.85 3.6Q73.45 7.15 73.45 12.3M9.7 79.85L17.7 79.85L17.7 88.65L79.9 88.65L79.9 122.7L6.2 122.7Q3.2 109.3 2.9 105.15Q1.95 94.65 6.2 88.65L9.7 88.65L9.7 79.85M54.45 134.5Q56 134.5 57.1 135.6Q58.1 136.7 58.1 138.15Q58.1 139.7 57.1 140.8Q56 141.85 54.45 141.85Q52.95 141.85 51.9 140.8Q50.8 139.7 50.8 138.15Q50.8 136.7 51.9 135.6Q52.95 134.5 54.45 134.5M42.45 138.15Q42.45 137 42.7 135.8L37.95 135.8L38.2 138.15Q38.2 143.1 34.6 146.7Q31.15 150.15 26.2 150.15Q21.25 150.15 17.7 146.7Q14.2 143.2 14.2 138.15L0 138.15L0 127.1L6.2 127.1L6.2 124.05L108 124.05L108 135.8L93.8 135.8L94.05 138.15Q94.05 143.2 90.55 146.7Q87.05 150.15 82.05 150.15Q77.1 150.15 73.5 146.7Q70.05 143.2 70.05 138.15L70.3 135.8L66.2 135.8L66.45 138.15Q66.45 143.2 62.95 146.7Q59.5 150.15 54.45 150.15Q49.5 150.15 46.05 146.7Q42.45 143.1 42.45 138.15M47.15 145.55Q50.2 148.65 54.45 148.65Q58.8 148.65 61.85 145.55Q64.95 142.5 64.95 138.15Q64.95 133.9 61.85 130.85Q58.8 127.8 54.45 127.8Q50.2 127.8 47.15 130.85Q44.05 133.9 44.05 138.15Q44.05 142.5 47.15 145.55M74.65 145.55Q77.7 148.65 82.05 148.65Q86.4 148.65 89.45 145.55Q92.5 142.5 92.5 138.15Q92.5 133.9 89.45 130.85Q86.4 127.8 82.05 127.8Q77.7 127.8 74.65 130.85Q71.55 133.9 71.55 138.15Q71.55 142.5 74.65 145.55M78.4 138.15Q78.4 136.7 79.5 135.6Q80.5 134.5 82.05 134.5Q83.55 134.5 84.65 135.6Q85.7 136.7 85.7 138.15Q85.7 139.7 84.65 140.8Q83.55 141.85 82.05 141.85Q80.5 141.85 79.5 140.8Q78.4 139.7 78.4 138.15M15.75 138.15Q15.75 142.5 18.8 145.55Q21.85 148.65 26.2 148.65Q30.45 148.65 33.6 145.55Q36.65 142.5 36.65 138.15Q36.65 133.9 33.6 130.85Q30.45 127.8 26.2 127.8Q21.85 127.8 18.8 130.85Q15.75 133.9 15.75 138.15M26.2 134.5Q27.75 134.5 28.85 135.6Q29.85 136.7 29.85 138.15Q29.85 139.7 28.85 140.8Q27.75 141.85 26.2 141.85Q24.65 141.85 23.65 140.8Q22.55 139.7 22.55 138.15Q22.55 136.7 23.65 135.6Q24.65 134.5 26.2 134.5" />
</g>
<g id="PathID_48" transform="matrix(0.112316, 0.0862237, -0.0845384, 0.11237, 104.75, 149.9)" opacity="1">
</g>
</svg>
