<?xml version="1.0" encoding="iso-8859-1"?>
<!-- Generator: Adobe Illustrator 19.0.0, SVG Export Plug-In . SVG Version: 6.00 Build 0)  -->
<svg version="1.1" id="Capa_1" xmlns="http://www.w3.org/2000/svg" xmlns:xlink="http://www.w3.org/1999/xlink" x="0px" y="0px"
	 viewBox="0 0 436.907 436.907" style="enable-background:new 0 0 436.907 436.907;" xml:space="preserve">
<circle style="fill:#EFC84A;" cx="218.453" cy="218.453" r="218.453"/>
<path style="opacity:0.1;enable-background:new    ;" d="M218.453,436.907c94.472,0,174.925-59.975,205.394-143.922L254.63,123.768
	h-4.778L219.405,93.32H208.96v30.447H173.7v40.892h-32.188v54.682l-32.563,15.189c-6.076,2.799-8.977,9.796-6.724,16.111
	l15.599,43.691v23.378l10.032,11.881c-5.845-0.005-35.007-0.798-35.086-0.818l-2.321,10.172l95.549,95.549
	C196.589,436.071,207.423,436.907,218.453,436.907z"/>
<rect x="141.517" y="164.659" style="fill:#E56353;" width="145.316" height="74.834"/>
<rect x="208.964" y="93.321" style="fill:#3A556A;" width="10.441" height="36.547"/>
<rect x="173.708" y="123.767" style="fill:#3EA69B;" width="80.923" height="40.899"/>
<path style="fill:#3A556A;" d="M213.099,185.987l-104.154,48.526c-6.067,2.827-8.985,9.808-6.734,16.111l15.606,43.697v39.157
	h189.258v-39.157l18.96-49.507c2.515-6.566-0.708-13.935-7.236-16.546L213.099,185.987z"/>
<path style="fill:#64798A;" d="M117.817,333.478v-39.157l-15.606-43.697c-2.251-6.303,0.666-13.284,6.734-16.111l104.154-48.526
	v147.49H117.817z"/>
<g>
	<path style="fill:#E1E6E9;" d="M260.991,288.882h-9.64c-5.027,0-9.102-4.075-9.102-9.102v-40.096c0-5.027,4.075-9.102,9.102-9.102
		h9.64c5.027,0,9.102,4.075,9.102,9.102v40.096C270.093,284.807,266.018,288.882,260.991,288.882z"/>
	<path style="fill:#E1E6E9;" d="M176.019,288.882h-9.64c-5.027,0-9.102-4.075-9.102-9.102v-40.096c0-5.027,4.075-9.102,9.102-9.102
		h9.64c5.027,0,9.102,4.075,9.102,9.102v40.096C185.121,284.807,181.046,288.882,176.019,288.882z"/>
</g>
<path style="fill:#27A2DB;" d="M213.31,343.591c-12.593,0.003-20.506-5.063-24.493-8.591c-30.803,14.291-51.449,4.372-58.674-0.352
	c-20.313,8.553-38.871,4.497-39.69,4.308l2.299-10.184c0.176,0.043,17.743,3.781,35.764-4.839l3.11-1.486l2.59,2.279
	c0.77,0.653,19.831,16.415,53.343-0.729l3.995-2.044l2.621,3.64c0.51,0.673,13.886,17.519,48.959-1.535l2.32-1.262l2.389,1.122
	c0.25,0.115,26.268,11.862,54.947-0.092l2.506-1.045l2.292,1.451c0.092,0.054,12.935,7.666,37.347,4.081l1.519,10.33
	c-22.306,3.276-36.49-1.726-41.935-4.265c-27.027,10.317-50.98,2.957-58.618,0.031C232.697,341.23,221.911,343.591,213.31,343.591z"
	/>
<g>
</g>
<g>
</g>
<g>
</g>
<g>
</g>
<g>
</g>
<g>
</g>
<g>
</g>
<g>
</g>
<g>
</g>
<g>
</g>
<g>
</g>
<g>
</g>
<g>
</g>
<g>
</g>
<g>
</g>
</svg>
