<?xml version="1.0" encoding="utf-8"?>
<!-- Generator: Adobe Illustrator 21.0.0, SVG Export Plug-In . SVG Version: 6.00 Build 0)  -->
<svg version="1.1" id="Layer_1" xmlns="http://www.w3.org/2000/svg" xmlns:xlink="http://www.w3.org/1999/xlink" x="0px" y="0px"
	 viewBox="0 0 541.5 181.5" style="enable-background:new 0 0 541.5 181.5;" xml:space="preserve">
<style type="text/css">
	.st0{fill:#2E3192;}
	.st1{fill:url(#XMLID_3_);}
	.st2{fill-rule:evenodd;clip-rule:evenodd;fill:#ED1C24;}
	.st3{fill-rule:evenodd;clip-rule:evenodd;fill:#2E3192;}
	.st4{fill:#ED1C24;}
	.st5{fill:#F7941D;}
	.st6{fill:none;stroke:#58595B;stroke-width:0.5037;stroke-miterlimit:10;}
	.st7{fill:url(#XMLID_4_);}
	.st8{fill:url(#XMLID_5_);}
	.st9{fill:url(#XMLID_6_);}
</style>
<g id="XMLID_2_">
	<g id="XMLID_1054_">
		<path id="XMLID_1120_" class="st0" d="M11.6,165.1c-0.1,0-0.2-0.1-0.3-0.2l-6.1-9.2v15.2c0,0.2-0.2,0.4-0.4,0.4H4
			c-0.2,0-0.4-0.2-0.4-0.4v-17.2c0-0.2,0.2-0.4,0.4-0.4h1.3c0.1,0,0.2,0.1,0.3,0.2l6.6,10l6.6-10c0.1-0.1,0.2-0.2,0.3-0.2h1.3
			c0.2,0,0.4,0.2,0.4,0.4v17.2c0,0.2-0.2,0.4-0.4,0.4h-0.9c-0.2,0-0.4-0.2-0.4-0.4v-15.2l-6.1,9.2c-0.1,0.1-0.2,0.2-0.3,0.2H11.6z"
			/>
		<path id="XMLID_1116_" class="st0" d="M29.6,153.3c0.2,0,0.4,0.2,0.4,0.4v6.3h3.7c3.7,0,6,2.2,6,5.6c0,3.4-2.3,5.6-6,5.6h-5
			c-0.2,0-0.4-0.2-0.4-0.4v-17.2c0-0.2,0.2-0.4,0.4-0.4H29.6z M33.5,161.4H30v8.4h3.6c2.9,0,4.5-1.6,4.5-4.2
			C38,163.1,36.5,161.4,33.5,161.4z M43,153.3c0.2,0,0.4,0.2,0.4,0.4v17.2c0,0.2-0.2,0.4-0.4,0.4h-0.9c-0.2,0-0.4-0.2-0.4-0.4v-17.2
			c0-0.2,0.2-0.4,0.4-0.4H43z"/>
		<path id="XMLID_1114_" class="st0" d="M63.4,161.5c0-0.2,0.2-0.4,0.4-0.4c3.8-0.1,6.6-1.4,6.6-3.8c0-1.7-1.5-2.8-4.6-2.8
			c-1.3,0-2.7,0.3-3.9,0.8c-0.2,0.1-0.5-0.1-0.5-0.3l-0.1-0.8c0-0.2,0.1-0.3,0.2-0.4c1.2-0.5,2.9-0.7,4.4-0.7c3.8,0,6.2,1.7,6.2,4.2
			c0,2.5-2.3,4.1-4.9,4.6c3.1,0.6,5.2,2.2,5.2,4.9c0,2.9-2.7,4.8-6.8,4.8c-1.5,0-3-0.2-4.5-0.7c-0.1-0.1-0.2-0.2-0.2-0.4l0.1-0.8
			c0-0.2,0.3-0.4,0.5-0.3c1.3,0.5,2.8,0.7,4.1,0.7c3.1,0,5.1-1.4,5.1-3.4c0-2.6-2.6-3.9-6.8-4c-0.2,0-0.3-0.2-0.3-0.4V161.5z"/>
		<path id="XMLID_1111_" class="st0" d="M85.6,153.3c0.2,0,0.3,0.1,0.4,0.3l6.8,17.1c0.1,0.3,0,0.5-0.3,0.5h-1
			c-0.2,0-0.3-0.1-0.3-0.2l-1.8-4.6h-8.7l-1.8,4.6c-0.1,0.2-0.2,0.2-0.3,0.2h-1c-0.3,0-0.4-0.2-0.3-0.5l6.8-17.1
			c0.1-0.2,0.2-0.3,0.4-0.3H85.6z M81.2,164.9h7.6l-3.8-9.8L81.2,164.9z"/>
		<path id="XMLID_1107_" class="st0" d="M98.6,153.7c0-0.2,0.2-0.4,0.4-0.4h5.6c3.6,0,5.8,1.9,5.8,4.6c0,1.7-0.6,3.1-2.4,3.9
			c2.4,0.7,3.3,2.5,3.3,4.4c0,3.1-2.3,5-6.5,5h-5.8c-0.2,0-0.4-0.2-0.4-0.4V153.7z M104.3,154.7h-4.1v6.5h3.9c3,0,4.5-0.9,4.5-3.2
			C108.6,156,107,154.7,104.3,154.7z M104.3,162.6h-4.1v7.1h4.3c3.3,0,5-1.2,5-3.6C109.5,163.6,107.7,162.6,104.3,162.6z"/>
		<path id="XMLID_1104_" class="st0" d="M124.6,171.5c-4.9,0-7.8-4-7.8-9.3c0-5.2,2.9-9.3,7.8-9.3c4.9,0,7.8,4,7.8,9.3
			C132.5,167.5,129.6,171.5,124.6,171.5z M124.6,154.5c-3.8,0-6.1,3.1-6.1,7.8c0,4.6,2.3,7.8,6.1,7.8c3.8,0,6.1-3.1,6.1-7.8
			C130.8,157.6,128.4,154.5,124.6,154.5z"/>
		<path id="XMLID_1102_" class="st0" d="M139.1,153.7c0-0.2,0.2-0.4,0.4-0.4h10.1c0.2,0,0.4,0.2,0.4,0.4v0.7c0,0.2-0.2,0.4-0.4,0.4
			h-8.8v6.5h8.2c0.2,0,0.4,0.2,0.4,0.4v0.7c0,0.2-0.2,0.4-0.4,0.4h-8.2v7.1h9.1c0.2,0,0.4,0.2,0.4,0.4v0.7c0,0.2-0.2,0.4-0.4,0.4
			h-10.3c-0.2,0-0.4-0.2-0.4-0.4V153.7z"/>
		<path id="XMLID_1098_" class="st0" d="M156.6,153.7c0-0.2,0.2-0.4,0.4-0.4h5.6c3.6,0,5.8,1.9,5.8,4.6c0,1.7-0.6,3.1-2.4,3.9
			c2.4,0.7,3.3,2.5,3.3,4.4c0,3.1-2.3,5-6.5,5H157c-0.2,0-0.4-0.2-0.4-0.4V153.7z M162.4,154.7h-4.1v6.5h3.9c3,0,4.5-0.9,4.5-3.2
			C166.7,156,165.1,154.7,162.4,154.7z M162.3,162.6h-4.1v7.1h4.3c3.3,0,5-1.2,5-3.6C167.6,163.6,165.8,162.6,162.3,162.6z"/>
		<path id="XMLID_1095_" class="st0" d="M182.5,153.3c0.2,0,0.3,0.1,0.4,0.3l6.8,17.1c0.1,0.3,0,0.5-0.3,0.5h-1
			c-0.2,0-0.3-0.1-0.3-0.2l-1.8-4.6h-8.7l-1.8,4.6c-0.1,0.2-0.2,0.2-0.3,0.2h-1c-0.3,0-0.4-0.2-0.3-0.5l6.8-17.1
			c0.1-0.2,0.2-0.3,0.4-0.3H182.5z M178.1,164.9h7.6l-3.8-9.8L178.1,164.9z"/>
		<path id="XMLID_1093_" class="st0" d="M199.4,167.3c0,3-1.4,4.2-4.1,4.2c-0.5,0-0.9-0.1-1.3-0.1c-0.2,0-0.3-0.2-0.3-0.4l0.1-0.7
			c0-0.2,0.2-0.4,0.4-0.3c0.4,0.1,0.8,0.1,1.1,0.1c1.7,0,2.5-0.9,2.5-3.2v-13.2c0-0.2,0.2-0.4,0.4-0.4h10.3c0.2,0,0.4,0.2,0.4,0.4
			v17.2c0,0.2-0.2,0.4-0.4,0.4h-0.9c-0.2,0-0.4-0.2-0.4-0.4v-16.1h-7.8V167.3z"/>
		<path id="XMLID_1091_" class="st0" d="M230.1,170.8c0,0.2-0.2,0.4-0.4,0.4h-0.9c-0.2,0-0.4-0.2-0.4-0.4v-15.4l-9.9,15.6
			c-0.1,0.1-0.2,0.2-0.3,0.2h-1.4c-0.2,0-0.4-0.2-0.4-0.4v-17.2c0-0.2,0.2-0.4,0.4-0.4h0.9c0.2,0,0.4,0.2,0.4,0.4v15.4l9.9-15.6
			c0.1-0.1,0.2-0.2,0.3-0.2h1.4c0.2,0,0.4,0.2,0.4,0.4V170.8z"/>
		<path id="XMLID_1089_" class="st0" d="M256.6,165.1c-0.1,0-0.2-0.1-0.3-0.2l-6.1-9.2v15.2c0,0.2-0.2,0.4-0.4,0.4H249
			c-0.2,0-0.4-0.2-0.4-0.4v-17.2c0-0.2,0.2-0.4,0.4-0.4h1.3c0.1,0,0.2,0.1,0.3,0.2l6.6,10l6.6-10c0.1-0.1,0.2-0.2,0.3-0.2h1.3
			c0.2,0,0.4,0.2,0.4,0.4v17.2c0,0.2-0.2,0.4-0.4,0.4h-0.9c-0.2,0-0.4-0.2-0.4-0.4v-15.2l-6.1,9.2c-0.1,0.1-0.2,0.2-0.3,0.2H256.6z"
			/>
		<path id="XMLID_1087_" class="st0" d="M287,170.8c0,0.2-0.2,0.4-0.4,0.4h-0.9c-0.2,0-0.4-0.2-0.4-0.4v-15.4l-9.9,15.6
			c-0.1,0.1-0.2,0.2-0.3,0.2h-1.4c-0.2,0-0.4-0.2-0.4-0.4v-17.2c0-0.2,0.2-0.4,0.4-0.4h0.9c0.2,0,0.4,0.2,0.4,0.4v15.4l9.9-15.6
			c0.1-0.1,0.2-0.2,0.3-0.2h1.4c0.2,0,0.4,0.2,0.4,0.4V170.8z"/>
		<path id="XMLID_1085_" class="st0" d="M298.5,167.3c0,3-1.4,4.2-4.1,4.2c-0.5,0-0.9-0.1-1.3-0.1c-0.2,0-0.3-0.2-0.3-0.4l0.1-0.7
			c0-0.2,0.2-0.4,0.4-0.3c0.4,0.1,0.8,0.1,1.1,0.1c1.7,0,2.5-0.9,2.5-3.2v-13.2c0-0.2,0.2-0.4,0.4-0.4h10.3c0.2,0,0.4,0.2,0.4,0.4
			v17.2c0,0.2-0.2,0.4-0.4,0.4h-0.9c-0.2,0-0.4-0.2-0.4-0.4v-16.1h-7.8V167.3z"/>
		<path id="XMLID_1083_" class="st0" d="M319.4,167.3c0,3-1.4,4.2-4.1,4.2c-0.5,0-0.9-0.1-1.3-0.1c-0.2,0-0.3-0.2-0.3-0.4l0.1-0.7
			c0-0.2,0.2-0.4,0.4-0.3c0.4,0.1,0.8,0.1,1.1,0.1c1.7,0,2.5-0.9,2.5-3.2v-13.2c0-0.2,0.2-0.4,0.4-0.4h10.3c0.2,0,0.4,0.2,0.4,0.4
			v17.2c0,0.2-0.2,0.4-0.4,0.4h-0.9c-0.2,0-0.4-0.2-0.4-0.4v-16.1h-7.8V167.3z"/>
		<path id="XMLID_1081_" class="st0" d="M350,170.8c0,0.2-0.2,0.4-0.4,0.4h-0.9c-0.2,0-0.4-0.2-0.4-0.4v-15.4l-9.9,15.6
			c-0.1,0.1-0.2,0.2-0.3,0.2h-1.4c-0.2,0-0.4-0.2-0.4-0.4v-17.2c0-0.2,0.2-0.4,0.4-0.4h0.9c0.2,0,0.4,0.2,0.4,0.4v15.4l9.9-15.6
			c0.1-0.1,0.2-0.2,0.3-0.2h1.4c0.2,0,0.4,0.2,0.4,0.4V170.8z"/>
		<path id="XMLID_1078_" class="st0" d="M364.5,171.5c-4.9,0-7.8-4-7.8-9.3c0-5.2,2.9-9.3,7.8-9.3c4.9,0,7.8,4,7.8,9.3
			C372.3,167.5,369.4,171.5,364.5,171.5z M364.5,154.5c-3.8,0-6.1,3.1-6.1,7.8c0,4.6,2.3,7.8,6.1,7.8c3.8,0,6.1-3.1,6.1-7.8
			C370.6,157.6,368.3,154.5,364.5,154.5z"/>
		<path id="XMLID_1076_" class="st0" d="M378.9,153.7c0-0.2,0.2-0.4,0.4-0.4h0.9c0.2,0,0.4,0.2,0.4,0.4v7.3h10.3v-7.3
			c0-0.2,0.2-0.4,0.4-0.4h0.9c0.2,0,0.4,0.2,0.4,0.4v17.2c0,0.2-0.2,0.4-0.4,0.4h-0.9c-0.2,0-0.4-0.2-0.4-0.4v-8.5h-10.3v8.5
			c0,0.2-0.2,0.4-0.4,0.4h-0.9c-0.2,0-0.4-0.2-0.4-0.4V153.7z"/>
		<path id="XMLID_1072_" class="st0" d="M401.3,153.3c0.2,0,0.4,0.2,0.4,0.4v6.3h3.7c3.7,0,6,2.2,6,5.6c0,3.4-2.3,5.6-6,5.6h-5
			c-0.2,0-0.4-0.2-0.4-0.4v-17.2c0-0.2,0.2-0.4,0.4-0.4H401.3z M405.2,161.4h-3.6v8.4h3.6c2.9,0,4.5-1.6,4.5-4.2
			C409.7,163.1,408.2,161.4,405.2,161.4z M414.7,153.3c0.2,0,0.4,0.2,0.4,0.4v17.2c0,0.2-0.2,0.4-0.4,0.4h-0.9
			c-0.2,0-0.4-0.2-0.4-0.4v-17.2c0-0.2,0.2-0.4,0.4-0.4H414.7z"/>
		<path id="XMLID_1070_" class="st0" d="M445.8,154l-0.1,0.8c0,0.3-0.3,0.4-0.6,0.3c-1-0.4-2.1-0.6-3.2-0.6c-4.8,0-7.6,3.1-7.6,7.8
			c0,4.7,2.9,7.8,7.7,7.8c1.1,0,2.2-0.2,3.2-0.6c0.3-0.1,0.5,0,0.5,0.3l0.1,0.8c0,0.2-0.1,0.3-0.3,0.4c-1.2,0.4-2.4,0.6-3.6,0.6
			c-5.7,0-9.3-3.7-9.3-9.3c0-5.5,3.6-9.3,9.2-9.3c1.2,0,2.5,0.2,3.5,0.6C445.7,153.7,445.8,153.8,445.8,154z"/>
		<path id="XMLID_1068_" class="st0" d="M452.4,153.7c0-0.2,0.2-0.4,0.4-0.4h10.1c0.2,0,0.4,0.2,0.4,0.4v0.7c0,0.2-0.2,0.4-0.4,0.4
			H454v6.5h8.2c0.2,0,0.4,0.2,0.4,0.4v0.7c0,0.2-0.2,0.4-0.4,0.4H454v7.1h9.1c0.2,0,0.4,0.2,0.4,0.4v0.7c0,0.2-0.2,0.4-0.4,0.4
			h-10.3c-0.2,0-0.4-0.2-0.4-0.4V153.7z"/>
		<path id="XMLID_1065_" class="st0" d="M475.1,164.2h-3.5v6.6c0,0.2-0.2,0.4-0.4,0.4h-0.9c-0.2,0-0.4-0.2-0.4-0.4v-17.2
			c0-0.2,0.2-0.4,0.4-0.4h4.8c4.1,0,6.7,1.9,6.7,5.5C481.8,162.3,479.2,164.2,475.1,164.2z M474.9,154.7h-3.4v8.1h3.4
			c3.4,0,5.2-1.3,5.2-4C480.1,156,478.3,154.7,474.9,154.7z"/>
		<path id="XMLID_1062_" class="st0" d="M498.9,173.4c0,0.2-0.2,0.4-0.4,0.4h-0.9c-0.2,0-0.4-0.2-0.4-0.4v-2.2h-11.6v2.2
			c0,0.2-0.2,0.4-0.4,0.4h-0.9c-0.2,0-0.4-0.2-0.4-0.4v-3.3c0-0.2,0.2-0.4,0.4-0.4h0.9c2.8-4.9,4.1-10.4,4.2-16.1
			c0-0.2,0.2-0.4,0.4-0.4h6.6c0.2,0,0.4,0.2,0.4,0.4v16.1h1.6c0.2,0,0.4,0.2,0.4,0.4V173.4z M495.3,169.8v-15h-4.1
			c-0.2,5-1.4,10.2-3.9,15H495.3z"/>
		<path id="XMLID_1060_" class="st0" d="M504.9,153.7c0-0.2,0.2-0.4,0.4-0.4h10.1c0.2,0,0.4,0.2,0.4,0.4v0.7c0,0.2-0.2,0.4-0.4,0.4
			h-8.8v6.5h8.2c0.2,0,0.4,0.2,0.4,0.4v0.7c0,0.2-0.2,0.4-0.4,0.4h-8.2v7.1h9.1c0.2,0,0.4,0.2,0.4,0.4v0.7c0,0.2-0.2,0.4-0.4,0.4
			h-10.3c-0.2,0-0.4-0.2-0.4-0.4V153.7z"/>
		<path id="XMLID_1058_" class="st0" d="M534.3,169.8v-16.1c0-0.2,0.2-0.4,0.4-0.4h0.9c0.2,0,0.4,0.2,0.4,0.4v16.1h1.3
			c0.2,0,0.4,0.2,0.4,0.4v3.6c0,0.2-0.2,0.4-0.4,0.4h-0.9c-0.2,0-0.4-0.2-0.4-0.4v-2.5h-13.2c-0.2,0-0.4-0.2-0.4-0.4v-17.2
			c0-0.2,0.2-0.4,0.4-0.4h0.9c0.2,0,0.4,0.2,0.4,0.4v16.1H534.3z"/>
	</g>
	<g id="XMLID_1034_">
		<g id="XMLID_1794_">
			<circle id="XMLID_1796_" class="st0" cx="394.1" cy="118.5" r="7.2"/>
			<linearGradient id="XMLID_3_" gradientUnits="userSpaceOnUse" x1="329.4637" y1="10.4491" x2="374.0744" y2="133.0159">
				<stop  offset="0.1279" style="stop-color:#ED1C24"/>
				<stop  offset="0.2959" style="stop-color:#A82A55"/>
				<stop  offset="0.5673" style="stop-color:#2E3192"/>
			</linearGradient>
			<path id="XMLID_1795_" class="st1" d="M362.3,93.1c11.7-10.7,19.6-19,24-25.5c5.2-7.7,7.8-16.1,7.8-24.9
				c0-10.7-3.9-19.7-11.6-26.8c-7.6-7-17.2-10.6-28.4-10.6c0,0,0,0,0,0v0c-10.8,0-20.2,2.6-27.9,7.6c-2.2,1.5-3.9,2.8-5.2,4
				c-0.5,0.4-0.9,0.8-1.2,1.1c0,0,0,0-0.1,0.1c0,0,0,0,0,0c-0.9,0.9-1.6,1.7-2.3,2.4c-3,3.5-2.6,8.5,0.1,11.3
				c2.8,2.9,8.2,2.9,11.1,0.1c1.5-1.5,3.7-3.9,6.9-6c5.2-3.4,11.2-5.1,17.8-5.1c6.7,0,12.2,2.1,17,6.4c4.6,4.2,6.9,9.5,6.9,16.1
				c0,5.6-1.8,11.3-5.3,16.8c-3.8,5.9-10.6,13.3-20.5,22.1l-32.2,29.2H319v0l-1.9,1.7c-0.3,0.2-3.2,2.3-3.1,5.9c0,3,2.1,6.7,5.9,6.7
				c25,0,49.2,0,74.2,0v-14.4h-51.5L362.3,93.1z"/>
		</g>
		<g id="XMLID_1048_">
			<path id="XMLID_1791_" class="st2" d="M172.4,53.6c2.7,1.4,5.5,2,8.6,2c3.5,0,6.8-0.8,9.8-2.7c3-1.8,5.2-4.3,6.9-7.4l1.3-2.4
				l11,6.2l-1.2,2.3c-2.7,5-6.5,9-11.4,12c-5,3.1-10.5,4.6-16.3,4.6c-8.7,0-16.1-3.2-22.2-9.3c-6.1-6.1-9.3-13.5-9.3-22.2
				c0-8.7,3.1-16.2,9.3-22.3c6.1-6,13.5-9.2,22.1-9.2c5.5,0,10.6,1.4,15.4,4.1c4.5,2.6,8.4,6,11.1,10.4l1.2,1.9L172.4,53.6z
				 M163.8,44.6l27.1-24c-3-1.9-6.3-2.8-9.9-2.8c-5.3,0-9.7,1.7-13.4,5.4c-3.7,3.7-5.4,8.2-5.4,13.4
				C162.1,39.5,162.7,42.2,163.8,44.6"/>
			<path id="XMLID_1788_" class="st2" d="M77.4,59.6c-5.9,5.3-12.9,8-20.9,8c-8.7,0-16.1-3.2-22.2-9.3C28.2,52.2,25,44.8,25,36.1
				c0-8.7,3.1-16.2,9.3-22.3c6.1-6,13.5-9.2,22.1-9.2c8,0,15,2.7,20.9,8l10.6-8v62.7L77.4,59.6z M56.5,17.3c-5.2,0-9.7,1.7-13.4,5.4
				c-3.7,3.7-5.4,8.2-5.4,13.4c0,5.2,1.7,9.7,5.4,13.4c3.7,3.7,8.2,5.4,13.4,5.4c5.2,0,9.7-1.8,13.4-5.5c3.7-3.7,5.5-8.1,5.5-13.4
				c0-5.2-1.8-9.7-5.5-13.4C66.1,19.1,61.7,17.3,56.5,17.3"/>
			<path id="XMLID_1787_" class="st2" d="M103.3,11.8c4.4-3.8,9.7-5.7,15.6-5.7c6.7,0,12.6,2.3,17.3,7c4.8,4.8,7,10.6,7,17.3v37
				h-12.6v-37c0-3.3-1-6.1-3.4-8.5c-2.4-2.3-5.1-3.3-8.4-3.3c-3.3,0-6,1.1-8.4,3.4c-2.3,2.3-3.4,5.1-3.4,8.4v37H94.5V4.7L103.3,11.8
				z"/>
			<polygon id="XMLID_1786_" class="st2" points="242.2,33.1 262.5,69 247.6,69 234.6,46.1 221.6,69 206.7,69 227.2,33.1 211.8,6.1 
				226.7,6.1 234.6,20 242.6,6.1 257.5,6.1 			"/>
			<path id="XMLID_1785_" class="st3" d="M228.2,123c-3,2.5-6.6,3.8-10.6,3.8c-4.6,0-8.6-1.6-11.9-4.8c-3.3-3.3-4.8-7.3-4.8-11.9
				V84.9h9v25.2c0,2.2,0.8,4,2.3,5.5c1.5,1.5,3.3,2.3,5.4,2.3c2.2,0,4-0.7,5.5-2.3c1.5-1.5,2.2-3.3,2.2-5.4V84.9h9V128L228.2,123z"
				/>
			<path id="XMLID_1784_" class="st3" d="M244.7,87.6c3-2.5,6.5-3.7,10.4-3.7c1.9,0,3.9,0.3,5.6,1.1l2,0.8l-4,7.9l-1.6-0.5
				c-0.6-0.2-1.3-0.3-2-0.3c-2.1,0-3.9,0.6-5.4,2.2c-1.4,1.5-2.1,3.2-2.1,5.3v25.5h-9V82.7L244.7,87.6z"/>
			<path id="XMLID_1783_" class="st4" d="M175.7,92c0.3-0.1-0.2-0.5,0.2-0.2C175.9,92,175.8,92.2,175.7,92"/>
			<path id="XMLID_1782_" class="st4" d="M177,91.7c0.6-0.7,1.2-0.6,1.8-0.4c0.6,0.2,1.1,0.5,1.8,0.2c0.1,0-0.3,0.7,0.1,0.6
				c0.7-0.3,1.4-0.1,2,0.3c0.6,0.5,1.1,1.2,1.3,2l-0.2,0.1c0.1,0.3,0.8-0.1,0.9,0.1c-0.1,0.1-0.2,0.1-0.3,0.3c0.3-0.3,0.5,0.2,0.8,0
				c0,0.2-0.3,0.4-0.3,0.7l0.5-0.2c0.6-0.3,0.7-0.1,0.9,0.2c0.1,0.3,0.2,0.6,0.6,0.6c-0.1,0.1-0.2,0.1-0.3,0.2
				c1.2,0.3,1.7,1.4,2.5,2.2c-0.2,0-0.5,0.1-0.6,0.3c0.5-0.2,0.8,0.1,1,0.3c-0.4,0.3,0.7,0.3,0.5,0.7l-0.1,0
				c0.6,0.1-0.2,0.5,0.5,0.5l-0.4,0.3c0.8-0.1-0.3,0.5,0.1,0.6l0.2,0c0.2,0.2-0.1,0.3,0,0.5l-0.1,0c0.3,0.4-0.1,0.7,0.5,0.6
				c-0.4,0.2-0.3-0.4-0.9,0c0.4,0.6,0.6,1.3,0.7,2c0.1,0.7,0,1.4,0,2.2c-0.3,0.1-0.3,0.2-0.6,0.2c0.1,0.1,0,0.5,0.3,0.7
				c0,0-0.3,0-0.4,0.1c-0.3,0.2,0.6,0.4,0.3,0.6c-0.1-0.1-0.3-0.2-0.5-0.2c0.4,0.3,0.3,0.6,0.3,0.9c-0.1-0.1-0.1-0.2-0.3-0.2
				c0.4,0.4-0.3,0.5,0,0.9l-0.3-0.2c-0.5,0.3,0.6,0.3,0.3,0.6c-0.1-0.1-0.2-0.1-0.3-0.2c0.5,0.5,0.1,1,0.1,1.4c0,0-0.1-0.1-0.1-0.1
				c-0.1,0.4-0.5,0.7-0.4,1.2c-0.2,0.1-0.7-0.5-0.8-0.1c0.6,0.4-0.1,0.7,0.7,1c-0.3,0.2-0.8,0.6-0.8,0.9c-0.1-0.3-0.8-0.4-0.6-0.7
				l-0.5-0.1c-0.2-0.2,0.2-0.1-0.1-0.3c-0.1,0.1-0.1,0.6-0.3,0.6c0.2,0.5,0.6,1.2,0.3,1.6c0-0.3-0.6-0.5-0.6-0.6l0.3,0.7l0.2,0.7
				c-0.1,0.1-0.4-0.4-0.4-0.1c0.1,0.1,0.1,0.3,0.2,0.4c-0.1,0-0.4,0.6-0.9,0.1c-0.2-0.2,0.1-0.3-0.2-0.3c-0.2,0.2-0.1,0.4-0.3,0.5
				l-0.1-0.1c-0.2,0-0.3,0.6,0.1,0.7c0.1-0.1-0.3-0.3,0-0.3c0.1,0.4-0.1,0.7-0.3,0.9c0-0.1-0.1-0.3-0.2-0.5c0,0.7-0.3,1-0.5,1.5
				c0.2,0.3-0.2-0.6,0-0.5c-0.4-0.1-0.5,0.2-0.7,0.5c-0.2,0.2-0.4,0.5-0.7,0.3c0-0.1,0.2,0.4,0.2,0.3c-0.3,0.1-0.4-0.3-0.5-0.1
				c-0.1-0.2-0.2,0.2-0.3,0.3c0,0.2-0.1-0.1,0-0.2c-0.1,0.3-1,1.1-1.7,0.8c0.1,0.2-0.2,0.7-0.3,0.8l0-0.4c-0.2-0.2-0.4,0.1-0.5-0.2
				c-0.1,0.3,0.2,0.1,0.4-0.1c0.2-0.2,0.4-0.4,0.3-0.1c-0.2-0.3-0.4,0.8-0.4,0.2c-0.3,0.1-0.4,0.6-0.8,0.3c0.1,0.1,0.1-0.6-0.1-0.6
				c-0.4,0.1-0.1,0.2-0.4,0.4l-0.2,0.2c0,0.4-0.4,0-0.1,0.4c-0.1-0.3-0.6,0.3-0.6-0.4v-0.5c-0.1,0.1-0.2,0.6-0.3,0.8
				c0,0-0.1-0.2-0.1-0.2c0,0.8-0.4,0-0.6,0.6c-0.3-0.3-0.9,0-1-0.5c-0.3,0.2-0.5,0.5-0.8,0.3c0.1-0.1,0.1-0.1,0.2-0.3
				c-0.2-0.3-0.2,0-0.4,0.1c0.1-0.1-0.3-0.5-0.5-0.8c-0.3,0.2-0.3,0.7-0.3,0.9c-0.1-0.4-0.3-0.3-0.5-0.2c-0.2,0.1-0.5,0.2-0.5-0.2
				c0.1-0.1,0.5-0.3,0.3-0.6c-0.1-0.8-0.6,0.5-0.9,0l-0.1,0.7c-0.1-0.4-0.7,0.2-0.5-0.4c-0.2,0.2-0.4-0.4-0.5,0.3
				c-0.2-0.4-0.6-0.4-1-0.6c-0.4-0.1-0.6-0.3-0.6-1c-0.1,0.1-0.3-0.1-0.4,0.2c0,0.4,0.3-0.1,0.3,0.1c-0.1,0-0.2,0.1-0.2,0.2
				c-0.1-0.2-0.2-0.3,0.2-0.8c-0.2-0.6-0.9,0.8-1.3,0.3c0.2-0.2,0.2-0.3,0-0.4l-0.5,0.2c-0.3-0.3,0.2-0.6,0.4-1
				c-0.2,0-0.4-0.2-0.7,0l0.1-0.6c-0.1,0.4-0.3,0.1-0.4,0.2l0.1,0c0.1-0.2-0.2-0.2-0.3-0.2c-0.2,0.2,0,0.5,0,0.6
				c-0.2,0.1-0.3,0-0.6,0.1c0.3-0.3-0.1-0.5-0.2-0.6c-0.1-0.2-0.4,0.2-0.4,0.1c0.1-0.2-0.2-0.2,0.1-0.4c0.1,0,0,0.3,0.2,0.2
				c0-0.2,0.3-0.5-0.1-0.4c-0.3,0-0.6,0.7-0.6,0.2c0.2,0,0.3-0.1,0.4-0.2l-0.1-0.4l-0.3,0.3c0-0.1,0.1-0.1,0.1-0.2
				c-0.2,0.1-0.3,0-0.4,0c-0.1-0.1-0.2-0.1-0.4,0c-0.1-0.1,0-0.5-0.1-0.6l0,0c0-0.3-0.2-0.4-0.6-0.3l0.1-0.1
				c-0.1-0.1-0.3-0.3-0.5-0.2c0.1-0.4,1.2-1.1,0.6-1c-0.2-0.2-0.9,0.1-1,0.4c-0.1-0.6-1-0.7-0.7-1.4c-0.2,0-0.2,0.1-0.4,0
				c-0.1-0.4-0.4-0.7-0.6-1c-0.2-0.3-0.3-0.7-0.1-1.1c0.2,0.1,0.4-0.2,0.6-0.2c-0.4,0,0.3-0.3-0.3-0.2c-0.3,0.2-0.5,0.2-0.6,0.5
				c-0.4-0.3-0.6-1-0.3-1.4c-0.1,0.2-0.3,0.1-0.4,0.1c0.6-0.1,0.6-0.5,0.3-0.7l-0.4,0.1l0.3-0.3c-0.1-0.1-0.8,0.1-0.5-0.2
				c0.1-0.1,0.3-0.1,0.4-0.2c-0.3-0.2-0.9-0.5-0.7-0.8l0.5-0.3c-0.1-0.1-0.4-0.3-0.5,0c0.2-0.5,0.3-0.8,0.7-1
				c-0.6-0.4-0.9-0.8-1.1-1.4c0-0.1-0.1-0.2-0.1-0.3l0-0.2l0-0.2c0-0.3,0-0.5,0-0.8l0.3,0c0.3-0.2-0.5-0.2-0.3-0.3
				c0.3,0.1,0.6-0.2,0.9,0.1c0.3-0.3-0.4-0.5-0.5-0.8c-0.3-0.1,0.2,0.2-0.2,0.1c-0.1-0.1,0.3-0.5-0.2-0.6c0.2-0.1,0.6,0.1,0.8,0.1
				l-0.2-0.3c0.3-0.1,0.6,0.1,0.9,0.3c0.3,0.2,0.6,0.4,1,0.3l-0.1-0.2c0.6-0.1,0.6,0.6,0.8,0.1c-0.2-0.2-1-0.5-1.3-0.4
				c-0.1-0.5-1.2-0.4-1.1-0.9c0.3-0.1,0,0.4,0.5,0.4c0.5-0.2-0.2-0.5,0-0.7c-0.3,0.2-0.7-0.1-0.8-0.3c0.3-0.2,0.5,0.3,0.6-0.1
				c-0.3-0.1-0.4-0.5-0.7-0.3c-0.7-0.3,0.3-0.3-0.2-0.7c0.5,0,1,0.7,1.4,0.4c-0.5-0.1-0.5-0.7-1.2-0.7c0.2-0.1,0.5,0,0.8,0.2
				c0.3-0.1-0.7-0.8,0.3-0.6l-0.4-0.2c0.2,0,0.3-0.1,0.6-0.1c0.1-0.2-0.4-0.9,0.3-0.6c-0.1-0.1,0.2-0.5-0.4-0.5
				c-0.4,0.1,0.2,0.5-0.5,0.3c0.6,0,0.1-0.4,0-0.7l0.3,0.1c-0.1-0.1,0.1-0.3-0.1-0.5c0.1,0.1,0.3,0.2,0.4,0.1l-0.3-0.3
				c0-0.5,0.7,0.3,0.8-0.2c0,0.1,0.1,0.3,0.1,0.4c0-0.1,0.4,0,0.4-0.2c-0.3-0.3-0.7-0.6-0.9-0.8c0-0.3,0.4,0.1,0.2-0.3l0.3,0.5
				c0.1,0.1,0.7,0.2,0.8-0.1c0-0.2-0.3-0.8-0.7-0.7c0.1-0.1,0.4-0.2,0.6,0.1c0.1-0.4-0.4-0.2-0.4-0.6c0.3,0,0.8-0.1,1.3,0
				c0.1,0.2,0.2,0.4,0.4,0.6l0.1-0.1c0.3,0.5,0.4,0.1,0.8,0.6c0.1,0,0.1-0.3,0-0.5c-0.9-0.2-0.7-1.1-1.4-1.5c0.2-0.6,1.7,1,1.1-0.2
				c-0.2-0.1-0.5-0.7-0.6-0.3c0.3-0.2-0.5-0.7,0.1-0.8c0,0.5,0.8,0.3,0.9,1c-0.2-0.2-0.3,0-0.3,0.1c0.3,0.1,0.6,0.6,0.8,0.3
				c0.1-0.2,0.2-0.4-0.1-0.7c-0.3-0.3-0.1,0.2-0.4-0.2c0-0.1,0.1-0.1,0.2-0.2c0,0,0.1,0,0.1,0l0,0h0h0l0,0h0h0l0,0
				c0.1,0,0.1-0.1-0.1-0.4c-0.1,0.1-0.2,0.1-0.4,0l0,0l0,0h0l0,0v0l0,0l-0.1,0l-0.1-0.1c-0.1-0.1-0.1-0.1-0.2-0.2l0,0v0v0l0,0v0v0
				l0-0.1l0-0.2l0.2,0.3c0.5-0.2-0.3-0.5,0.1-0.8l0.6,0.3c0.3,0.5-0.7,0.3,0,0.9c0.2-0.2,0-0.6,0.4-0.6c0,0.1-0.1,0.2-0.1,0.3
				c0.1-0.1,0.9,0.7,0.8,0c0-0.3-0.2-0.3-0.4-0.5c0.3-0.4,0.2-0.8,0.5-1c0.3,0.6,0.5-0.3,0.6,0.4c-0.4-0.2-0.9,0.3-0.7,0.9
				c0.6,0.5-0.4,0.2,0.1,0.8c0.3-0.2,0.8,0.3,1.1,0.7c0.1,0,0-0.2,0-0.3c-0.3-0.4-0.3-0.3-0.6-0.7c0.4-0.2,0.6-0.6,0.5-1.1
				c0.2,0.1,0.5,0.5,0.3,0.6c0.3-0.4,0.8-0.6,1.3-0.7c-0.6-0.5,0.4-0.4-0.1-0.9c-0.3,0-0.8-0.4-0.8-0.7c0.2,0,0.2,0.3,0.3,0.4
				c0-0.5,0.6,0.4,0.5-0.3c-0.3,0.4,0.3,0.8,0.5,1.4c0.1-0.4,0.2,0.4,0.5,0.2c0.1-0.4,0.4-0.8,0.7-1.1c0.6,0.3,1.1-0.4,1.5-0.5
				c0.3,0.2,0.3,0.9,0.6,1c0.2-0.1-0.4-0.6,0.1-0.4l0,0.1c0.1-0.2,0.8,0.3,0.7-0.7l0,0.7c0.1,0.1,0.1-0.1,0.2-0.2
				c0,0.2,0.2,0.4,0.1,0.6c0.3,0.4,0.4-0.2,0.7-0.2l-0.2-0.4c0.4-0.4,0.7,0,1.1-0.2l0,0.4l0.2-0.3c0,0.4,0.2,0.6,0.3,0.3
				c-0.2,0.3-0.4,0.7-0.5,1.1c-0.2-0.2,0.1-0.5,0-0.9c-0.1-0.4-0.5-0.2-0.5,0.2c0.1,0,0.1-0.1,0.2-0.2c0.1,0.6-0.1,0.6-0.2,1
				c0.1,0,0.2,0.1,0.2-0.1c-0.1,0.3-0.2,0.4-0.5,0.4c0.1-0.3-0.1-0.3-0.1-0.5c0.1,0.5-0.1,0.7-0.4,0.6c-0.3-0.5-0.4,0.5-0.8,0.4
				c0-0.5,0.1-1,0.2-1.2c-0.3-0.2-0.2,0.1-0.5-0.1c0,0.4,0.1,1-0.1,1.3l-0.1-0.4c-0.2,0.3,0,0.8-0.3,0.8c-0.5,0-1,0.2-1.4,0.3
				l-0.2-0.3c0.1,0.8-0.5,0.6-0.6,1.1c-0.6-0.1-0.7,0.9-1.3,0.5c-0.5,0.8-0.9,1.5-1.6,2l-0.3-0.5c0.2,0.4-0.3-0.1-0.4,0
				c0.5,0.2,0.3,0.6,0.5,0.8c-0.6,0-0.5,0.7-0.4,1.2l-0.3-0.2c0.4,0.7-0.3,0.7-0.6,1c-0.2,0-0.5-0.1-0.5,0c0.4,0.5,0.3,0.6,0.5,1
				c-0.1,0.2-0.4,0.5-0.7,0.7c0.3,0.6,0.2,1,0.1,1.5c-0.1,0.5-0.1,0.9,0.1,1.4l-0.4,0c0.9,1,0,2.1,0.6,2.9l-0.8,0
				c-0.2,0.3,0.3,0.5,0.8,0.4c-0.2,0.3,0.5,0.5-0.1,0.8c-0.1,0.3,0.4,0.2,0.5,0.4c-0.1,0.5,0,0.7,0.3,1.1l0-0.1
				c-0.2,0-0.5,0.1-0.5,0.2c0.3,0.1,0.1,0.7,0.8,0.2c-0.1,0.3,0.1,0.5,0.3,0.7c0.2,0.2,0.4,0.4,0.2,0.8c0.2-0.2,0.3-0.1,0.5-0.1
				c0.2,0.3,0.1,1,0.6,1c0,0.1-0.4,0.2-0.3,0.3c0.1,0,0.3-0.2,0.4-0.2c0.4,0.1,0.5,0.4,0.6,0.8l0,0.1v0v0c0,0,0,0,0,0v0l0,0l0,0l0,0
				l0.1,0.2c0.1,0.1,0.1,0.2,0.1,0.3c0.1,0.1,0.2,0.3,0.3,0.4c0.6,0.2,1,0.5,1.5,0.7c0.5,0.3,0.9,0.6,1.4,0.7l-0.1,0.2
				c0.3-0.2,0.4,0,0.5,0.2c0.1,0.2,0.3,0.3,0.6-0.1c0,0.2,0.3,0.2,0.1,0.5c0.2-0.2,0.4,0,0.5,0.1c0.2,0.1,0.4,0.3,0.7,0
				c0,0-0.1,0-0.1,0.1c0.4,0.5,0.8,0,1.2,0.4c0,0.1-0.1,0.1-0.2,0.3c0.2,0.4,0.5-0.7,0.5,0.1c0.1,0,0.1-0.4,0-0.4
				c1,0.4,2.1-0.2,3-0.6c0.8,0.4,0.4,1.4,0.8,0.7c0.1,0.2-0.1-0.3,0-0.2c0.1-0.3,0.6,0.8,0.6,0.4c-0.2-0.5,0-0.3-0.1-0.6
				c0.5,0.2,0.8,0.6,1,0.1l0.1,0.3c0-0.5,0.2-0.6,0.3-0.8c0.1-0.2,0.3-0.4,0.2-0.9c0.9-0.6,1.6-1.4,2.2-2.3c0.6-0.9,1.1-1.8,1.5-2.6
				c0.5-0.8,0.8-1.7,0.9-2.7c0.1-0.5,0.1-1,0.2-1.5l0-0.4l0-0.1l0,0v0v0v0v0v0l0-0.3c0-0.2,0-0.2,0.1-0.4l0.1-0.4
				c0.7-0.5,0.7-0.6,0.3-1.1c0.1,0,0.2,0,0.3,0c-0.6,0.1-0.1-0.4-0.7-0.3c-0.1-0.8-0.4-1.3-0.7-2c0.1,0.1,0.6-0.1,0.5-0.2l-0.4,0
				l0.1-0.1c-0.1-0.1-0.4,0-0.6,0.2c-0.6-0.7-1-1.5-1.5-2.4c-0.1-0.1-0.1-0.2-0.2-0.3l-0.1-0.1v0v0c0.1,0.1,0,0,0,0l0,0l0,0l0,0
				l-0.1-0.2c-0.1-0.1-0.1-0.2-0.2-0.3c-0.1-0.1-0.2-0.2-0.2-0.3c-0.3-0.4-0.7-0.7-1.1-0.9c-0.2-0.5-0.9-0.6-1.4-0.6
				c-0.5-0.7-1.1-1.2-1.8-1.6c-0.7-0.3-1.5-0.4-2.4-0.2C175.9,93.7,176.1,92.1,177,91.7"/>
			<path id="XMLID_1781_" class="st4" d="M175.4,92.1c-0.1-0.3-0.3-0.5-0.1-0.9C175.2,91.5,175.4,91.8,175.4,92.1"/>
			<path id="XMLID_1780_" class="st4" d="M168.4,90.6c0,0.1-0.1-0.1-0.2-0.1c0.1-0.1,0-0.3,0.2-0.2
				C168.3,90.4,168.4,90.5,168.4,90.6"/>
			<path id="XMLID_1779_" class="st4" d="M166.8,91.4c-0.1-0.2,0.1-0.6,0.3-0.8C166.9,90.8,166.9,91.1,166.8,91.4"/>
			<path id="XMLID_1753_" class="st4" d="M164.7,91.5c-0.3-0.1-0.3-0.2-0.1-0.3C164.7,91.3,164.6,91.4,164.7,91.5"/>
			<path id="XMLID_1752_" class="st4" d="M165,92.1c-0.1,0.1-0.3,0-0.4-0.1C164.7,92.2,164.7,91.7,165,92.1"/>
			<path id="XMLID_1751_" class="st4" d="M161.8,94.3c0,0.1,0,0.4-0.3,0.3C161.7,94.6,161.5,94,161.8,94.3"/>
			<path id="XMLID_1750_" class="st4" d="M161.1,96c0,0-0.1,0-0.1,0.1c-0.2,0-0.3-0.2-0.2-0.3L161.1,96z"/>
			<polygon id="XMLID_1749_" class="st4" points="172.1,120.8 171.9,120.9 172,120.6 			"/>
			<path id="XMLID_1748_" class="st4" d="M184.9,118.5c0.1-0.2,0.3,0.1,0.3,0.2C185.1,118.8,185,118.4,184.9,118.5"/>
			<polygon id="XMLID_1747_" class="st4" points="188.6,112.7 188.6,112.7 188.1,112.4 			"/>
			<path id="XMLID_1746_" class="st4" d="M176.2,85.2c-0.4,0.1,0.2,0.5-0.3,0.2C176,85.2,176.1,85,176.2,85.2"/>
			<path id="XMLID_1745_" class="st4" d="M174.4,85.6c-0.7,0.8-1.4,0.8-2.3,0.9c-0.8,0.1-1.7,0.2-2.3,0.9c-0.2,0.1-0.2-0.8-0.5-0.4
				c-0.5,0.8-1.3,1.2-2.3,1.6c-0.9,0.4-2,0.6-3,0.9l0-0.3c-0.4,0.1-0.3,0.9-0.6,1.1c-0.1-0.1,0-0.2-0.2-0.3c0.2,0.4-0.4,0.6-0.3,1
				c-0.2,0-0.5-0.3-0.7-0.3l0.2,0.5c0.2,0.6-0.1,0.9-0.4,1.1c-0.3,0.2-0.7,0.4-0.8,0.9c-0.1-0.1-0.1-0.2-0.2-0.2
				c-0.3,1.4-1.3,2.7-1.7,4c-0.1-0.1-0.4-0.3-0.6-0.3c0.4,0.3,0.4,0.7,0.3,1.1c-0.6-0.1,0.2,0.8-0.2,1.1l-0.1-0.1
				c0.4,0.5-0.5,0.3,0.1,0.8l-0.5,0.1c0.7,0.4-0.5,0.3-0.2,0.7l0.2,0c0.1,0.3-0.3,0.3-0.2,0.6H158c0.1,0.6-0.4,0.8,0.2,0.9
				c-0.5,0.1-0.1-0.6-0.9-0.4c0.1,1,0.2,1.9,0.2,2.8c0,0.9,0,1.8,0.1,2.7c-0.2,0.2-0.3,0.4-0.5,0.4c0.1,0.2,0.2,0.7,0.5,0.8
				c0-0.1-0.3,0.2-0.3,0.3c-0.2,0.4,0.7,0.2,0.5,0.6c-0.2-0.1-0.4-0.1-0.6,0c0.5,0.2,0.5,0.6,0.8,0.9c-0.1,0-0.2-0.1-0.4,0
				c0.6,0.2,0.1,0.7,0.5,1l-0.4,0c-0.2,0.7,0.7-0.1,0.7,0.5c-0.1-0.1-0.3,0-0.4,0c0.7,0.2,0.8,1,1.2,1.3c-0.1,0-0.1,0-0.1,0
				c0.3,0.4,0.4,1,0.9,1.3c0,0.2-0.8,0.4-0.4,0.8c0.6-0.4,0.7,0.6,1.2-0.1c0.1,0.4,0.4,1.1,0.7,1.2c-0.3,0-0.5,0.7-0.8,0.4l-0.1,0.5
				c-0.3,0.1-0.1-0.3-0.3,0c0.1,0.1,0.7,0.4,0.7,0.6c0.6,0,1.4-0.3,1.8,0c-0.4,0-0.4,0.6-0.6,0.6l0.8-0.2l0.7-0.2
				c0.2,0.1-0.3,0.4,0,0.5c0.1-0.1,0.3-0.2,0.4-0.2c0,0.1,0.7,0.4,0.3,0.9c-0.1,0.2-0.3-0.1-0.3,0.2c0.3,0.2,0.4,0,0.7,0.3l-0.1,0.1
				c0.1,0.2,0.7,0.2,0.7-0.3c-0.1-0.1-0.2,0.4-0.3,0.1c0.4-0.2,0.7-0.1,1,0.1c-0.2,0-0.3,0.2-0.4,0.3c0.7-0.2,1.1-0.1,1.7,0
				c0.2-0.3-0.5,0.4-0.4,0.2c0.2,0.4,0.5,0.4,0.8,0.4c0.3,0,0.6,0.1,0.7,0.5c-0.1,0,0.2-0.4,0.1-0.4c0.2,0.2,0,0.6,0.3,0.5
				c-0.1,0.3,0.3,0,0.5,0c0.2-0.1,0,0.1-0.2,0.1c0.2-0.1,0.5-0.1,0.9,0c0.4,0,0.8,0.2,1,0.4c0-0.2,0.5-0.5,0.7-0.5l-0.2,0.4
				c0.1,0.3,0.5,0.1,0.4,0.4c0.2-0.2-0.1-0.2-0.4-0.1c-0.3,0.1-0.6,0.1-0.3,0c0,0.4,0.7-0.5,0.5,0c0.3,0.1,0.7-0.4,0.8,0.1
				c-0.1-0.1-0.3,0.5-0.1,0.6c0.4,0,0.1-0.2,0.5-0.3l0.2-0.1c0.1-0.4,0.4,0.1,0.3-0.4c0,0.4,0.6-0.1,0.5,0.5l-0.1,0.5
				c0.2,0,0.4-0.5,0.5-0.8c0,0.1,0.1,0.2,0,0.2c0.1-0.8,0.4,0.1,0.7-0.5c0.4,0.3,1,0,1.2,0.5c0.3-0.3,0.5-0.6,0.9-0.4
				c-0.1,0.1-0.1,0.1-0.1,0.3c0.2,0.2,0.3,0,0.4-0.1c0,0.1,0.5,0.4,0.7,0.7c0.3-0.3,0.1-0.7,0.1-1c0.2,0.4,0.4,0.2,0.6,0.1
				c0.2-0.2,0.4-0.4,0.6,0c-0.1,0.1-0.3,0.5-0.1,0.6c0.4,0.7,0.4-0.7,0.9-0.4l-0.3-0.6c0.3,0.4,0.5-0.5,0.6,0.1
				c0.1-0.3,0.5,0.1,0.3-0.5c0.4,0.2,0.8-0.1,1.1-0.2c0.3-0.1,0.7-0.2,1.1,0.2c0-0.1,0.3-0.2,0.1-0.4c-0.3-0.3-0.1,0.3-0.3,0.1
				c0.1-0.1,0-0.2,0-0.3c0.3,0,0.4,0,0.5,0.6c0.6,0.1-0.1-1.2,0.5-1.3c0.1,0.3,0.2,0.3,0.3,0.2l0-0.6c0.4-0.1,0.5,0.4,0.8,0.8
				c0.1-0.2,0.4-0.3,0.3-0.7c0.2,0.1,0.4,0.2,0.6,0.3c-0.4-0.2,0-0.3,0-0.5l0,0.2c0.2,0.1,0.3-0.1,0.3-0.2c-0.2-0.2-0.5-0.1-0.6-0.1
				c0-0.2,0.1-0.3,0.1-0.6c0.2,0.4,0.5,0,0.6,0c0.2-0.1-0.1-0.5,0-0.5c0.2,0.2,0.3-0.2,0.4,0.2c0,0.1-0.3-0.1-0.2,0.2
				c0.2,0,0.5,0.4,0.5,0c0-0.3-0.6-0.6-0.2-0.7c0,0.1,0.1,0.3,0.2,0.5l0.4-0.1l-0.3-0.3c0.1,0,0.1,0.1,0.2,0.1
				c-0.1-0.2-0.1-0.3,0-0.4c0.1-0.1,0.1-0.3,0-0.5c0.1-0.1,0.5-0.1,0.6-0.1l0,0.1c0.3,0,0.4-0.3,0.3-0.6l0.1,0.1
				c0.1-0.1,0.2-0.3,0.1-0.6c0.4,0,1.3,0.9,1.1,0.3c0.2-0.2-0.3-0.8-0.6-0.9c0.5-0.3,0.3-1.1,1.1-1.1c-0.1-0.2-0.2-0.2-0.2-0.4
				c0.3-0.3,0.3-0.7,0.5-1c0.1-0.3,0.3-0.6,0.8-0.7c0.1,0.3,0.4,0.2,0.6,0.3c-0.3-0.3,0.4-0.1-0.1-0.4c-0.4-0.1-0.5-0.2-0.7-0.1
				c0-0.5,0.2-1.1,0.6-1.2c-0.2,0.1-0.3-0.1-0.4-0.2c0.6,0.2,0.7-0.1,0.6-0.4l-0.3-0.1l0.4-0.1c-0.1-0.1-0.7-0.3-0.3-0.4
				c0.1,0,0.3,0,0.4,0c-0.2-0.3-0.6-0.8-0.3-1l0.6-0.1c0-0.1-0.3-0.4-0.5-0.2c0.4-0.4,0.5-0.7,0.9-0.8c-0.5-0.5-0.8-1-0.9-1.5
				c0-0.1-0.1-0.3-0.1-0.5v0v0v0v0l0,0l0,0l0-0.1l0-0.2c0-0.3,0-0.5,0-0.7l0.3,0c0.2-0.3-0.5-0.1-0.3-0.3c0.3,0.1,0.5-0.2,0.9-0.1
				c0.3-0.4-0.5-0.4-0.7-0.7c-0.4,0,0.2,0.2-0.2,0.2c-0.1,0,0.2-0.5-0.3-0.5c0.2-0.1,0.6-0.1,0.8-0.1l-0.3-0.2
				c0.3-0.2,0.6-0.1,0.9,0c0.3,0.1,0.7,0.2,1,0l-0.1-0.2c0.5-0.3,0.7,0.5,0.8-0.1c-0.3-0.2-1.1-0.3-1.3,0c-0.2-0.5-1.3,0-1.4-0.5
				c0.3-0.2,0.1,0.4,0.6,0.2c0.4-0.3-0.3-0.4-0.2-0.7c-0.1,0.3-0.7,0.2-0.9,0.1c0.2-0.3,0.5,0,0.5-0.3c-0.3,0-0.6-0.2-0.8,0.1
				c-0.7,0.1,0.1-0.4-0.5-0.4c0.4-0.3,1.2,0,1.3-0.4c-0.4,0.2-0.8-0.3-1.4,0.1c0.1-0.2,0.4-0.3,0.8-0.3c0.2-0.3-1-0.2-0.1-0.6
				l-0.5,0.1c0.1-0.1,0.2-0.3,0.4-0.5c-0.1-0.2-0.9-0.3-0.2-0.6c-0.1,0-0.2-0.4-0.6-0.1c-0.2,0.4,0.5,0.1-0.1,0.5
				c0.5-0.4-0.2-0.3-0.5-0.4l0.3-0.1c-0.1,0-0.2-0.2-0.5-0.2c0.2,0,0.3-0.1,0.4-0.2l-0.4,0.1c-0.4-0.2,0.6-0.4,0.4-0.7l0.4,0.1
				c-0.1,0,0.2-0.3,0-0.4c-0.4,0.1-0.9,0.3-1.2,0.4c-0.2-0.1,0.3-0.3-0.1-0.3l0.5,0c0.1,0,0.5-0.5,0.3-0.7c-0.2-0.1-0.8,0-0.9,0.4
				c-0.1-0.1,0-0.4,0.3-0.5c-0.3-0.2-0.3,0.3-0.7,0.2c0.2-0.2,0.3-0.7,0.5-1.1l0.7-0.2l-0.1-0.2c0.6-0.1,0.2-0.4,0.8-0.6
				c0-0.2-0.3-0.2-0.5-0.2c-0.5,0.9-1.3,0.4-1.8,1c-0.5-0.2,1.3-1.6,0-1.1c-0.1,0.2-0.7,0.4-0.3,0.5c-0.1-0.3-0.8,0.4-0.7-0.1
				c0.4,0,0.4-0.8,1-0.8c-0.2,0.2,0,0.3,0.1,0.3c0.1-0.3,0.6-0.5,0.4-0.8c-0.2-0.1-0.4-0.3-0.7,0c-0.3,0.3,0.3,0.2-0.2,0.4
				c-0.1-0.1-0.2-0.1-0.2-0.2c0,0,0-0.1,0-0.1l0,0l0,0c0,0,0,0,0,0v0v0l0,0l0,0c0-0.1-0.1-0.1-0.4,0.1c0.1,0.1,0.1,0.2,0,0.3l0,0.1
				v0v0l0,0v0l0,0l0,0c0,0,0,0.1-0.1,0.1c-0.1,0.1-0.1,0.1-0.2,0.2l0,0l0,0h0l0,0h0l-0.1,0l-0.2,0l0.3-0.2c-0.2-0.5-0.5,0.3-0.8-0.1
				l0.3-0.6c0.4-0.3,0.3,0.6,0.9-0.1c-0.2-0.2-0.6,0-0.6-0.3c0.1,0,0.2,0,0.3,0c-0.1-0.1,0.6-1-0.2-0.8c-0.3,0.1-0.2,0.2-0.5,0.4
				c-0.4-0.2-0.8-0.1-1-0.2c0.4-0.5-0.4-0.4,0.3-0.7c-0.1,0.4,0.5,0.8,1,0.4c0.3-0.7,0.2,0.3,0.8-0.2c-0.3-0.3,0.2-0.8,0.4-1.2
				c-0.1-0.1-0.3,0-0.4,0c-0.3,0.3-0.2,0.4-0.5,0.8c-0.3-0.4-0.8-0.5-1.3-0.2c0-0.3,0.3-0.6,0.5-0.5c-0.5-0.2-1-0.6-1.4-1
				c-0.1,0.8-0.6-0.1-0.7,0.5c0.2,0.3,0.1,0.8-0.2,1.1c-0.1-0.1,0.2-0.3,0.2-0.5c-0.4,0.3,0-0.7-0.4-0.3c0.5,0,0.5-0.8,0.9-1.2
				c-0.5,0.1,0.2-0.4-0.1-0.5c-0.5,0.1-1,0.2-1.4,0.1c-0.3-0.7-1.2-0.5-1.6-0.6c-0.1-0.4,0.2-0.9,0-1.1c-0.3-0.1,0,0.7-0.3,0.3
				l0.1-0.1c-0.2,0.1-0.7-0.6-1.1,0.3l0.3-0.7c-0.1-0.1-0.2,0.1-0.3,0.1c0-0.2,0-0.5,0.2-0.6c-0.2-0.5-0.6,0-0.9-0.1l0.1,0.4
				c-0.6,0.2-0.9-0.2-1.4-0.1l0.1-0.4l-0.3,0.2c0.1-0.4-0.2-0.7-0.3-0.3c0.3-0.3,0.6-0.6,0.9-0.9c0.2,0.3-0.3,0.5-0.2,0.9
				c0.1,0.4,0.6,0.3,0.7-0.1c-0.2-0.1-0.2,0-0.4,0.2c0-0.6,0.3-0.5,0.5-0.9c-0.1,0-0.2-0.2-0.3,0c0.2-0.3,0.5-0.3,0.8-0.2
				c-0.3,0.2,0.1,0.4,0,0.5c0.1-0.5,0.5-0.6,0.9-0.4c0.2,0.6,0.9-0.2,1.3,0.1c-0.3,0.4-0.7,0.8-1,0.9c0.2,0.3,0.3,0.1,0.5,0.4
				c0.2-0.3,0.5-0.9,0.9-1l-0.1,0.4c0.4-0.1,0.6-0.6,1-0.4c0.7,0.4,1.5,0.8,2,1.1l-0.1,0.4c0.7-0.6,1.1,0.3,1.7,0.2
				c0.5,0.7,1.7,0.6,1.6,1.4c1.3,0.6,2.4,1.2,3.3,2.4l-0.6,0.2c0.5-0.1-0.1,0.3,0.1,0.5c0.1-0.5,0.7-0.1,1-0.2
				c0.1,0.8,1,1.1,1.6,1.4l-0.3,0.2c0.9,0.1,0.8,1,1,1.7c-0.1,0.2-0.3,0.4-0.2,0.6c0.7,0.1,0.8,0.3,1.4,0.6c0.2,0.4,0.3,1.1,0.2,1.6
				c0.7,0.6,1,1.4,1.2,2.2c0.2,0.8,0.3,1.6,0.7,2.5l-0.4,0.2c1.1,1.6,0.2,3.6,0.5,5.1l-0.7-0.2c-0.3,0.4,0.1,1,0.6,1
				c-0.3,0.4,0.2,1.2-0.5,1.3c-0.2,0.4,0.2,0.6,0.2,1c-0.5,0.8-0.6,1.2-0.8,2l0.1-0.2c-0.1-0.2-0.4-0.3-0.5-0.1
				c0.1,0.4-0.6,1,0.3,1.1c-0.4,0.3-0.6,0.9-0.8,1.4c-0.2,0.5-0.4,1-0.9,1.2c0.2,0.1,0.2,0.3,0.3,0.5c-0.5,0.7-1.4,1.1-1.4,1.9
				c-0.2,0-0.2-0.4-0.4-0.2c-0.1,0.2,0.2,0.2,0.2,0.5c-0.3,0.7-0.8,1.1-1.4,1.4c-0.5,0.3-1.2,0.6-1.6,1.1c-0.6,0.9-1.5,1.6-2.4,2.2
				c-0.9,0.6-1.9,1.1-2.9,1.5l-0.1-0.2c-0.2,0.5-0.6,0.5-1.1,0.5c-0.4,0-0.8,0-0.9,0.6c-0.2-0.1-0.6,0.1-0.6-0.3
				c-0.2,0.3-0.6,0.3-1,0.3c-0.4,0-0.9,0-1.2,0.4c0.1,0,0.1,0,0.2-0.1c-0.8-0.3-1.5,0.4-2.3,0.1c0.1-0.1,0.2-0.2,0.2-0.3
				c-0.3-0.3-0.7,0.8-0.9-0.1c-0.2,0-0.1,0.4,0,0.4c-1.8-0.3-3.8,0.2-5.7-0.1c-0.6-0.4-0.6-0.8-0.5-1c0.1-0.2,0.1-0.3-0.5-0.1
				c0-0.2-0.1,0.3-0.1,0.1c-0.5,0.1-0.3-1.1-0.7-0.8c-0.1,0.6-0.3,0.2-0.4,0.5c-0.7-0.6-0.6-1.1-1.4-1l0.2-0.2
				c-0.5,0.2-0.9,0.1-1.3,0c-0.4-0.1-0.8-0.2-1.3,0.1c-1.9-1-3.7-2.3-5.3-3.7c-1.6-1.4-3-3.1-4.2-5c-1-2-1.8-4-2.2-6.2
				c-0.2-1.1-0.3-2.1-0.3-3.2c0-0.3,0-0.5,0-0.8l0-0.4l0-0.3c0-0.2,0.1-0.6,0.1-0.8c0-0.3,0.1-0.5,0.1-0.8c0.8-0.9,0.8-1,0.7-2.1
				c0.1,0.1,0.1,0.1,0.3,0.1c-0.6-0.2,0.1-0.8-0.5-1c0.5-1.6,0.8-3,1.5-4.6c-0.1,0.3,0.3,0.6,0.4,0.3l-0.2-0.5l0.2,0
				c0-0.2-0.1-0.6-0.4-0.5c0.8-2,2.2-3.7,3.7-5.1c0.2-0.2,0.4-0.3,0.6-0.5l0.1-0.1l0,0l0,0l0,0l0,0l0,0l0.1-0.1l0.3-0.2l0.6-0.5
				l0.6-0.4c0.8-0.6,1.7-1.1,2.5-1.7c0.9-0.3,2-1.2,3-1.7c1.6-0.3,3.1-0.3,4.5-0.4c1.4-0.1,2.8-0.2,4.3-0.5
				C175.9,83.6,175.5,85.1,174.4,85.6"/>
			<path id="XMLID_1744_" class="st4" d="M176.8,85.1c0.1,0.3,0.4,0.5,0.1,0.9C176.9,85.7,176.7,85.4,176.8,85.1"/>
			<path id="XMLID_1743_" class="st4" d="M183.6,90c0.1-0.1,0,0.2,0,0.2c-0.1,0-0.3,0.2-0.3,0C183.5,90.3,183.5,90.1,183.6,90"/>
			<path id="XMLID_1742_" class="st4" d="M185.1,91.1c-0.2,0.2-0.6,0.2-0.8,0.1C184.5,91.2,184.8,91.2,185.1,91.1"/>
			<path id="XMLID_1741_" class="st4" d="M185.7,93c0,0.3-0.1,0.3-0.3,0.2C185.5,93.1,185.6,93.1,185.7,93"/>
			<path id="XMLID_1740_" class="st4" d="M186.2,92.6c0.1,0.1,0.1,0.3,0,0.4C186.4,92.9,185.9,92.9,186.2,92.6"/>
			<path id="XMLID_1739_" class="st4" d="M188.1,95.7c0.1,0.1,0.4,0.1,0.2,0.3C188.4,95.8,187.8,95.9,188.1,95.7"/>
			<path id="XMLID_1738_" class="st4" d="M189.4,96.8c0,0.1,0,0.1,0.1,0.1c-0.1,0.1-0.3,0.2-0.4,0.1L189.4,96.8z"/>
			<polygon id="XMLID_1737_" class="st4" points="180,121.5 180.1,121.3 180.1,121.6 			"/>
			<path id="XMLID_1736_" class="st4" d="M166.6,119.1c-0.2,0,0-0.3,0-0.3C166.7,118.8,166.3,119,166.6,119.1"/>
			<polygon id="XMLID_1735_" class="st4" points="160.2,114.4 160.2,114.4 159.8,114.7 			"/>
			<path id="XMLID_1053_" class="st3" d="M135.2,110.1L135.2,110.1l0-12h-6.7v-8.4h6.7v-8.5l9-3.9v12.4h0v0h6.6v8.4h-6.6v16.8
				c0,2.2,0.7,4,2.3,5.5c0,0,0,0,0.1,0.1l1.4,1.3l-5.7,7.1l-1.6-1.4c-0.2-0.2-0.4-0.4-0.6-0.6c-3.3-3.3-4.8-7.3-4.8-11.9V110.1z"/>
			<path id="XMLID_1050_" class="st4" d="M190,105.1C190,57.4,190,152.1,190,105.1 M175.9,86.2c5.2,0,9.7,1.8,13.4,5.5
				c3.7,3.7,5.5,8.1,5.5,13.4c0,5.1-1.8,9.6-5.5,13.3c-3.7,3.7-8.1,5.6-13.4,5.6c-5.1,0-9.6-1.9-13.3-5.6c-3.7-3.7-5.6-8.2-5.6-13.3
				c0-5.2,1.9-9.7,5.6-13.4C166.4,88,170.8,86.2,175.9,86.2"/>
			<path id="XMLID_1049_" class="st5" d="M162,106.1c0-7.7,6.2-13.9,13.9-13.9c7.7,0,13.9,6.2,13.9,13.9c0,7.7-6.2,13.9-13.9,13.9
				C168.3,120,162,113.7,162,106.1"/>
		</g>
		<line id="XMLID_1047_" class="st6" x1="292.3" y1="4" x2="292.3" y2="128.7"/>
		<g id="XMLID_1043_">
			
				<linearGradient id="XMLID_4_" gradientUnits="userSpaceOnUse" x1="382.6747" y1="58.5006" x2="465.9778" y2="58.5006" gradientTransform="matrix(-1 0 0 1 900.6751 0)">
				<stop  offset="0" style="stop-color:#88171A"/>
				<stop  offset="0.45" style="stop-color:#DB1F26"/>
				<stop  offset="1" style="stop-color:#F1564B"/>
			</linearGradient>
			<path id="XMLID_1046_" class="st7" d="M439.6,22.4C439.6,22.4,439.6,22.4,439.6,22.4c2.1-2.4,4.2-5.3,10.5-9.5
				c7.7-5.1,17.1-7.6,27.9-7.6c11.3,0,20.8,3.6,28.4,10.6C514.1,23,518,32,518,42.7c0,8.9-2.6,17.2-7.8,24.9
				c-4.4,6.5-12.2,14.8-24,25.5L468,110.2c-3.4,2.5-8.1,2-10.8-1c-2.8-3.1-2.7-8.1,0.4-11.1c9.5-8.6,8-7.3,17.5-15.8
				c9.8-8.8,16.7-16.3,20.5-22.1c3.5-5.5,5.3-11.2,5.3-16.8c0-6.6-2.3-11.9-6.9-16.1c-4.7-4.3-10.3-6.4-17-6.4
				c-6.7,0-12.7,1.7-17.8,5.1c-3.2,2.2-6.6,5.4-9.9,9.4c0,0,0,0,0.1,0c-0.9,1.2-2.6,3.6-3.2,7.1c-0.8,4.6,0.6,8.2,1.2,9.6
				c-2.6,0-6.3-1.2-9.3-4.5C435.2,44.2,431.5,31.9,439.6,22.4z"/>
			
				<linearGradient id="XMLID_5_" gradientUnits="userSpaceOnUse" x1="382.6747" y1="29.6328" x2="465.9778" y2="29.6328" gradientTransform="matrix(-1 0 0 1 900.6751 0)">
				<stop  offset="0" style="stop-color:#F1564B"/>
				<stop  offset="0.55" style="stop-color:#DB1F26"/>
				<stop  offset="1" style="stop-color:#88171A"/>
			</linearGradient>
			<path id="XMLID_1045_" class="st8" d="M516.5,54c-0.3-4.1-1.5-10.9-6.2-17.5c-11-15.7-31-15.8-33.2-15.8
				c-6.7,0-12.7,1.7-17.8,5.1c-3.2,2.2-6.6,5.4-9.9,9.4c0,0,0,0,0.1,0c-0.9,1.2-2.6,3.6-3.2,7.1c-0.8,4.6,0.6,8.2,1.2,9.6
				c-2.6,0-6.3-1.2-9.3-4.5c-3-3.3-6.7-15.6,1.4-25.1c0,0,0,0,0,0c2.1-2.4,4.1-5.3,10.5-9.5c7.7-5.1,17.1-7.6,27.9-7.6
				c11.3,0,20.8,3.6,28.4,10.6C514.1,23,518,32,518,42.7C518,46.5,517.5,50.3,516.5,54L516.5,54z"/>
			
				<linearGradient id="XMLID_6_" gradientUnits="userSpaceOnUse" x1="461.1772" y1="9.7657" x2="497.6467" y2="109.9647" gradientTransform="matrix(-1 0 0 1 900.6751 0)">
				<stop  offset="0.1279" style="stop-color:#ED1C24"/>
				<stop  offset="0.2959" style="stop-color:#A82A55"/>
				<stop  offset="0.5673" style="stop-color:#2E3192"/>
			</linearGradient>
			<path id="XMLID_1044_" class="st9" d="M442,124.1l-33.5-31.1c-11.7-10.7-19.6-19-24-25.5c-5.2-7.7-7.8-16.1-7.8-24.9
				c0-10.7,3.9-19.7,11.6-26.8c7.6-7,17.2-10.6,28.4-10.6c0,0,0,0,0,0v0c10.8,0,20.2,2.6,27.9,7.6c2.2,1.5,3.9,2.8,5.2,4
				c0.5,0.4,0.9,0.8,1.2,1.1c0,0,0,0,0.1,0.1c0,0,0,0,0,0c1.7,1.7,2.8,3.1,3.9,4.3c0,0,0,0,0,0c8.1,9.5,4.4,21.8,1.4,25.1
				c-3,3.2-6.7,4.5-9.3,4.5c0.6-1.4,2-5,1.2-9.6c-0.6-3.5-2.2-5.9-3.2-7.1c0,0,0,0,0,0c-3.4-4-6.7-7.1-9.9-9.4
				c-5.2-3.4-11.2-5.1-17.8-5.1c-6.7,0-12.2,2.1-17,6.4c-4.6,4.2-6.9,9.5-6.9,16.1c0,5.6,1.8,11.3,5.3,16.8
				c3.8,5.9,10.6,13.3,20.5,22.1l34.1,31c2.8,2.4-2.5,5-3.4,8.3c-1.1,4.2,2.7-2.7-2.5-2.7"/>
		</g>
		<ellipse id="XMLID_1042_" class="st0" cx="447.9" cy="118.7" rx="8.1" ry="8"/>
		<g id="XMLID_1035_">
			<path id="XMLID_1040_" class="st0" d="M476.8,111c0-0.2,0.1-0.4,0.3-0.4h10.6c0.2,0,0.3,0.2,0.3,0.4v14.3c0,0.2-0.1,0.4-0.3,0.4
				h-3.4c-0.2,0-0.3-0.2-0.3-0.4v-11.2h-3.2v6.1c0,4-1.1,5.8-4.9,5.8c-0.7,0-1.5-0.1-2.2-0.3c-0.2,0-0.3-0.2-0.3-0.5l0.1-2.5
				c0-0.3,0.2-0.4,0.4-0.4c0.3,0.1,0.7,0.2,1.1,0.2c1.2,0,1.7-0.5,1.7-1.8V111z"/>
			<path id="XMLID_1038_" class="st0" d="M490.2,111c0-0.2,0.1-0.4,0.3-0.4h9.2c0.2,0,0.3,0.2,0.3,0.4v2.5c0,0.2-0.1,0.4-0.3,0.4
				h-5.6v2.5h5.2c0.2,0,0.3,0.2,0.3,0.4v2.5c0,0.2-0.1,0.4-0.3,0.4h-5.2v2.7h5.7c0.2,0,0.3,0.2,0.3,0.4v2.5c0,0.2-0.1,0.4-0.3,0.4
				h-9.3c-0.2,0-0.3-0.2-0.3-0.4V111z"/>
			<path id="XMLID_1036_" class="st0" d="M504.7,114.1h-3.4c-0.2,0-0.3-0.2-0.3-0.4V111c0-0.2,0.1-0.4,0.3-0.4H512
				c0.2,0,0.3,0.2,0.3,0.4v2.6c0,0.2-0.1,0.4-0.3,0.4h-3.4v11.2c0,0.2-0.1,0.4-0.3,0.4H505c-0.2,0-0.3-0.2-0.3-0.4V114.1z"/>
		</g>
	</g>
</g>
</svg>
